G75*
%MOIN*%
%OFA0B0*%
%FSLAX25Y25*%
%IPPOS*%
%LPD*%
%AMOC8*
5,1,8,0,0,1.08239X$1,22.5*
%
%ADD10OC8,0.07100*%
%ADD11C,0.06000*%
%ADD12C,0.06800*%
%ADD13OC8,0.06000*%
%ADD14C,0.05200*%
%ADD15R,0.06706X0.06706*%
%ADD16C,0.05131*%
D10*
X0296000Y0146000D03*
X0296000Y0156000D03*
X0296000Y0171000D03*
X0296000Y0181000D03*
D11*
X0313400Y0176000D02*
X0318600Y0176000D01*
X0318600Y0166000D02*
X0313400Y0166000D01*
X0313400Y0156000D02*
X0318600Y0156000D01*
X0318600Y0146000D02*
X0313400Y0146000D01*
X0313400Y0136000D02*
X0318600Y0136000D01*
X0318600Y0126000D02*
X0313400Y0126000D01*
X0313400Y0116000D02*
X0318600Y0116000D01*
X0343400Y0116000D02*
X0348600Y0116000D01*
X0348600Y0126000D02*
X0343400Y0126000D01*
X0343400Y0136000D02*
X0348600Y0136000D01*
X0348600Y0146000D02*
X0343400Y0146000D01*
X0343400Y0156000D02*
X0348600Y0156000D01*
X0348600Y0166000D02*
X0343400Y0166000D01*
X0343400Y0176000D02*
X0348600Y0176000D01*
X0348600Y0186000D02*
X0343400Y0186000D01*
X0343400Y0196000D02*
X0348600Y0196000D01*
X0348600Y0206000D02*
X0343400Y0206000D01*
X0343400Y0216000D02*
X0348600Y0216000D01*
X0348600Y0226000D02*
X0343400Y0226000D01*
X0343400Y0236000D02*
X0348600Y0236000D01*
X0348600Y0246000D02*
X0343400Y0246000D01*
X0318600Y0246000D02*
X0313400Y0246000D01*
X0313400Y0236000D02*
X0318600Y0236000D01*
X0318600Y0226000D02*
X0313400Y0226000D01*
X0313400Y0216000D02*
X0318600Y0216000D01*
X0318600Y0206000D02*
X0313400Y0206000D01*
X0313400Y0196000D02*
X0318600Y0196000D01*
X0318600Y0186000D02*
X0313400Y0186000D01*
D12*
X0261000Y0119000D02*
X0261000Y0113000D01*
X0271000Y0113000D02*
X0271000Y0119000D01*
X0281000Y0119000D02*
X0281000Y0113000D01*
X0291000Y0113000D02*
X0291000Y0119000D01*
X0368000Y0171000D02*
X0374000Y0171000D01*
X0374000Y0181000D02*
X0368000Y0181000D01*
X0368000Y0191000D02*
X0374000Y0191000D01*
X0374000Y0201000D02*
X0368000Y0201000D01*
X0368000Y0211000D02*
X0374000Y0211000D01*
X0374000Y0221000D02*
X0368000Y0221000D01*
X0368000Y0231000D02*
X0374000Y0231000D01*
X0374000Y0241000D02*
X0368000Y0241000D01*
D13*
X0296000Y0236000D03*
X0281000Y0236000D03*
X0266000Y0236000D03*
X0251000Y0246000D03*
X0241000Y0246000D03*
X0266000Y0266000D03*
X0281000Y0266000D03*
X0296000Y0266000D03*
X0251000Y0176000D03*
X0241000Y0176000D03*
D14*
X0268800Y0171000D02*
X0273200Y0171000D01*
X0273200Y0151000D02*
X0268800Y0151000D01*
D15*
X0271000Y0196000D03*
X0291000Y0196000D03*
X0291000Y0226000D03*
X0271000Y0226000D03*
D16*
X0241000Y0226000D03*
X0301000Y0196000D03*
M02*
