%
M48
M72
T01C0.02400
T02C0.03200
T03C0.03543
T04C0.04000
T05C0.04331
%
T01
X271000Y151000
X271000Y171000
T02
X251000Y176000
X241000Y176000
X296000Y171000
X296000Y181000
X316000Y176000
X316000Y166000
X316000Y156000
X316000Y146000
X316000Y136000
X316000Y126000
X316000Y116000
X346000Y116000
X346000Y126000
X346000Y136000
X346000Y146000
X346000Y156000
X346000Y166000
X346000Y176000
X346000Y186000
X346000Y196000
X346000Y206000
X346000Y216000
X346000Y226000
X346000Y236000
X346000Y246000
X316000Y246000
X316000Y236000
X316000Y226000
X316000Y216000
X316000Y206000
X316000Y196000
X316000Y186000
X296000Y156000
X296000Y146000
X296000Y236000
X281000Y236000
X266000Y236000
X251000Y246000
X241000Y246000
X266000Y266000
X281000Y266000
X296000Y266000
T03
X291000Y226000
X271000Y226000
X271000Y196000
X291000Y196000
T04
X261000Y116000
X271000Y116000
X281000Y116000
X291000Y116000
X371000Y171000
X371000Y181000
X371000Y191000
X371000Y201000
X371000Y211000
X371000Y221000
X371000Y231000
X371000Y241000
T05
X301000Y196000
X241000Y226000
M30
