G75*
%MOIN*%
%OFA0B0*%
%FSLAX25Y25*%
%IPPOS*%
%LPD*%
%AMOC8*
5,1,8,0,0,1.08239X$1,22.5*
%
%ADD10C,0.00600*%
%ADD11C,0.01600*%
%ADD12C,0.01000*%
%ADD13R,0.02000X0.02000*%
%ADD14R,0.03000X0.05000*%
%ADD15R,0.00500X0.05000*%
%ADD16C,0.00200*%
%ADD17C,0.02000*%
%ADD18R,0.02000X0.01500*%
%ADD19R,0.01500X0.02000*%
%ADD20C,0.00800*%
D10*
X0221000Y0113500D02*
X0223500Y0111000D01*
X0228500Y0111000D01*
X0231000Y0113500D01*
X0231000Y0118500D01*
X0228500Y0121000D01*
X0231000Y0123500D01*
X0231000Y0128500D01*
X0228500Y0131000D01*
X0231000Y0133500D01*
X0231000Y0138500D01*
X0228500Y0141000D01*
X0223500Y0141000D01*
X0221000Y0138500D01*
X0221000Y0133500D01*
X0223500Y0131000D01*
X0228500Y0131000D01*
X0223500Y0131000D02*
X0221000Y0128500D01*
X0221000Y0123500D01*
X0223500Y0121000D01*
X0228500Y0121000D01*
X0223500Y0121000D02*
X0221000Y0118500D01*
X0221000Y0113500D01*
X0223435Y0107705D02*
X0223435Y0101300D01*
X0221300Y0101300D02*
X0225570Y0101300D01*
X0227745Y0101300D02*
X0232016Y0105570D01*
X0232016Y0106638D01*
X0230948Y0107705D01*
X0228813Y0107705D01*
X0227745Y0106638D01*
X0223435Y0107705D02*
X0221300Y0105570D01*
X0227745Y0101300D02*
X0232016Y0101300D01*
X0241300Y0100570D02*
X0243435Y0102705D01*
X0243435Y0096300D01*
X0241300Y0096300D02*
X0245570Y0096300D01*
X0247745Y0096300D02*
X0252016Y0100570D01*
X0252016Y0101638D01*
X0250948Y0102705D01*
X0248813Y0102705D01*
X0247745Y0101638D01*
X0247000Y0106500D02*
X0255000Y0106500D01*
X0255060Y0106502D01*
X0255121Y0106507D01*
X0255180Y0106516D01*
X0255239Y0106529D01*
X0255298Y0106545D01*
X0255355Y0106565D01*
X0255410Y0106588D01*
X0255465Y0106615D01*
X0255517Y0106644D01*
X0255568Y0106677D01*
X0255617Y0106713D01*
X0255663Y0106751D01*
X0255707Y0106793D01*
X0255749Y0106837D01*
X0255787Y0106883D01*
X0255823Y0106932D01*
X0255856Y0106983D01*
X0255885Y0107035D01*
X0255912Y0107090D01*
X0255935Y0107145D01*
X0255955Y0107202D01*
X0255971Y0107261D01*
X0255984Y0107320D01*
X0255993Y0107379D01*
X0255998Y0107440D01*
X0256000Y0107500D01*
X0256000Y0124500D01*
X0255998Y0124560D01*
X0255993Y0124621D01*
X0255984Y0124680D01*
X0255971Y0124739D01*
X0255955Y0124798D01*
X0255935Y0124855D01*
X0255912Y0124910D01*
X0255885Y0124965D01*
X0255856Y0125017D01*
X0255823Y0125068D01*
X0255787Y0125117D01*
X0255749Y0125163D01*
X0255707Y0125207D01*
X0255663Y0125249D01*
X0255617Y0125287D01*
X0255568Y0125323D01*
X0255517Y0125356D01*
X0255465Y0125385D01*
X0255410Y0125412D01*
X0255355Y0125435D01*
X0255298Y0125455D01*
X0255239Y0125471D01*
X0255180Y0125484D01*
X0255121Y0125493D01*
X0255060Y0125498D01*
X0255000Y0125500D01*
X0247000Y0125500D01*
X0246940Y0125498D01*
X0246879Y0125493D01*
X0246820Y0125484D01*
X0246761Y0125471D01*
X0246702Y0125455D01*
X0246645Y0125435D01*
X0246590Y0125412D01*
X0246535Y0125385D01*
X0246483Y0125356D01*
X0246432Y0125323D01*
X0246383Y0125287D01*
X0246337Y0125249D01*
X0246293Y0125207D01*
X0246251Y0125163D01*
X0246213Y0125117D01*
X0246177Y0125068D01*
X0246144Y0125017D01*
X0246115Y0124965D01*
X0246088Y0124910D01*
X0246065Y0124855D01*
X0246045Y0124798D01*
X0246029Y0124739D01*
X0246016Y0124680D01*
X0246007Y0124621D01*
X0246002Y0124560D01*
X0246000Y0124500D01*
X0246000Y0107500D01*
X0246002Y0107440D01*
X0246007Y0107379D01*
X0246016Y0107320D01*
X0246029Y0107261D01*
X0246045Y0107202D01*
X0246065Y0107145D01*
X0246088Y0107090D01*
X0246115Y0107035D01*
X0246144Y0106983D01*
X0246177Y0106932D01*
X0246213Y0106883D01*
X0246251Y0106837D01*
X0246293Y0106793D01*
X0246337Y0106751D01*
X0246383Y0106713D01*
X0246432Y0106677D01*
X0246483Y0106644D01*
X0246535Y0106615D01*
X0246590Y0106588D01*
X0246645Y0106565D01*
X0246702Y0106545D01*
X0246761Y0106529D01*
X0246820Y0106516D01*
X0246879Y0106507D01*
X0246940Y0106502D01*
X0247000Y0106500D01*
X0251000Y0111000D02*
X0251000Y0114500D01*
X0251000Y0115000D01*
X0251000Y0117000D02*
X0251000Y0117500D01*
X0251000Y0121000D01*
X0251430Y0126300D02*
X0252497Y0127368D01*
X0252497Y0129503D01*
X0253565Y0130570D01*
X0254632Y0130570D01*
X0255700Y0129503D01*
X0255700Y0127368D01*
X0254632Y0126300D01*
X0251430Y0126300D02*
X0250362Y0126300D01*
X0249295Y0127368D01*
X0249295Y0129503D01*
X0250362Y0130570D01*
X0247000Y0131500D02*
X0255000Y0131500D01*
X0255060Y0131502D01*
X0255121Y0131507D01*
X0255180Y0131516D01*
X0255239Y0131529D01*
X0255298Y0131545D01*
X0255355Y0131565D01*
X0255410Y0131588D01*
X0255465Y0131615D01*
X0255517Y0131644D01*
X0255568Y0131677D01*
X0255617Y0131713D01*
X0255663Y0131751D01*
X0255707Y0131793D01*
X0255749Y0131837D01*
X0255787Y0131883D01*
X0255823Y0131932D01*
X0255856Y0131983D01*
X0255885Y0132035D01*
X0255912Y0132090D01*
X0255935Y0132145D01*
X0255955Y0132202D01*
X0255971Y0132261D01*
X0255984Y0132320D01*
X0255993Y0132379D01*
X0255998Y0132440D01*
X0256000Y0132500D01*
X0256000Y0149500D01*
X0255998Y0149560D01*
X0255993Y0149621D01*
X0255984Y0149680D01*
X0255971Y0149739D01*
X0255955Y0149798D01*
X0255935Y0149855D01*
X0255912Y0149910D01*
X0255885Y0149965D01*
X0255856Y0150017D01*
X0255823Y0150068D01*
X0255787Y0150117D01*
X0255749Y0150163D01*
X0255707Y0150207D01*
X0255663Y0150249D01*
X0255617Y0150287D01*
X0255568Y0150323D01*
X0255517Y0150356D01*
X0255465Y0150385D01*
X0255410Y0150412D01*
X0255355Y0150435D01*
X0255298Y0150455D01*
X0255239Y0150471D01*
X0255180Y0150484D01*
X0255121Y0150493D01*
X0255060Y0150498D01*
X0255000Y0150500D01*
X0247000Y0150500D01*
X0246940Y0150498D01*
X0246879Y0150493D01*
X0246820Y0150484D01*
X0246761Y0150471D01*
X0246702Y0150455D01*
X0246645Y0150435D01*
X0246590Y0150412D01*
X0246535Y0150385D01*
X0246483Y0150356D01*
X0246432Y0150323D01*
X0246383Y0150287D01*
X0246337Y0150249D01*
X0246293Y0150207D01*
X0246251Y0150163D01*
X0246213Y0150117D01*
X0246177Y0150068D01*
X0246144Y0150017D01*
X0246115Y0149965D01*
X0246088Y0149910D01*
X0246065Y0149855D01*
X0246045Y0149798D01*
X0246029Y0149739D01*
X0246016Y0149680D01*
X0246007Y0149621D01*
X0246002Y0149560D01*
X0246000Y0149500D01*
X0246000Y0132500D01*
X0246002Y0132440D01*
X0246007Y0132379D01*
X0246016Y0132320D01*
X0246029Y0132261D01*
X0246045Y0132202D01*
X0246065Y0132145D01*
X0246088Y0132090D01*
X0246115Y0132035D01*
X0246144Y0131983D01*
X0246177Y0131932D01*
X0246213Y0131883D01*
X0246251Y0131837D01*
X0246293Y0131793D01*
X0246337Y0131751D01*
X0246383Y0131713D01*
X0246432Y0131677D01*
X0246483Y0131644D01*
X0246535Y0131615D01*
X0246590Y0131588D01*
X0246645Y0131565D01*
X0246702Y0131545D01*
X0246761Y0131529D01*
X0246820Y0131516D01*
X0246879Y0131507D01*
X0246940Y0131502D01*
X0247000Y0131500D01*
X0251000Y0136000D02*
X0251000Y0139500D01*
X0251000Y0140000D01*
X0251000Y0142000D02*
X0251000Y0142500D01*
X0251000Y0146000D01*
X0267000Y0149500D02*
X0267000Y0122500D01*
X0267003Y0122281D01*
X0267011Y0122062D01*
X0267024Y0121843D01*
X0267043Y0121625D01*
X0267067Y0121407D01*
X0267096Y0121190D01*
X0267130Y0120973D01*
X0267170Y0120758D01*
X0267215Y0120543D01*
X0267266Y0120330D01*
X0267321Y0120118D01*
X0267382Y0119907D01*
X0267447Y0119698D01*
X0267518Y0119491D01*
X0267594Y0119285D01*
X0267675Y0119081D01*
X0267760Y0118879D01*
X0267851Y0118680D01*
X0267946Y0118483D01*
X0268047Y0118288D01*
X0268152Y0118095D01*
X0268261Y0117905D01*
X0268375Y0117718D01*
X0268494Y0117534D01*
X0268617Y0117353D01*
X0268745Y0117175D01*
X0268877Y0116999D01*
X0269013Y0116828D01*
X0269153Y0116659D01*
X0269297Y0116494D01*
X0269445Y0116333D01*
X0269597Y0116175D01*
X0269753Y0116021D01*
X0269913Y0115871D01*
X0270076Y0115724D01*
X0270243Y0115582D01*
X0270413Y0115444D01*
X0270587Y0115310D01*
X0270763Y0115180D01*
X0270943Y0115055D01*
X0271126Y0114934D01*
X0271312Y0114818D01*
X0271500Y0114706D01*
X0271691Y0114599D01*
X0271885Y0114496D01*
X0272081Y0114398D01*
X0272279Y0114305D01*
X0272480Y0114217D01*
X0272683Y0114134D01*
X0272888Y0114055D01*
X0273094Y0113982D01*
X0273302Y0113914D01*
X0273512Y0113851D01*
X0273724Y0113793D01*
X0273936Y0113740D01*
X0274150Y0113692D01*
X0274365Y0113650D01*
X0274581Y0113613D01*
X0274798Y0113581D01*
X0275016Y0113554D01*
X0275234Y0113533D01*
X0275452Y0113517D01*
X0275671Y0113506D01*
X0275890Y0113501D01*
X0276110Y0113501D01*
X0276329Y0113506D01*
X0276548Y0113517D01*
X0276766Y0113533D01*
X0276984Y0113554D01*
X0277202Y0113581D01*
X0277419Y0113613D01*
X0277635Y0113650D01*
X0277850Y0113692D01*
X0278064Y0113740D01*
X0278276Y0113793D01*
X0278488Y0113851D01*
X0278698Y0113914D01*
X0278906Y0113982D01*
X0279112Y0114055D01*
X0279317Y0114134D01*
X0279520Y0114217D01*
X0279721Y0114305D01*
X0279919Y0114398D01*
X0280115Y0114496D01*
X0280309Y0114599D01*
X0280500Y0114706D01*
X0280688Y0114818D01*
X0280874Y0114934D01*
X0281057Y0115055D01*
X0281237Y0115180D01*
X0281413Y0115310D01*
X0281587Y0115444D01*
X0281757Y0115582D01*
X0281924Y0115724D01*
X0282087Y0115871D01*
X0282247Y0116021D01*
X0282403Y0116175D01*
X0282555Y0116333D01*
X0282703Y0116494D01*
X0282847Y0116659D01*
X0282987Y0116828D01*
X0283123Y0116999D01*
X0283255Y0117175D01*
X0283383Y0117353D01*
X0283506Y0117534D01*
X0283625Y0117718D01*
X0283739Y0117905D01*
X0283848Y0118095D01*
X0283953Y0118288D01*
X0284054Y0118483D01*
X0284149Y0118680D01*
X0284240Y0118879D01*
X0284325Y0119081D01*
X0284406Y0119285D01*
X0284482Y0119491D01*
X0284553Y0119698D01*
X0284618Y0119907D01*
X0284679Y0120118D01*
X0284734Y0120330D01*
X0284785Y0120543D01*
X0284830Y0120758D01*
X0284870Y0120973D01*
X0284904Y0121190D01*
X0284933Y0121407D01*
X0284957Y0121625D01*
X0284976Y0121843D01*
X0284989Y0122062D01*
X0284997Y0122281D01*
X0285000Y0122500D01*
X0285000Y0149500D01*
X0296000Y0151000D02*
X0296000Y0147500D01*
X0296000Y0147000D01*
X0296000Y0145000D02*
X0296000Y0144500D01*
X0296000Y0141000D01*
X0292000Y0136500D02*
X0291940Y0136502D01*
X0291879Y0136507D01*
X0291820Y0136516D01*
X0291761Y0136529D01*
X0291702Y0136545D01*
X0291645Y0136565D01*
X0291590Y0136588D01*
X0291535Y0136615D01*
X0291483Y0136644D01*
X0291432Y0136677D01*
X0291383Y0136713D01*
X0291337Y0136751D01*
X0291293Y0136793D01*
X0291251Y0136837D01*
X0291213Y0136883D01*
X0291177Y0136932D01*
X0291144Y0136983D01*
X0291115Y0137035D01*
X0291088Y0137090D01*
X0291065Y0137145D01*
X0291045Y0137202D01*
X0291029Y0137261D01*
X0291016Y0137320D01*
X0291007Y0137379D01*
X0291002Y0137440D01*
X0291000Y0137500D01*
X0291000Y0154500D01*
X0291002Y0154560D01*
X0291007Y0154621D01*
X0291016Y0154680D01*
X0291029Y0154739D01*
X0291045Y0154798D01*
X0291065Y0154855D01*
X0291088Y0154910D01*
X0291115Y0154965D01*
X0291144Y0155017D01*
X0291177Y0155068D01*
X0291213Y0155117D01*
X0291251Y0155163D01*
X0291293Y0155207D01*
X0291337Y0155249D01*
X0291383Y0155287D01*
X0291432Y0155323D01*
X0291483Y0155356D01*
X0291535Y0155385D01*
X0291590Y0155412D01*
X0291645Y0155435D01*
X0291702Y0155455D01*
X0291761Y0155471D01*
X0291820Y0155484D01*
X0291879Y0155493D01*
X0291940Y0155498D01*
X0292000Y0155500D01*
X0300000Y0155500D01*
X0300060Y0155498D01*
X0300121Y0155493D01*
X0300180Y0155484D01*
X0300239Y0155471D01*
X0300298Y0155455D01*
X0300355Y0155435D01*
X0300410Y0155412D01*
X0300465Y0155385D01*
X0300517Y0155356D01*
X0300568Y0155323D01*
X0300617Y0155287D01*
X0300663Y0155249D01*
X0300707Y0155207D01*
X0300749Y0155163D01*
X0300787Y0155117D01*
X0300823Y0155068D01*
X0300856Y0155017D01*
X0300885Y0154965D01*
X0300912Y0154910D01*
X0300935Y0154855D01*
X0300955Y0154798D01*
X0300971Y0154739D01*
X0300984Y0154680D01*
X0300993Y0154621D01*
X0300998Y0154560D01*
X0301000Y0154500D01*
X0301000Y0137500D01*
X0300998Y0137440D01*
X0300993Y0137379D01*
X0300984Y0137320D01*
X0300971Y0137261D01*
X0300955Y0137202D01*
X0300935Y0137145D01*
X0300912Y0137090D01*
X0300885Y0137035D01*
X0300856Y0136983D01*
X0300823Y0136932D01*
X0300787Y0136883D01*
X0300749Y0136837D01*
X0300707Y0136793D01*
X0300663Y0136751D01*
X0300617Y0136713D01*
X0300568Y0136677D01*
X0300517Y0136644D01*
X0300465Y0136615D01*
X0300410Y0136588D01*
X0300355Y0136565D01*
X0300298Y0136545D01*
X0300239Y0136529D01*
X0300180Y0136516D01*
X0300121Y0136507D01*
X0300060Y0136502D01*
X0300000Y0136500D01*
X0292000Y0136500D01*
X0292000Y0135500D02*
X0300000Y0135500D01*
X0300060Y0135498D01*
X0300121Y0135493D01*
X0300180Y0135484D01*
X0300239Y0135471D01*
X0300298Y0135455D01*
X0300355Y0135435D01*
X0300410Y0135412D01*
X0300465Y0135385D01*
X0300517Y0135356D01*
X0300568Y0135323D01*
X0300617Y0135287D01*
X0300663Y0135249D01*
X0300707Y0135207D01*
X0300749Y0135163D01*
X0300787Y0135117D01*
X0300823Y0135068D01*
X0300856Y0135017D01*
X0300885Y0134965D01*
X0300912Y0134910D01*
X0300935Y0134855D01*
X0300955Y0134798D01*
X0300971Y0134739D01*
X0300984Y0134680D01*
X0300993Y0134621D01*
X0300998Y0134560D01*
X0301000Y0134500D01*
X0301000Y0117500D01*
X0300998Y0117440D01*
X0300993Y0117379D01*
X0300984Y0117320D01*
X0300971Y0117261D01*
X0300955Y0117202D01*
X0300935Y0117145D01*
X0300912Y0117090D01*
X0300885Y0117035D01*
X0300856Y0116983D01*
X0300823Y0116932D01*
X0300787Y0116883D01*
X0300749Y0116837D01*
X0300707Y0116793D01*
X0300663Y0116751D01*
X0300617Y0116713D01*
X0300568Y0116677D01*
X0300517Y0116644D01*
X0300465Y0116615D01*
X0300410Y0116588D01*
X0300355Y0116565D01*
X0300298Y0116545D01*
X0300239Y0116529D01*
X0300180Y0116516D01*
X0300121Y0116507D01*
X0300060Y0116502D01*
X0300000Y0116500D01*
X0292000Y0116500D01*
X0291940Y0116502D01*
X0291879Y0116507D01*
X0291820Y0116516D01*
X0291761Y0116529D01*
X0291702Y0116545D01*
X0291645Y0116565D01*
X0291590Y0116588D01*
X0291535Y0116615D01*
X0291483Y0116644D01*
X0291432Y0116677D01*
X0291383Y0116713D01*
X0291337Y0116751D01*
X0291293Y0116793D01*
X0291251Y0116837D01*
X0291213Y0116883D01*
X0291177Y0116932D01*
X0291144Y0116983D01*
X0291115Y0117035D01*
X0291088Y0117090D01*
X0291065Y0117145D01*
X0291045Y0117202D01*
X0291029Y0117261D01*
X0291016Y0117320D01*
X0291007Y0117379D01*
X0291002Y0117440D01*
X0291000Y0117500D01*
X0291000Y0134500D01*
X0291002Y0134560D01*
X0291007Y0134621D01*
X0291016Y0134680D01*
X0291029Y0134739D01*
X0291045Y0134798D01*
X0291065Y0134855D01*
X0291088Y0134910D01*
X0291115Y0134965D01*
X0291144Y0135017D01*
X0291177Y0135068D01*
X0291213Y0135117D01*
X0291251Y0135163D01*
X0291293Y0135207D01*
X0291337Y0135249D01*
X0291383Y0135287D01*
X0291432Y0135323D01*
X0291483Y0135356D01*
X0291535Y0135385D01*
X0291590Y0135412D01*
X0291645Y0135435D01*
X0291702Y0135455D01*
X0291761Y0135471D01*
X0291820Y0135484D01*
X0291879Y0135493D01*
X0291940Y0135498D01*
X0292000Y0135500D01*
X0296000Y0131000D02*
X0296000Y0127500D01*
X0296000Y0127000D01*
X0296000Y0125000D02*
X0296000Y0124500D01*
X0296000Y0121000D01*
X0275570Y0101638D02*
X0274503Y0102705D01*
X0272368Y0102705D01*
X0271300Y0101638D01*
X0271300Y0097368D01*
X0272368Y0096300D01*
X0274503Y0096300D01*
X0275570Y0097368D01*
X0275570Y0099503D01*
X0273435Y0099503D01*
X0265570Y0100570D02*
X0264503Y0099503D01*
X0265570Y0098435D01*
X0265570Y0097368D01*
X0264503Y0096300D01*
X0262368Y0096300D01*
X0261300Y0097368D01*
X0263435Y0099503D02*
X0264503Y0099503D01*
X0265570Y0100570D02*
X0265570Y0101638D01*
X0264503Y0102705D01*
X0262368Y0102705D01*
X0261300Y0101638D01*
X0252016Y0096300D02*
X0247745Y0096300D01*
X0248500Y0091000D02*
X0246000Y0088500D01*
X0246000Y0083500D01*
X0248500Y0081000D01*
X0253500Y0081000D01*
X0256000Y0083500D01*
X0258500Y0081000D01*
X0263500Y0081000D01*
X0266000Y0083500D01*
X0268500Y0081000D01*
X0273500Y0081000D01*
X0276000Y0083500D01*
X0276000Y0088500D01*
X0273500Y0091000D01*
X0268500Y0091000D01*
X0266000Y0088500D01*
X0266000Y0083500D01*
X0266000Y0088500D02*
X0263500Y0091000D01*
X0258500Y0091000D01*
X0256000Y0088500D01*
X0256000Y0083500D01*
X0256000Y0088500D02*
X0253500Y0091000D01*
X0248500Y0091000D01*
X0276300Y0071638D02*
X0276300Y0070570D01*
X0277368Y0069503D01*
X0279503Y0069503D01*
X0280570Y0068435D01*
X0280570Y0067368D01*
X0279503Y0066300D01*
X0277368Y0066300D01*
X0276300Y0067368D01*
X0276300Y0071638D02*
X0277368Y0072705D01*
X0279503Y0072705D01*
X0280570Y0071638D01*
X0282745Y0072705D02*
X0285948Y0072705D01*
X0287016Y0071638D01*
X0287016Y0069503D01*
X0285948Y0068435D01*
X0282745Y0068435D01*
X0282745Y0066300D02*
X0282745Y0072705D01*
X0284881Y0068435D02*
X0287016Y0066300D01*
X0289191Y0066300D02*
X0293461Y0066300D01*
X0289191Y0066300D02*
X0289191Y0072705D01*
X0302082Y0069503D02*
X0306352Y0069503D01*
X0314973Y0066300D02*
X0314973Y0072705D01*
X0319243Y0066300D01*
X0319243Y0072705D01*
X0321418Y0070570D02*
X0323554Y0072705D01*
X0325689Y0070570D01*
X0325689Y0066300D01*
X0327864Y0067368D02*
X0328932Y0066300D01*
X0331067Y0066300D01*
X0332134Y0067368D01*
X0332134Y0068435D01*
X0331067Y0069503D01*
X0328932Y0069503D01*
X0327864Y0070570D01*
X0327864Y0071638D01*
X0328932Y0072705D01*
X0331067Y0072705D01*
X0332134Y0071638D01*
X0334309Y0070570D02*
X0336445Y0072705D01*
X0338580Y0070570D01*
X0338580Y0066300D01*
X0338580Y0069503D02*
X0334309Y0069503D01*
X0334309Y0070570D02*
X0334309Y0066300D01*
X0325689Y0069503D02*
X0321418Y0069503D01*
X0321418Y0070570D02*
X0321418Y0066300D01*
X0315000Y0088000D02*
X0337000Y0088000D01*
X0337000Y0234000D01*
X0328500Y0234000D01*
X0328498Y0233902D01*
X0328492Y0233804D01*
X0328483Y0233706D01*
X0328469Y0233609D01*
X0328452Y0233512D01*
X0328431Y0233416D01*
X0328406Y0233321D01*
X0328378Y0233227D01*
X0328345Y0233135D01*
X0328310Y0233043D01*
X0328270Y0232953D01*
X0328228Y0232865D01*
X0328181Y0232778D01*
X0328132Y0232694D01*
X0328079Y0232611D01*
X0328023Y0232531D01*
X0327963Y0232452D01*
X0327901Y0232376D01*
X0327836Y0232303D01*
X0327768Y0232232D01*
X0327697Y0232164D01*
X0327624Y0232099D01*
X0327548Y0232037D01*
X0327469Y0231977D01*
X0327389Y0231921D01*
X0327306Y0231868D01*
X0327222Y0231819D01*
X0327135Y0231772D01*
X0327047Y0231730D01*
X0326957Y0231690D01*
X0326865Y0231655D01*
X0326773Y0231622D01*
X0326679Y0231594D01*
X0326584Y0231569D01*
X0326488Y0231548D01*
X0326391Y0231531D01*
X0326294Y0231517D01*
X0326196Y0231508D01*
X0326098Y0231502D01*
X0326000Y0231500D01*
X0325902Y0231502D01*
X0325804Y0231508D01*
X0325706Y0231517D01*
X0325609Y0231531D01*
X0325512Y0231548D01*
X0325416Y0231569D01*
X0325321Y0231594D01*
X0325227Y0231622D01*
X0325135Y0231655D01*
X0325043Y0231690D01*
X0324953Y0231730D01*
X0324865Y0231772D01*
X0324778Y0231819D01*
X0324694Y0231868D01*
X0324611Y0231921D01*
X0324531Y0231977D01*
X0324452Y0232037D01*
X0324376Y0232099D01*
X0324303Y0232164D01*
X0324232Y0232232D01*
X0324164Y0232303D01*
X0324099Y0232376D01*
X0324037Y0232452D01*
X0323977Y0232531D01*
X0323921Y0232611D01*
X0323868Y0232694D01*
X0323819Y0232778D01*
X0323772Y0232865D01*
X0323730Y0232953D01*
X0323690Y0233043D01*
X0323655Y0233135D01*
X0323622Y0233227D01*
X0323594Y0233321D01*
X0323569Y0233416D01*
X0323548Y0233512D01*
X0323531Y0233609D01*
X0323517Y0233706D01*
X0323508Y0233804D01*
X0323502Y0233902D01*
X0323500Y0234000D01*
X0315000Y0234000D01*
X0315000Y0088000D01*
X0356300Y0087368D02*
X0357368Y0086300D01*
X0359503Y0086300D01*
X0360570Y0087368D01*
X0360570Y0088435D01*
X0359503Y0089503D01*
X0358435Y0089503D01*
X0359503Y0089503D02*
X0360570Y0090570D01*
X0360570Y0091638D01*
X0359503Y0092705D01*
X0357368Y0092705D01*
X0356300Y0091638D01*
X0358500Y0096000D02*
X0356000Y0098500D01*
X0356000Y0103500D01*
X0358500Y0106000D01*
X0373500Y0106000D01*
X0376000Y0108500D01*
X0376000Y0113500D01*
X0373500Y0116000D01*
X0358500Y0116000D01*
X0356000Y0118500D01*
X0356000Y0123500D01*
X0358500Y0126000D01*
X0356000Y0128500D01*
X0356000Y0133500D01*
X0358500Y0136000D01*
X0373500Y0136000D01*
X0376000Y0133500D01*
X0376000Y0128500D01*
X0373500Y0126000D01*
X0358500Y0126000D01*
X0358500Y0116000D02*
X0356000Y0113500D01*
X0356000Y0108500D01*
X0358500Y0106000D01*
X0358500Y0096000D02*
X0373500Y0096000D01*
X0376000Y0098500D01*
X0376000Y0103500D01*
X0373500Y0106000D01*
X0373500Y0116000D02*
X0376000Y0118500D01*
X0376000Y0123500D01*
X0373500Y0126000D01*
X0374503Y0092705D02*
X0372368Y0092705D01*
X0371300Y0091638D01*
X0371300Y0087368D01*
X0372368Y0086300D01*
X0374503Y0086300D01*
X0375570Y0087368D01*
X0375570Y0089503D01*
X0373435Y0089503D01*
X0375570Y0091638D02*
X0374503Y0092705D01*
X0285000Y0149500D02*
X0284997Y0149719D01*
X0284989Y0149938D01*
X0284976Y0150157D01*
X0284957Y0150375D01*
X0284933Y0150593D01*
X0284904Y0150810D01*
X0284870Y0151027D01*
X0284830Y0151242D01*
X0284785Y0151457D01*
X0284734Y0151670D01*
X0284679Y0151882D01*
X0284618Y0152093D01*
X0284553Y0152302D01*
X0284482Y0152509D01*
X0284406Y0152715D01*
X0284325Y0152919D01*
X0284240Y0153121D01*
X0284149Y0153320D01*
X0284054Y0153517D01*
X0283953Y0153712D01*
X0283848Y0153905D01*
X0283739Y0154095D01*
X0283625Y0154282D01*
X0283506Y0154466D01*
X0283383Y0154647D01*
X0283255Y0154825D01*
X0283123Y0155001D01*
X0282987Y0155172D01*
X0282847Y0155341D01*
X0282703Y0155506D01*
X0282555Y0155667D01*
X0282403Y0155825D01*
X0282247Y0155979D01*
X0282087Y0156129D01*
X0281924Y0156276D01*
X0281757Y0156418D01*
X0281587Y0156556D01*
X0281413Y0156690D01*
X0281237Y0156820D01*
X0281057Y0156945D01*
X0280874Y0157066D01*
X0280688Y0157182D01*
X0280500Y0157294D01*
X0280309Y0157401D01*
X0280115Y0157504D01*
X0279919Y0157602D01*
X0279721Y0157695D01*
X0279520Y0157783D01*
X0279317Y0157866D01*
X0279112Y0157945D01*
X0278906Y0158018D01*
X0278698Y0158086D01*
X0278488Y0158149D01*
X0278276Y0158207D01*
X0278064Y0158260D01*
X0277850Y0158308D01*
X0277635Y0158350D01*
X0277419Y0158387D01*
X0277202Y0158419D01*
X0276984Y0158446D01*
X0276766Y0158467D01*
X0276548Y0158483D01*
X0276329Y0158494D01*
X0276110Y0158499D01*
X0275890Y0158499D01*
X0275671Y0158494D01*
X0275452Y0158483D01*
X0275234Y0158467D01*
X0275016Y0158446D01*
X0274798Y0158419D01*
X0274581Y0158387D01*
X0274365Y0158350D01*
X0274150Y0158308D01*
X0273936Y0158260D01*
X0273724Y0158207D01*
X0273512Y0158149D01*
X0273302Y0158086D01*
X0273094Y0158018D01*
X0272888Y0157945D01*
X0272683Y0157866D01*
X0272480Y0157783D01*
X0272279Y0157695D01*
X0272081Y0157602D01*
X0271885Y0157504D01*
X0271691Y0157401D01*
X0271500Y0157294D01*
X0271312Y0157182D01*
X0271126Y0157066D01*
X0270943Y0156945D01*
X0270763Y0156820D01*
X0270587Y0156690D01*
X0270413Y0156556D01*
X0270243Y0156418D01*
X0270076Y0156276D01*
X0269913Y0156129D01*
X0269753Y0155979D01*
X0269597Y0155825D01*
X0269445Y0155667D01*
X0269297Y0155506D01*
X0269153Y0155341D01*
X0269013Y0155172D01*
X0268877Y0155001D01*
X0268745Y0154825D01*
X0268617Y0154647D01*
X0268494Y0154466D01*
X0268375Y0154282D01*
X0268261Y0154095D01*
X0268152Y0153905D01*
X0268047Y0153712D01*
X0267946Y0153517D01*
X0267851Y0153320D01*
X0267760Y0153121D01*
X0267675Y0152919D01*
X0267594Y0152715D01*
X0267518Y0152509D01*
X0267447Y0152302D01*
X0267382Y0152093D01*
X0267321Y0151882D01*
X0267266Y0151670D01*
X0267215Y0151457D01*
X0267170Y0151242D01*
X0267130Y0151027D01*
X0267096Y0150810D01*
X0267067Y0150593D01*
X0267043Y0150375D01*
X0267024Y0150157D01*
X0267011Y0149938D01*
X0267003Y0149719D01*
X0267000Y0149500D01*
X0272000Y0162000D02*
X0273500Y0162000D01*
X0274000Y0162500D01*
X0288000Y0162500D01*
X0288500Y0162000D01*
X0290000Y0162000D01*
X0290060Y0162002D01*
X0290121Y0162007D01*
X0290180Y0162016D01*
X0290239Y0162029D01*
X0290298Y0162045D01*
X0290355Y0162065D01*
X0290410Y0162088D01*
X0290465Y0162115D01*
X0290517Y0162144D01*
X0290568Y0162177D01*
X0290617Y0162213D01*
X0290663Y0162251D01*
X0290707Y0162293D01*
X0290749Y0162337D01*
X0290787Y0162383D01*
X0290823Y0162432D01*
X0290856Y0162483D01*
X0290885Y0162535D01*
X0290912Y0162590D01*
X0290935Y0162645D01*
X0290955Y0162702D01*
X0290971Y0162761D01*
X0290984Y0162820D01*
X0290993Y0162879D01*
X0290998Y0162940D01*
X0291000Y0163000D01*
X0291000Y0169000D01*
X0290998Y0169060D01*
X0290993Y0169121D01*
X0290984Y0169180D01*
X0290971Y0169239D01*
X0290955Y0169298D01*
X0290935Y0169355D01*
X0290912Y0169410D01*
X0290885Y0169465D01*
X0290856Y0169517D01*
X0290823Y0169568D01*
X0290787Y0169617D01*
X0290749Y0169663D01*
X0290707Y0169707D01*
X0290663Y0169749D01*
X0290617Y0169787D01*
X0290568Y0169823D01*
X0290517Y0169856D01*
X0290465Y0169885D01*
X0290410Y0169912D01*
X0290355Y0169935D01*
X0290298Y0169955D01*
X0290239Y0169971D01*
X0290180Y0169984D01*
X0290121Y0169993D01*
X0290060Y0169998D01*
X0290000Y0170000D01*
X0288500Y0170000D01*
X0288000Y0169500D01*
X0274000Y0169500D01*
X0273500Y0170000D01*
X0272000Y0170000D01*
X0271940Y0169998D01*
X0271879Y0169993D01*
X0271820Y0169984D01*
X0271761Y0169971D01*
X0271702Y0169955D01*
X0271645Y0169935D01*
X0271590Y0169912D01*
X0271535Y0169885D01*
X0271483Y0169856D01*
X0271432Y0169823D01*
X0271383Y0169787D01*
X0271337Y0169749D01*
X0271293Y0169707D01*
X0271251Y0169663D01*
X0271213Y0169617D01*
X0271177Y0169568D01*
X0271144Y0169517D01*
X0271115Y0169465D01*
X0271088Y0169410D01*
X0271065Y0169355D01*
X0271045Y0169298D01*
X0271029Y0169239D01*
X0271016Y0169180D01*
X0271007Y0169121D01*
X0271002Y0169060D01*
X0271000Y0169000D01*
X0271000Y0163000D01*
X0271002Y0162940D01*
X0271007Y0162879D01*
X0271016Y0162820D01*
X0271029Y0162761D01*
X0271045Y0162702D01*
X0271065Y0162645D01*
X0271088Y0162590D01*
X0271115Y0162535D01*
X0271144Y0162483D01*
X0271177Y0162432D01*
X0271213Y0162383D01*
X0271251Y0162337D01*
X0271293Y0162293D01*
X0271337Y0162251D01*
X0271383Y0162213D01*
X0271432Y0162177D01*
X0271483Y0162144D01*
X0271535Y0162115D01*
X0271590Y0162088D01*
X0271645Y0162065D01*
X0271702Y0162045D01*
X0271761Y0162029D01*
X0271820Y0162016D01*
X0271879Y0162007D01*
X0271940Y0162002D01*
X0272000Y0162000D01*
X0251000Y0163000D02*
X0251000Y0169000D01*
X0250998Y0169060D01*
X0250993Y0169121D01*
X0250984Y0169180D01*
X0250971Y0169239D01*
X0250955Y0169298D01*
X0250935Y0169355D01*
X0250912Y0169410D01*
X0250885Y0169465D01*
X0250856Y0169517D01*
X0250823Y0169568D01*
X0250787Y0169617D01*
X0250749Y0169663D01*
X0250707Y0169707D01*
X0250663Y0169749D01*
X0250617Y0169787D01*
X0250568Y0169823D01*
X0250517Y0169856D01*
X0250465Y0169885D01*
X0250410Y0169912D01*
X0250355Y0169935D01*
X0250298Y0169955D01*
X0250239Y0169971D01*
X0250180Y0169984D01*
X0250121Y0169993D01*
X0250060Y0169998D01*
X0250000Y0170000D01*
X0248500Y0170000D01*
X0248000Y0169500D01*
X0234000Y0169500D01*
X0233500Y0170000D01*
X0232000Y0170000D01*
X0231940Y0169998D01*
X0231879Y0169993D01*
X0231820Y0169984D01*
X0231761Y0169971D01*
X0231702Y0169955D01*
X0231645Y0169935D01*
X0231590Y0169912D01*
X0231535Y0169885D01*
X0231483Y0169856D01*
X0231432Y0169823D01*
X0231383Y0169787D01*
X0231337Y0169749D01*
X0231293Y0169707D01*
X0231251Y0169663D01*
X0231213Y0169617D01*
X0231177Y0169568D01*
X0231144Y0169517D01*
X0231115Y0169465D01*
X0231088Y0169410D01*
X0231065Y0169355D01*
X0231045Y0169298D01*
X0231029Y0169239D01*
X0231016Y0169180D01*
X0231007Y0169121D01*
X0231002Y0169060D01*
X0231000Y0169000D01*
X0231000Y0163000D01*
X0231002Y0162940D01*
X0231007Y0162879D01*
X0231016Y0162820D01*
X0231029Y0162761D01*
X0231045Y0162702D01*
X0231065Y0162645D01*
X0231088Y0162590D01*
X0231115Y0162535D01*
X0231144Y0162483D01*
X0231177Y0162432D01*
X0231213Y0162383D01*
X0231251Y0162337D01*
X0231293Y0162293D01*
X0231337Y0162251D01*
X0231383Y0162213D01*
X0231432Y0162177D01*
X0231483Y0162144D01*
X0231535Y0162115D01*
X0231590Y0162088D01*
X0231645Y0162065D01*
X0231702Y0162045D01*
X0231761Y0162029D01*
X0231820Y0162016D01*
X0231879Y0162007D01*
X0231940Y0162002D01*
X0232000Y0162000D01*
X0233500Y0162000D01*
X0234000Y0162500D01*
X0248000Y0162500D01*
X0248500Y0162000D01*
X0250000Y0162000D01*
X0250060Y0162002D01*
X0250121Y0162007D01*
X0250180Y0162016D01*
X0250239Y0162029D01*
X0250298Y0162045D01*
X0250355Y0162065D01*
X0250410Y0162088D01*
X0250465Y0162115D01*
X0250517Y0162144D01*
X0250568Y0162177D01*
X0250617Y0162213D01*
X0250663Y0162251D01*
X0250707Y0162293D01*
X0250749Y0162337D01*
X0250787Y0162383D01*
X0250823Y0162432D01*
X0250856Y0162483D01*
X0250885Y0162535D01*
X0250912Y0162590D01*
X0250935Y0162645D01*
X0250955Y0162702D01*
X0250971Y0162761D01*
X0250984Y0162820D01*
X0250993Y0162879D01*
X0250998Y0162940D01*
X0251000Y0163000D01*
X0225570Y0147705D02*
X0221300Y0147705D01*
X0221300Y0144503D01*
X0223435Y0145570D01*
X0224503Y0145570D01*
X0225570Y0144503D01*
X0225570Y0142368D01*
X0224503Y0141300D01*
X0222368Y0141300D01*
X0221300Y0142368D01*
X0287000Y0187000D02*
X0287000Y0188500D01*
X0287500Y0189000D01*
X0287500Y0203000D01*
X0287000Y0203500D01*
X0287000Y0205000D01*
X0287002Y0205060D01*
X0287007Y0205121D01*
X0287016Y0205180D01*
X0287029Y0205239D01*
X0287045Y0205298D01*
X0287065Y0205355D01*
X0287088Y0205410D01*
X0287115Y0205465D01*
X0287144Y0205517D01*
X0287177Y0205568D01*
X0287213Y0205617D01*
X0287251Y0205663D01*
X0287293Y0205707D01*
X0287337Y0205749D01*
X0287383Y0205787D01*
X0287432Y0205823D01*
X0287483Y0205856D01*
X0287535Y0205885D01*
X0287590Y0205912D01*
X0287645Y0205935D01*
X0287702Y0205955D01*
X0287761Y0205971D01*
X0287820Y0205984D01*
X0287879Y0205993D01*
X0287940Y0205998D01*
X0288000Y0206000D01*
X0294000Y0206000D01*
X0294060Y0205998D01*
X0294121Y0205993D01*
X0294180Y0205984D01*
X0294239Y0205971D01*
X0294298Y0205955D01*
X0294355Y0205935D01*
X0294410Y0205912D01*
X0294465Y0205885D01*
X0294517Y0205856D01*
X0294568Y0205823D01*
X0294617Y0205787D01*
X0294663Y0205749D01*
X0294707Y0205707D01*
X0294749Y0205663D01*
X0294787Y0205617D01*
X0294823Y0205568D01*
X0294856Y0205517D01*
X0294885Y0205465D01*
X0294912Y0205410D01*
X0294935Y0205355D01*
X0294955Y0205298D01*
X0294971Y0205239D01*
X0294984Y0205180D01*
X0294993Y0205121D01*
X0294998Y0205060D01*
X0295000Y0205000D01*
X0295000Y0203500D01*
X0294500Y0203000D01*
X0294500Y0189000D01*
X0295000Y0188500D01*
X0295000Y0187000D01*
X0294998Y0186940D01*
X0294993Y0186879D01*
X0294984Y0186820D01*
X0294971Y0186761D01*
X0294955Y0186702D01*
X0294935Y0186645D01*
X0294912Y0186590D01*
X0294885Y0186535D01*
X0294856Y0186483D01*
X0294823Y0186432D01*
X0294787Y0186383D01*
X0294749Y0186337D01*
X0294707Y0186293D01*
X0294663Y0186251D01*
X0294617Y0186213D01*
X0294568Y0186177D01*
X0294517Y0186144D01*
X0294465Y0186115D01*
X0294410Y0186088D01*
X0294355Y0186065D01*
X0294298Y0186045D01*
X0294239Y0186029D01*
X0294180Y0186016D01*
X0294121Y0186007D01*
X0294060Y0186002D01*
X0294000Y0186000D01*
X0288000Y0186000D01*
X0287940Y0186002D01*
X0287879Y0186007D01*
X0287820Y0186016D01*
X0287761Y0186029D01*
X0287702Y0186045D01*
X0287645Y0186065D01*
X0287590Y0186088D01*
X0287535Y0186115D01*
X0287483Y0186144D01*
X0287432Y0186177D01*
X0287383Y0186213D01*
X0287337Y0186251D01*
X0287293Y0186293D01*
X0287251Y0186337D01*
X0287213Y0186383D01*
X0287177Y0186432D01*
X0287144Y0186483D01*
X0287115Y0186535D01*
X0287088Y0186590D01*
X0287065Y0186645D01*
X0287045Y0186702D01*
X0287029Y0186761D01*
X0287016Y0186820D01*
X0287007Y0186879D01*
X0287002Y0186940D01*
X0287000Y0187000D01*
X0285700Y0191300D02*
X0285700Y0195570D01*
X0285700Y0193435D02*
X0279295Y0193435D01*
X0281430Y0191300D01*
X0280362Y0197745D02*
X0279295Y0198813D01*
X0279295Y0200948D01*
X0280362Y0202016D01*
X0284632Y0197745D01*
X0285700Y0198813D01*
X0285700Y0200948D01*
X0284632Y0202016D01*
X0280362Y0202016D01*
X0279295Y0204191D02*
X0285700Y0204191D01*
X0283565Y0204191D02*
X0281430Y0207394D01*
X0283565Y0204191D02*
X0285700Y0207394D01*
X0284632Y0197745D02*
X0280362Y0197745D01*
X0267016Y0216300D02*
X0262745Y0216300D01*
X0264881Y0216300D02*
X0264881Y0222705D01*
X0262745Y0220570D01*
X0260570Y0216300D02*
X0256300Y0216300D01*
X0256300Y0222705D01*
X0256000Y0226000D02*
X0256000Y0227500D01*
X0256000Y0231000D01*
X0256000Y0234500D01*
X0256000Y0236000D01*
X0261000Y0236000D01*
X0266000Y0236000D01*
X0266000Y0234500D01*
X0266000Y0231000D01*
X0266000Y0227500D01*
X0266000Y0226000D01*
X0261000Y0226000D01*
X0256000Y0226000D01*
X0257159Y0227799D02*
X0257071Y0227907D01*
X0256987Y0228018D01*
X0256906Y0228130D01*
X0256827Y0228245D01*
X0256752Y0228362D01*
X0256681Y0228481D01*
X0256612Y0228602D01*
X0256548Y0228725D01*
X0256486Y0228850D01*
X0256428Y0228976D01*
X0256374Y0229104D01*
X0256323Y0229233D01*
X0256275Y0229364D01*
X0256232Y0229496D01*
X0256192Y0229629D01*
X0256156Y0229763D01*
X0256123Y0229898D01*
X0256094Y0230034D01*
X0256069Y0230170D01*
X0256048Y0230308D01*
X0256031Y0230446D01*
X0256017Y0230584D01*
X0256008Y0230723D01*
X0256002Y0230861D01*
X0256000Y0231000D01*
X0257096Y0234124D02*
X0257185Y0234232D01*
X0257277Y0234337D01*
X0257372Y0234440D01*
X0257469Y0234540D01*
X0257570Y0234638D01*
X0257673Y0234732D01*
X0257779Y0234824D01*
X0257887Y0234913D01*
X0257998Y0234998D01*
X0258111Y0235081D01*
X0258226Y0235160D01*
X0258344Y0235236D01*
X0258464Y0235309D01*
X0258585Y0235378D01*
X0258709Y0235444D01*
X0258834Y0235507D01*
X0258961Y0235565D01*
X0259090Y0235621D01*
X0259220Y0235672D01*
X0259351Y0235720D01*
X0259484Y0235765D01*
X0259618Y0235805D01*
X0259753Y0235842D01*
X0259889Y0235875D01*
X0260026Y0235904D01*
X0260164Y0235930D01*
X0260302Y0235951D01*
X0260441Y0235969D01*
X0260581Y0235982D01*
X0260720Y0235992D01*
X0260860Y0235998D01*
X0261000Y0236000D01*
X0264796Y0234254D02*
X0264884Y0234149D01*
X0264968Y0234042D01*
X0265050Y0233933D01*
X0265128Y0233821D01*
X0265203Y0233708D01*
X0265276Y0233592D01*
X0265345Y0233475D01*
X0265410Y0233356D01*
X0265473Y0233234D01*
X0265532Y0233112D01*
X0265588Y0232987D01*
X0265640Y0232862D01*
X0265690Y0232735D01*
X0265735Y0232606D01*
X0265777Y0232476D01*
X0265815Y0232346D01*
X0265850Y0232214D01*
X0265882Y0232081D01*
X0265909Y0231948D01*
X0265933Y0231814D01*
X0265954Y0231679D01*
X0265970Y0231544D01*
X0265983Y0231408D01*
X0265993Y0231272D01*
X0265998Y0231136D01*
X0266000Y0231000D01*
X0264904Y0234124D02*
X0264815Y0234232D01*
X0264723Y0234337D01*
X0264628Y0234440D01*
X0264531Y0234540D01*
X0264430Y0234638D01*
X0264327Y0234732D01*
X0264221Y0234824D01*
X0264113Y0234913D01*
X0264002Y0234998D01*
X0263889Y0235081D01*
X0263774Y0235160D01*
X0263656Y0235236D01*
X0263536Y0235309D01*
X0263415Y0235378D01*
X0263291Y0235444D01*
X0263166Y0235507D01*
X0263039Y0235565D01*
X0262910Y0235621D01*
X0262780Y0235672D01*
X0262649Y0235720D01*
X0262516Y0235765D01*
X0262382Y0235805D01*
X0262247Y0235842D01*
X0262111Y0235875D01*
X0261974Y0235904D01*
X0261836Y0235930D01*
X0261698Y0235951D01*
X0261559Y0235969D01*
X0261419Y0235982D01*
X0261280Y0235992D01*
X0261140Y0235998D01*
X0261000Y0236000D01*
X0257237Y0234292D02*
X0257147Y0234187D01*
X0257061Y0234079D01*
X0256977Y0233969D01*
X0256897Y0233857D01*
X0256819Y0233742D01*
X0256745Y0233626D01*
X0256674Y0233507D01*
X0256606Y0233387D01*
X0256542Y0233264D01*
X0256481Y0233140D01*
X0256424Y0233014D01*
X0256370Y0232887D01*
X0256319Y0232758D01*
X0256273Y0232628D01*
X0256229Y0232497D01*
X0256190Y0232365D01*
X0256154Y0232231D01*
X0256122Y0232097D01*
X0256093Y0231961D01*
X0256069Y0231825D01*
X0256048Y0231689D01*
X0256031Y0231552D01*
X0256017Y0231414D01*
X0256008Y0231276D01*
X0256002Y0231138D01*
X0256000Y0231000D01*
X0257096Y0227876D02*
X0257185Y0227768D01*
X0257277Y0227663D01*
X0257372Y0227560D01*
X0257469Y0227460D01*
X0257570Y0227362D01*
X0257673Y0227268D01*
X0257779Y0227176D01*
X0257887Y0227087D01*
X0257998Y0227002D01*
X0258111Y0226919D01*
X0258226Y0226840D01*
X0258344Y0226764D01*
X0258464Y0226691D01*
X0258585Y0226622D01*
X0258709Y0226556D01*
X0258834Y0226493D01*
X0258961Y0226435D01*
X0259090Y0226379D01*
X0259220Y0226328D01*
X0259351Y0226280D01*
X0259484Y0226235D01*
X0259618Y0226195D01*
X0259753Y0226158D01*
X0259889Y0226125D01*
X0260026Y0226096D01*
X0260164Y0226070D01*
X0260302Y0226049D01*
X0260441Y0226031D01*
X0260581Y0226018D01*
X0260720Y0226008D01*
X0260860Y0226002D01*
X0261000Y0226000D01*
X0264796Y0227746D02*
X0264884Y0227851D01*
X0264968Y0227958D01*
X0265050Y0228067D01*
X0265128Y0228179D01*
X0265203Y0228292D01*
X0265276Y0228408D01*
X0265345Y0228525D01*
X0265410Y0228644D01*
X0265473Y0228766D01*
X0265532Y0228888D01*
X0265588Y0229013D01*
X0265640Y0229138D01*
X0265690Y0229265D01*
X0265735Y0229394D01*
X0265777Y0229524D01*
X0265815Y0229654D01*
X0265850Y0229786D01*
X0265882Y0229919D01*
X0265909Y0230052D01*
X0265933Y0230186D01*
X0265954Y0230321D01*
X0265970Y0230456D01*
X0265983Y0230592D01*
X0265993Y0230728D01*
X0265998Y0230864D01*
X0266000Y0231000D01*
X0264904Y0227876D02*
X0264815Y0227768D01*
X0264723Y0227663D01*
X0264628Y0227560D01*
X0264531Y0227460D01*
X0264430Y0227362D01*
X0264327Y0227268D01*
X0264221Y0227176D01*
X0264113Y0227087D01*
X0264002Y0227002D01*
X0263889Y0226919D01*
X0263774Y0226840D01*
X0263656Y0226764D01*
X0263536Y0226691D01*
X0263415Y0226622D01*
X0263291Y0226556D01*
X0263166Y0226493D01*
X0263039Y0226435D01*
X0262910Y0226379D01*
X0262780Y0226328D01*
X0262649Y0226280D01*
X0262516Y0226235D01*
X0262382Y0226195D01*
X0262247Y0226158D01*
X0262111Y0226125D01*
X0261974Y0226096D01*
X0261836Y0226070D01*
X0261698Y0226049D01*
X0261559Y0226031D01*
X0261419Y0226018D01*
X0261280Y0226008D01*
X0261140Y0226002D01*
X0261000Y0226000D01*
X0257500Y0231000D02*
X0257502Y0231117D01*
X0257508Y0231234D01*
X0257518Y0231350D01*
X0257531Y0231467D01*
X0257549Y0231582D01*
X0257570Y0231697D01*
X0257595Y0231811D01*
X0257624Y0231925D01*
X0257657Y0232037D01*
X0257694Y0232148D01*
X0257734Y0232258D01*
X0257778Y0232366D01*
X0257825Y0232473D01*
X0257876Y0232579D01*
X0257931Y0232682D01*
X0257989Y0232784D01*
X0258050Y0232883D01*
X0258114Y0232981D01*
X0258182Y0233076D01*
X0258253Y0233169D01*
X0258327Y0233260D01*
X0258404Y0233348D01*
X0258484Y0233433D01*
X0258567Y0233516D01*
X0258652Y0233596D01*
X0258740Y0233673D01*
X0258831Y0233747D01*
X0258924Y0233818D01*
X0259019Y0233886D01*
X0259117Y0233950D01*
X0259216Y0234011D01*
X0259318Y0234069D01*
X0259421Y0234124D01*
X0259527Y0234175D01*
X0259634Y0234222D01*
X0259742Y0234266D01*
X0259852Y0234306D01*
X0259963Y0234343D01*
X0260075Y0234376D01*
X0260189Y0234405D01*
X0260303Y0234430D01*
X0260418Y0234451D01*
X0260533Y0234469D01*
X0260650Y0234482D01*
X0260766Y0234492D01*
X0260883Y0234498D01*
X0261000Y0234500D01*
X0261000Y0233000D02*
X0260913Y0232998D01*
X0260826Y0232992D01*
X0260739Y0232983D01*
X0260653Y0232970D01*
X0260567Y0232953D01*
X0260482Y0232932D01*
X0260399Y0232907D01*
X0260316Y0232879D01*
X0260235Y0232848D01*
X0260155Y0232813D01*
X0260077Y0232774D01*
X0260000Y0232732D01*
X0259925Y0232687D01*
X0259853Y0232638D01*
X0259782Y0232587D01*
X0259714Y0232532D01*
X0259649Y0232475D01*
X0259586Y0232414D01*
X0259525Y0232351D01*
X0259468Y0232286D01*
X0259413Y0232218D01*
X0259362Y0232147D01*
X0259313Y0232075D01*
X0259268Y0232000D01*
X0259226Y0231923D01*
X0259187Y0231845D01*
X0259152Y0231765D01*
X0259121Y0231684D01*
X0259093Y0231601D01*
X0259068Y0231518D01*
X0259047Y0231433D01*
X0259030Y0231347D01*
X0259017Y0231261D01*
X0259008Y0231174D01*
X0259002Y0231087D01*
X0259000Y0231000D01*
X0261000Y0229000D02*
X0261087Y0229002D01*
X0261174Y0229008D01*
X0261261Y0229017D01*
X0261347Y0229030D01*
X0261433Y0229047D01*
X0261518Y0229068D01*
X0261601Y0229093D01*
X0261684Y0229121D01*
X0261765Y0229152D01*
X0261845Y0229187D01*
X0261923Y0229226D01*
X0262000Y0229268D01*
X0262075Y0229313D01*
X0262147Y0229362D01*
X0262218Y0229413D01*
X0262286Y0229468D01*
X0262351Y0229525D01*
X0262414Y0229586D01*
X0262475Y0229649D01*
X0262532Y0229714D01*
X0262587Y0229782D01*
X0262638Y0229853D01*
X0262687Y0229925D01*
X0262732Y0230000D01*
X0262774Y0230077D01*
X0262813Y0230155D01*
X0262848Y0230235D01*
X0262879Y0230316D01*
X0262907Y0230399D01*
X0262932Y0230482D01*
X0262953Y0230567D01*
X0262970Y0230653D01*
X0262983Y0230739D01*
X0262992Y0230826D01*
X0262998Y0230913D01*
X0263000Y0231000D01*
X0264500Y0231000D02*
X0264498Y0230883D01*
X0264492Y0230766D01*
X0264482Y0230650D01*
X0264469Y0230533D01*
X0264451Y0230418D01*
X0264430Y0230303D01*
X0264405Y0230189D01*
X0264376Y0230075D01*
X0264343Y0229963D01*
X0264306Y0229852D01*
X0264266Y0229742D01*
X0264222Y0229634D01*
X0264175Y0229527D01*
X0264124Y0229421D01*
X0264069Y0229318D01*
X0264011Y0229216D01*
X0263950Y0229117D01*
X0263886Y0229019D01*
X0263818Y0228924D01*
X0263747Y0228831D01*
X0263673Y0228740D01*
X0263596Y0228652D01*
X0263516Y0228567D01*
X0263433Y0228484D01*
X0263348Y0228404D01*
X0263260Y0228327D01*
X0263169Y0228253D01*
X0263076Y0228182D01*
X0262981Y0228114D01*
X0262883Y0228050D01*
X0262784Y0227989D01*
X0262682Y0227931D01*
X0262579Y0227876D01*
X0262473Y0227825D01*
X0262366Y0227778D01*
X0262258Y0227734D01*
X0262148Y0227694D01*
X0262037Y0227657D01*
X0261925Y0227624D01*
X0261811Y0227595D01*
X0261697Y0227570D01*
X0261582Y0227549D01*
X0261467Y0227531D01*
X0261350Y0227518D01*
X0261234Y0227508D01*
X0261117Y0227502D01*
X0261000Y0227500D01*
X0271300Y0227368D02*
X0272368Y0226300D01*
X0274503Y0226300D01*
X0275570Y0227368D01*
X0275570Y0228435D01*
X0274503Y0229503D01*
X0272368Y0229503D01*
X0271300Y0230570D01*
X0271300Y0231638D01*
X0272368Y0232705D01*
X0274503Y0232705D01*
X0275570Y0231638D01*
X0276313Y0246300D02*
X0272042Y0246300D01*
X0272042Y0252705D01*
X0276313Y0252705D01*
X0278488Y0252705D02*
X0278488Y0246300D01*
X0282758Y0246300D01*
X0280623Y0249503D02*
X0278488Y0249503D01*
X0278488Y0252705D02*
X0282758Y0252705D01*
X0274178Y0249503D02*
X0272042Y0249503D01*
X0269867Y0252705D02*
X0265597Y0252705D01*
X0265597Y0246300D01*
X0269867Y0246300D01*
X0267732Y0249503D02*
X0265597Y0249503D01*
X0263435Y0252705D02*
X0261300Y0252705D01*
X0262368Y0252705D02*
X0262368Y0246300D01*
X0263435Y0246300D02*
X0261300Y0246300D01*
X0236000Y0236000D02*
X0236000Y0234500D01*
X0236000Y0231000D01*
X0236000Y0227500D01*
X0236000Y0226000D01*
X0231000Y0226000D01*
X0226000Y0226000D01*
X0226000Y0227500D01*
X0226000Y0231000D01*
X0226000Y0234500D01*
X0226000Y0236000D01*
X0231000Y0236000D01*
X0236000Y0236000D01*
X0234841Y0234201D02*
X0234929Y0234093D01*
X0235013Y0233982D01*
X0235094Y0233870D01*
X0235173Y0233755D01*
X0235248Y0233638D01*
X0235319Y0233519D01*
X0235388Y0233398D01*
X0235452Y0233275D01*
X0235514Y0233150D01*
X0235572Y0233024D01*
X0235626Y0232896D01*
X0235677Y0232767D01*
X0235725Y0232636D01*
X0235768Y0232504D01*
X0235808Y0232371D01*
X0235844Y0232237D01*
X0235877Y0232102D01*
X0235906Y0231966D01*
X0235931Y0231830D01*
X0235952Y0231692D01*
X0235969Y0231554D01*
X0235983Y0231416D01*
X0235992Y0231277D01*
X0235998Y0231139D01*
X0236000Y0231000D01*
X0234904Y0227876D02*
X0234815Y0227768D01*
X0234723Y0227663D01*
X0234628Y0227560D01*
X0234531Y0227460D01*
X0234430Y0227362D01*
X0234327Y0227268D01*
X0234221Y0227176D01*
X0234113Y0227087D01*
X0234002Y0227002D01*
X0233889Y0226919D01*
X0233774Y0226840D01*
X0233656Y0226764D01*
X0233536Y0226691D01*
X0233415Y0226622D01*
X0233291Y0226556D01*
X0233166Y0226493D01*
X0233039Y0226435D01*
X0232910Y0226379D01*
X0232780Y0226328D01*
X0232649Y0226280D01*
X0232516Y0226235D01*
X0232382Y0226195D01*
X0232247Y0226158D01*
X0232111Y0226125D01*
X0231974Y0226096D01*
X0231836Y0226070D01*
X0231698Y0226049D01*
X0231559Y0226031D01*
X0231419Y0226018D01*
X0231280Y0226008D01*
X0231140Y0226002D01*
X0231000Y0226000D01*
X0233813Y0222705D02*
X0232745Y0221638D01*
X0233813Y0222705D02*
X0235948Y0222705D01*
X0237016Y0221638D01*
X0237016Y0220570D01*
X0232745Y0216300D01*
X0237016Y0216300D01*
X0230570Y0216300D02*
X0226300Y0216300D01*
X0226300Y0222705D01*
X0220570Y0227368D02*
X0219503Y0226300D01*
X0217368Y0226300D01*
X0216300Y0227368D01*
X0217368Y0229503D02*
X0219503Y0229503D01*
X0220570Y0228435D01*
X0220570Y0227368D01*
X0217368Y0229503D02*
X0216300Y0230570D01*
X0216300Y0231638D01*
X0217368Y0232705D01*
X0219503Y0232705D01*
X0220570Y0231638D01*
X0227096Y0227876D02*
X0227185Y0227768D01*
X0227277Y0227663D01*
X0227372Y0227560D01*
X0227469Y0227460D01*
X0227570Y0227362D01*
X0227673Y0227268D01*
X0227779Y0227176D01*
X0227887Y0227087D01*
X0227998Y0227002D01*
X0228111Y0226919D01*
X0228226Y0226840D01*
X0228344Y0226764D01*
X0228464Y0226691D01*
X0228585Y0226622D01*
X0228709Y0226556D01*
X0228834Y0226493D01*
X0228961Y0226435D01*
X0229090Y0226379D01*
X0229220Y0226328D01*
X0229351Y0226280D01*
X0229484Y0226235D01*
X0229618Y0226195D01*
X0229753Y0226158D01*
X0229889Y0226125D01*
X0230026Y0226096D01*
X0230164Y0226070D01*
X0230302Y0226049D01*
X0230441Y0226031D01*
X0230581Y0226018D01*
X0230720Y0226008D01*
X0230860Y0226002D01*
X0231000Y0226000D01*
X0227204Y0227746D02*
X0227116Y0227851D01*
X0227032Y0227958D01*
X0226950Y0228067D01*
X0226872Y0228179D01*
X0226797Y0228292D01*
X0226724Y0228408D01*
X0226655Y0228525D01*
X0226590Y0228644D01*
X0226527Y0228766D01*
X0226468Y0228888D01*
X0226412Y0229013D01*
X0226360Y0229138D01*
X0226310Y0229265D01*
X0226265Y0229394D01*
X0226223Y0229524D01*
X0226185Y0229654D01*
X0226150Y0229786D01*
X0226118Y0229919D01*
X0226091Y0230052D01*
X0226067Y0230186D01*
X0226046Y0230321D01*
X0226030Y0230456D01*
X0226017Y0230592D01*
X0226007Y0230728D01*
X0226002Y0230864D01*
X0226000Y0231000D01*
X0227096Y0234124D02*
X0227185Y0234232D01*
X0227277Y0234337D01*
X0227372Y0234440D01*
X0227469Y0234540D01*
X0227570Y0234638D01*
X0227673Y0234732D01*
X0227779Y0234824D01*
X0227887Y0234913D01*
X0227998Y0234998D01*
X0228111Y0235081D01*
X0228226Y0235160D01*
X0228344Y0235236D01*
X0228464Y0235309D01*
X0228585Y0235378D01*
X0228709Y0235444D01*
X0228834Y0235507D01*
X0228961Y0235565D01*
X0229090Y0235621D01*
X0229220Y0235672D01*
X0229351Y0235720D01*
X0229484Y0235765D01*
X0229618Y0235805D01*
X0229753Y0235842D01*
X0229889Y0235875D01*
X0230026Y0235904D01*
X0230164Y0235930D01*
X0230302Y0235951D01*
X0230441Y0235969D01*
X0230581Y0235982D01*
X0230720Y0235992D01*
X0230860Y0235998D01*
X0231000Y0236000D01*
X0227204Y0234254D02*
X0227116Y0234149D01*
X0227032Y0234042D01*
X0226950Y0233933D01*
X0226872Y0233821D01*
X0226797Y0233708D01*
X0226724Y0233592D01*
X0226655Y0233475D01*
X0226590Y0233356D01*
X0226527Y0233234D01*
X0226468Y0233112D01*
X0226412Y0232987D01*
X0226360Y0232862D01*
X0226310Y0232735D01*
X0226265Y0232606D01*
X0226223Y0232476D01*
X0226185Y0232346D01*
X0226150Y0232214D01*
X0226118Y0232081D01*
X0226091Y0231948D01*
X0226067Y0231814D01*
X0226046Y0231679D01*
X0226030Y0231544D01*
X0226017Y0231408D01*
X0226007Y0231272D01*
X0226002Y0231136D01*
X0226000Y0231000D01*
X0231000Y0227500D02*
X0231117Y0227502D01*
X0231234Y0227508D01*
X0231350Y0227518D01*
X0231467Y0227531D01*
X0231582Y0227549D01*
X0231697Y0227570D01*
X0231811Y0227595D01*
X0231925Y0227624D01*
X0232037Y0227657D01*
X0232148Y0227694D01*
X0232258Y0227734D01*
X0232366Y0227778D01*
X0232473Y0227825D01*
X0232579Y0227876D01*
X0232682Y0227931D01*
X0232784Y0227989D01*
X0232883Y0228050D01*
X0232981Y0228114D01*
X0233076Y0228182D01*
X0233169Y0228253D01*
X0233260Y0228327D01*
X0233348Y0228404D01*
X0233433Y0228484D01*
X0233516Y0228567D01*
X0233596Y0228652D01*
X0233673Y0228740D01*
X0233747Y0228831D01*
X0233818Y0228924D01*
X0233886Y0229019D01*
X0233950Y0229117D01*
X0234011Y0229216D01*
X0234069Y0229318D01*
X0234124Y0229421D01*
X0234175Y0229527D01*
X0234222Y0229634D01*
X0234266Y0229742D01*
X0234306Y0229852D01*
X0234343Y0229963D01*
X0234376Y0230075D01*
X0234405Y0230189D01*
X0234430Y0230303D01*
X0234451Y0230418D01*
X0234469Y0230533D01*
X0234482Y0230650D01*
X0234492Y0230766D01*
X0234498Y0230883D01*
X0234500Y0231000D01*
X0234904Y0234124D02*
X0234815Y0234232D01*
X0234723Y0234337D01*
X0234628Y0234440D01*
X0234531Y0234540D01*
X0234430Y0234638D01*
X0234327Y0234732D01*
X0234221Y0234824D01*
X0234113Y0234913D01*
X0234002Y0234998D01*
X0233889Y0235081D01*
X0233774Y0235160D01*
X0233656Y0235236D01*
X0233536Y0235309D01*
X0233415Y0235378D01*
X0233291Y0235444D01*
X0233166Y0235507D01*
X0233039Y0235565D01*
X0232910Y0235621D01*
X0232780Y0235672D01*
X0232649Y0235720D01*
X0232516Y0235765D01*
X0232382Y0235805D01*
X0232247Y0235842D01*
X0232111Y0235875D01*
X0231974Y0235904D01*
X0231836Y0235930D01*
X0231698Y0235951D01*
X0231559Y0235969D01*
X0231419Y0235982D01*
X0231280Y0235992D01*
X0231140Y0235998D01*
X0231000Y0236000D01*
X0233000Y0231000D02*
X0232998Y0230913D01*
X0232992Y0230826D01*
X0232983Y0230739D01*
X0232970Y0230653D01*
X0232953Y0230567D01*
X0232932Y0230482D01*
X0232907Y0230399D01*
X0232879Y0230316D01*
X0232848Y0230235D01*
X0232813Y0230155D01*
X0232774Y0230077D01*
X0232732Y0230000D01*
X0232687Y0229925D01*
X0232638Y0229853D01*
X0232587Y0229782D01*
X0232532Y0229714D01*
X0232475Y0229649D01*
X0232414Y0229586D01*
X0232351Y0229525D01*
X0232286Y0229468D01*
X0232218Y0229413D01*
X0232147Y0229362D01*
X0232075Y0229313D01*
X0232000Y0229268D01*
X0231923Y0229226D01*
X0231845Y0229187D01*
X0231765Y0229152D01*
X0231684Y0229121D01*
X0231601Y0229093D01*
X0231518Y0229068D01*
X0231433Y0229047D01*
X0231347Y0229030D01*
X0231261Y0229017D01*
X0231174Y0229008D01*
X0231087Y0229002D01*
X0231000Y0229000D01*
X0234763Y0227708D02*
X0234853Y0227813D01*
X0234939Y0227921D01*
X0235023Y0228031D01*
X0235103Y0228143D01*
X0235181Y0228258D01*
X0235255Y0228374D01*
X0235326Y0228493D01*
X0235394Y0228613D01*
X0235458Y0228736D01*
X0235519Y0228860D01*
X0235576Y0228986D01*
X0235630Y0229113D01*
X0235681Y0229242D01*
X0235727Y0229372D01*
X0235771Y0229503D01*
X0235810Y0229635D01*
X0235846Y0229769D01*
X0235878Y0229903D01*
X0235907Y0230039D01*
X0235931Y0230175D01*
X0235952Y0230311D01*
X0235969Y0230448D01*
X0235983Y0230586D01*
X0235992Y0230724D01*
X0235998Y0230862D01*
X0236000Y0231000D01*
X0231000Y0233000D02*
X0230913Y0232998D01*
X0230826Y0232992D01*
X0230739Y0232983D01*
X0230653Y0232970D01*
X0230567Y0232953D01*
X0230482Y0232932D01*
X0230399Y0232907D01*
X0230316Y0232879D01*
X0230235Y0232848D01*
X0230155Y0232813D01*
X0230077Y0232774D01*
X0230000Y0232732D01*
X0229925Y0232687D01*
X0229853Y0232638D01*
X0229782Y0232587D01*
X0229714Y0232532D01*
X0229649Y0232475D01*
X0229586Y0232414D01*
X0229525Y0232351D01*
X0229468Y0232286D01*
X0229413Y0232218D01*
X0229362Y0232147D01*
X0229313Y0232075D01*
X0229268Y0232000D01*
X0229226Y0231923D01*
X0229187Y0231845D01*
X0229152Y0231765D01*
X0229121Y0231684D01*
X0229093Y0231601D01*
X0229068Y0231518D01*
X0229047Y0231433D01*
X0229030Y0231347D01*
X0229017Y0231261D01*
X0229008Y0231174D01*
X0229002Y0231087D01*
X0229000Y0231000D01*
X0227500Y0231000D02*
X0227502Y0231117D01*
X0227508Y0231234D01*
X0227518Y0231350D01*
X0227531Y0231467D01*
X0227549Y0231582D01*
X0227570Y0231697D01*
X0227595Y0231811D01*
X0227624Y0231925D01*
X0227657Y0232037D01*
X0227694Y0232148D01*
X0227734Y0232258D01*
X0227778Y0232366D01*
X0227825Y0232473D01*
X0227876Y0232579D01*
X0227931Y0232682D01*
X0227989Y0232784D01*
X0228050Y0232883D01*
X0228114Y0232981D01*
X0228182Y0233076D01*
X0228253Y0233169D01*
X0228327Y0233260D01*
X0228404Y0233348D01*
X0228484Y0233433D01*
X0228567Y0233516D01*
X0228652Y0233596D01*
X0228740Y0233673D01*
X0228831Y0233747D01*
X0228924Y0233818D01*
X0229019Y0233886D01*
X0229117Y0233950D01*
X0229216Y0234011D01*
X0229318Y0234069D01*
X0229421Y0234124D01*
X0229527Y0234175D01*
X0229634Y0234222D01*
X0229742Y0234266D01*
X0229852Y0234306D01*
X0229963Y0234343D01*
X0230075Y0234376D01*
X0230189Y0234405D01*
X0230303Y0234430D01*
X0230418Y0234451D01*
X0230533Y0234469D01*
X0230650Y0234482D01*
X0230766Y0234492D01*
X0230883Y0234498D01*
X0231000Y0234500D01*
X0291379Y0247368D02*
X0292447Y0246300D01*
X0294582Y0246300D01*
X0295649Y0247368D01*
X0295649Y0252705D01*
X0297824Y0252705D02*
X0297824Y0246300D01*
X0297824Y0248435D02*
X0301027Y0248435D01*
X0302095Y0249503D01*
X0302095Y0251638D01*
X0301027Y0252705D01*
X0297824Y0252705D01*
X0291379Y0252705D02*
X0291379Y0247368D01*
X0304270Y0248435D02*
X0307473Y0248435D01*
X0308540Y0249503D01*
X0308540Y0251638D01*
X0307473Y0252705D01*
X0304270Y0252705D01*
X0304270Y0246300D01*
X0317161Y0246300D02*
X0317161Y0252705D01*
X0321431Y0252705D01*
X0323606Y0252705D02*
X0323606Y0247368D01*
X0324674Y0246300D01*
X0326809Y0246300D01*
X0327877Y0247368D01*
X0327877Y0252705D01*
X0330052Y0252705D02*
X0334322Y0246300D01*
X0334322Y0252705D01*
X0336497Y0252705D02*
X0336497Y0246300D01*
X0339700Y0246300D01*
X0340768Y0247368D01*
X0340768Y0251638D01*
X0339700Y0252705D01*
X0336497Y0252705D01*
X0330052Y0252705D02*
X0330052Y0246300D01*
X0319296Y0249503D02*
X0317161Y0249503D01*
X0342943Y0249503D02*
X0345078Y0249503D01*
X0342943Y0252705D02*
X0342943Y0246300D01*
X0347213Y0246300D01*
X0349388Y0246300D02*
X0349388Y0252705D01*
X0352591Y0252705D01*
X0353659Y0251638D01*
X0353659Y0247368D01*
X0352591Y0246300D01*
X0349388Y0246300D01*
X0347213Y0252705D02*
X0342943Y0252705D01*
X0368500Y0226000D02*
X0366000Y0223500D01*
X0366000Y0218500D01*
X0368500Y0216000D01*
X0366000Y0213500D01*
X0366000Y0208500D01*
X0368500Y0206000D01*
X0373500Y0206000D01*
X0376000Y0208500D01*
X0376000Y0213500D01*
X0373500Y0216000D01*
X0368500Y0216000D01*
X0373500Y0216000D02*
X0376000Y0218500D01*
X0376000Y0223500D01*
X0373500Y0226000D01*
X0368500Y0226000D01*
X0381300Y0221638D02*
X0381300Y0217368D01*
X0382368Y0216300D01*
X0384503Y0216300D01*
X0385570Y0217368D01*
X0385570Y0219503D01*
X0383435Y0219503D01*
X0381300Y0221638D02*
X0382368Y0222705D01*
X0384503Y0222705D01*
X0385570Y0221638D01*
X0373500Y0206000D02*
X0376000Y0203500D01*
X0376000Y0198500D01*
X0373500Y0196000D01*
X0376000Y0193500D01*
X0376000Y0188500D01*
X0373500Y0186000D01*
X0376000Y0183500D01*
X0376000Y0178500D01*
X0373500Y0176000D01*
X0376000Y0173500D01*
X0376000Y0168500D01*
X0373500Y0166000D01*
X0368500Y0166000D01*
X0366000Y0168500D01*
X0366000Y0173500D01*
X0368500Y0176000D01*
X0366000Y0178500D01*
X0366000Y0183500D01*
X0368500Y0186000D01*
X0366000Y0188500D01*
X0366000Y0193500D01*
X0368500Y0196000D01*
X0366000Y0198500D01*
X0366000Y0203500D01*
X0368500Y0206000D01*
X0368500Y0196000D02*
X0373500Y0196000D01*
X0381300Y0192705D02*
X0385570Y0192705D01*
X0383435Y0192705D02*
X0383435Y0186300D01*
X0384503Y0182705D02*
X0385570Y0181638D01*
X0385570Y0179503D01*
X0384503Y0178435D01*
X0381300Y0178435D01*
X0381300Y0176300D02*
X0381300Y0182705D01*
X0384503Y0182705D01*
X0383435Y0178435D02*
X0385570Y0176300D01*
X0383435Y0172705D02*
X0383435Y0166300D01*
X0381300Y0166300D02*
X0385570Y0166300D01*
X0387745Y0166300D02*
X0392016Y0170570D01*
X0392016Y0171638D01*
X0390948Y0172705D01*
X0388813Y0172705D01*
X0387745Y0171638D01*
X0383435Y0172705D02*
X0381300Y0170570D01*
X0387745Y0166300D02*
X0392016Y0166300D01*
X0373500Y0176000D02*
X0368500Y0176000D01*
X0368500Y0186000D02*
X0373500Y0186000D01*
D11*
X0221000Y0061000D02*
X0206000Y0076000D01*
X0206000Y0246000D01*
X0221000Y0261000D01*
X0391000Y0261000D01*
X0406000Y0246000D01*
X0406000Y0076000D01*
X0391000Y0061000D01*
X0221000Y0061000D01*
X0221000Y0081000D02*
X0221002Y0081141D01*
X0221008Y0081282D01*
X0221018Y0081422D01*
X0221032Y0081562D01*
X0221050Y0081702D01*
X0221071Y0081841D01*
X0221097Y0081980D01*
X0221126Y0082118D01*
X0221160Y0082254D01*
X0221197Y0082390D01*
X0221238Y0082525D01*
X0221283Y0082659D01*
X0221332Y0082791D01*
X0221384Y0082922D01*
X0221440Y0083051D01*
X0221500Y0083178D01*
X0221563Y0083304D01*
X0221629Y0083428D01*
X0221700Y0083551D01*
X0221773Y0083671D01*
X0221850Y0083789D01*
X0221930Y0083905D01*
X0222014Y0084018D01*
X0222100Y0084129D01*
X0222190Y0084238D01*
X0222283Y0084344D01*
X0222378Y0084447D01*
X0222477Y0084548D01*
X0222578Y0084646D01*
X0222682Y0084741D01*
X0222789Y0084833D01*
X0222898Y0084922D01*
X0223010Y0085007D01*
X0223124Y0085090D01*
X0223240Y0085170D01*
X0223359Y0085246D01*
X0223480Y0085318D01*
X0223602Y0085388D01*
X0223727Y0085453D01*
X0223853Y0085516D01*
X0223981Y0085574D01*
X0224111Y0085629D01*
X0224242Y0085681D01*
X0224375Y0085728D01*
X0224509Y0085772D01*
X0224644Y0085813D01*
X0224780Y0085849D01*
X0224917Y0085881D01*
X0225055Y0085910D01*
X0225193Y0085935D01*
X0225333Y0085955D01*
X0225473Y0085972D01*
X0225613Y0085985D01*
X0225754Y0085994D01*
X0225894Y0085999D01*
X0226035Y0086000D01*
X0226176Y0085997D01*
X0226317Y0085990D01*
X0226457Y0085979D01*
X0226597Y0085964D01*
X0226737Y0085945D01*
X0226876Y0085923D01*
X0227014Y0085896D01*
X0227152Y0085866D01*
X0227288Y0085831D01*
X0227424Y0085793D01*
X0227558Y0085751D01*
X0227692Y0085705D01*
X0227824Y0085656D01*
X0227954Y0085602D01*
X0228083Y0085545D01*
X0228210Y0085485D01*
X0228336Y0085421D01*
X0228459Y0085353D01*
X0228581Y0085282D01*
X0228701Y0085208D01*
X0228818Y0085130D01*
X0228933Y0085049D01*
X0229046Y0084965D01*
X0229157Y0084878D01*
X0229265Y0084787D01*
X0229370Y0084694D01*
X0229473Y0084597D01*
X0229573Y0084498D01*
X0229670Y0084396D01*
X0229764Y0084291D01*
X0229855Y0084184D01*
X0229943Y0084074D01*
X0230028Y0083962D01*
X0230110Y0083847D01*
X0230189Y0083730D01*
X0230264Y0083611D01*
X0230336Y0083490D01*
X0230404Y0083367D01*
X0230469Y0083242D01*
X0230531Y0083115D01*
X0230588Y0082986D01*
X0230643Y0082856D01*
X0230693Y0082725D01*
X0230740Y0082592D01*
X0230783Y0082458D01*
X0230822Y0082322D01*
X0230857Y0082186D01*
X0230889Y0082049D01*
X0230916Y0081911D01*
X0230940Y0081772D01*
X0230960Y0081632D01*
X0230976Y0081492D01*
X0230988Y0081352D01*
X0230996Y0081211D01*
X0231000Y0081070D01*
X0231000Y0080930D01*
X0230996Y0080789D01*
X0230988Y0080648D01*
X0230976Y0080508D01*
X0230960Y0080368D01*
X0230940Y0080228D01*
X0230916Y0080089D01*
X0230889Y0079951D01*
X0230857Y0079814D01*
X0230822Y0079678D01*
X0230783Y0079542D01*
X0230740Y0079408D01*
X0230693Y0079275D01*
X0230643Y0079144D01*
X0230588Y0079014D01*
X0230531Y0078885D01*
X0230469Y0078758D01*
X0230404Y0078633D01*
X0230336Y0078510D01*
X0230264Y0078389D01*
X0230189Y0078270D01*
X0230110Y0078153D01*
X0230028Y0078038D01*
X0229943Y0077926D01*
X0229855Y0077816D01*
X0229764Y0077709D01*
X0229670Y0077604D01*
X0229573Y0077502D01*
X0229473Y0077403D01*
X0229370Y0077306D01*
X0229265Y0077213D01*
X0229157Y0077122D01*
X0229046Y0077035D01*
X0228933Y0076951D01*
X0228818Y0076870D01*
X0228701Y0076792D01*
X0228581Y0076718D01*
X0228459Y0076647D01*
X0228336Y0076579D01*
X0228210Y0076515D01*
X0228083Y0076455D01*
X0227954Y0076398D01*
X0227824Y0076344D01*
X0227692Y0076295D01*
X0227558Y0076249D01*
X0227424Y0076207D01*
X0227288Y0076169D01*
X0227152Y0076134D01*
X0227014Y0076104D01*
X0226876Y0076077D01*
X0226737Y0076055D01*
X0226597Y0076036D01*
X0226457Y0076021D01*
X0226317Y0076010D01*
X0226176Y0076003D01*
X0226035Y0076000D01*
X0225894Y0076001D01*
X0225754Y0076006D01*
X0225613Y0076015D01*
X0225473Y0076028D01*
X0225333Y0076045D01*
X0225193Y0076065D01*
X0225055Y0076090D01*
X0224917Y0076119D01*
X0224780Y0076151D01*
X0224644Y0076187D01*
X0224509Y0076228D01*
X0224375Y0076272D01*
X0224242Y0076319D01*
X0224111Y0076371D01*
X0223981Y0076426D01*
X0223853Y0076484D01*
X0223727Y0076547D01*
X0223602Y0076612D01*
X0223480Y0076682D01*
X0223359Y0076754D01*
X0223240Y0076830D01*
X0223124Y0076910D01*
X0223010Y0076993D01*
X0222898Y0077078D01*
X0222789Y0077167D01*
X0222682Y0077259D01*
X0222578Y0077354D01*
X0222477Y0077452D01*
X0222378Y0077553D01*
X0222283Y0077656D01*
X0222190Y0077762D01*
X0222100Y0077871D01*
X0222014Y0077982D01*
X0221930Y0078095D01*
X0221850Y0078211D01*
X0221773Y0078329D01*
X0221700Y0078449D01*
X0221629Y0078572D01*
X0221563Y0078696D01*
X0221500Y0078822D01*
X0221440Y0078949D01*
X0221384Y0079078D01*
X0221332Y0079209D01*
X0221283Y0079341D01*
X0221238Y0079475D01*
X0221197Y0079610D01*
X0221160Y0079746D01*
X0221126Y0079882D01*
X0221097Y0080020D01*
X0221071Y0080159D01*
X0221050Y0080298D01*
X0221032Y0080438D01*
X0221018Y0080578D01*
X0221008Y0080718D01*
X0221002Y0080859D01*
X0221000Y0081000D01*
X0381000Y0246000D02*
X0381002Y0246141D01*
X0381008Y0246282D01*
X0381018Y0246422D01*
X0381032Y0246562D01*
X0381050Y0246702D01*
X0381071Y0246841D01*
X0381097Y0246980D01*
X0381126Y0247118D01*
X0381160Y0247254D01*
X0381197Y0247390D01*
X0381238Y0247525D01*
X0381283Y0247659D01*
X0381332Y0247791D01*
X0381384Y0247922D01*
X0381440Y0248051D01*
X0381500Y0248178D01*
X0381563Y0248304D01*
X0381629Y0248428D01*
X0381700Y0248551D01*
X0381773Y0248671D01*
X0381850Y0248789D01*
X0381930Y0248905D01*
X0382014Y0249018D01*
X0382100Y0249129D01*
X0382190Y0249238D01*
X0382283Y0249344D01*
X0382378Y0249447D01*
X0382477Y0249548D01*
X0382578Y0249646D01*
X0382682Y0249741D01*
X0382789Y0249833D01*
X0382898Y0249922D01*
X0383010Y0250007D01*
X0383124Y0250090D01*
X0383240Y0250170D01*
X0383359Y0250246D01*
X0383480Y0250318D01*
X0383602Y0250388D01*
X0383727Y0250453D01*
X0383853Y0250516D01*
X0383981Y0250574D01*
X0384111Y0250629D01*
X0384242Y0250681D01*
X0384375Y0250728D01*
X0384509Y0250772D01*
X0384644Y0250813D01*
X0384780Y0250849D01*
X0384917Y0250881D01*
X0385055Y0250910D01*
X0385193Y0250935D01*
X0385333Y0250955D01*
X0385473Y0250972D01*
X0385613Y0250985D01*
X0385754Y0250994D01*
X0385894Y0250999D01*
X0386035Y0251000D01*
X0386176Y0250997D01*
X0386317Y0250990D01*
X0386457Y0250979D01*
X0386597Y0250964D01*
X0386737Y0250945D01*
X0386876Y0250923D01*
X0387014Y0250896D01*
X0387152Y0250866D01*
X0387288Y0250831D01*
X0387424Y0250793D01*
X0387558Y0250751D01*
X0387692Y0250705D01*
X0387824Y0250656D01*
X0387954Y0250602D01*
X0388083Y0250545D01*
X0388210Y0250485D01*
X0388336Y0250421D01*
X0388459Y0250353D01*
X0388581Y0250282D01*
X0388701Y0250208D01*
X0388818Y0250130D01*
X0388933Y0250049D01*
X0389046Y0249965D01*
X0389157Y0249878D01*
X0389265Y0249787D01*
X0389370Y0249694D01*
X0389473Y0249597D01*
X0389573Y0249498D01*
X0389670Y0249396D01*
X0389764Y0249291D01*
X0389855Y0249184D01*
X0389943Y0249074D01*
X0390028Y0248962D01*
X0390110Y0248847D01*
X0390189Y0248730D01*
X0390264Y0248611D01*
X0390336Y0248490D01*
X0390404Y0248367D01*
X0390469Y0248242D01*
X0390531Y0248115D01*
X0390588Y0247986D01*
X0390643Y0247856D01*
X0390693Y0247725D01*
X0390740Y0247592D01*
X0390783Y0247458D01*
X0390822Y0247322D01*
X0390857Y0247186D01*
X0390889Y0247049D01*
X0390916Y0246911D01*
X0390940Y0246772D01*
X0390960Y0246632D01*
X0390976Y0246492D01*
X0390988Y0246352D01*
X0390996Y0246211D01*
X0391000Y0246070D01*
X0391000Y0245930D01*
X0390996Y0245789D01*
X0390988Y0245648D01*
X0390976Y0245508D01*
X0390960Y0245368D01*
X0390940Y0245228D01*
X0390916Y0245089D01*
X0390889Y0244951D01*
X0390857Y0244814D01*
X0390822Y0244678D01*
X0390783Y0244542D01*
X0390740Y0244408D01*
X0390693Y0244275D01*
X0390643Y0244144D01*
X0390588Y0244014D01*
X0390531Y0243885D01*
X0390469Y0243758D01*
X0390404Y0243633D01*
X0390336Y0243510D01*
X0390264Y0243389D01*
X0390189Y0243270D01*
X0390110Y0243153D01*
X0390028Y0243038D01*
X0389943Y0242926D01*
X0389855Y0242816D01*
X0389764Y0242709D01*
X0389670Y0242604D01*
X0389573Y0242502D01*
X0389473Y0242403D01*
X0389370Y0242306D01*
X0389265Y0242213D01*
X0389157Y0242122D01*
X0389046Y0242035D01*
X0388933Y0241951D01*
X0388818Y0241870D01*
X0388701Y0241792D01*
X0388581Y0241718D01*
X0388459Y0241647D01*
X0388336Y0241579D01*
X0388210Y0241515D01*
X0388083Y0241455D01*
X0387954Y0241398D01*
X0387824Y0241344D01*
X0387692Y0241295D01*
X0387558Y0241249D01*
X0387424Y0241207D01*
X0387288Y0241169D01*
X0387152Y0241134D01*
X0387014Y0241104D01*
X0386876Y0241077D01*
X0386737Y0241055D01*
X0386597Y0241036D01*
X0386457Y0241021D01*
X0386317Y0241010D01*
X0386176Y0241003D01*
X0386035Y0241000D01*
X0385894Y0241001D01*
X0385754Y0241006D01*
X0385613Y0241015D01*
X0385473Y0241028D01*
X0385333Y0241045D01*
X0385193Y0241065D01*
X0385055Y0241090D01*
X0384917Y0241119D01*
X0384780Y0241151D01*
X0384644Y0241187D01*
X0384509Y0241228D01*
X0384375Y0241272D01*
X0384242Y0241319D01*
X0384111Y0241371D01*
X0383981Y0241426D01*
X0383853Y0241484D01*
X0383727Y0241547D01*
X0383602Y0241612D01*
X0383480Y0241682D01*
X0383359Y0241754D01*
X0383240Y0241830D01*
X0383124Y0241910D01*
X0383010Y0241993D01*
X0382898Y0242078D01*
X0382789Y0242167D01*
X0382682Y0242259D01*
X0382578Y0242354D01*
X0382477Y0242452D01*
X0382378Y0242553D01*
X0382283Y0242656D01*
X0382190Y0242762D01*
X0382100Y0242871D01*
X0382014Y0242982D01*
X0381930Y0243095D01*
X0381850Y0243211D01*
X0381773Y0243329D01*
X0381700Y0243449D01*
X0381629Y0243572D01*
X0381563Y0243696D01*
X0381500Y0243822D01*
X0381440Y0243949D01*
X0381384Y0244078D01*
X0381332Y0244209D01*
X0381283Y0244341D01*
X0381238Y0244475D01*
X0381197Y0244610D01*
X0381160Y0244746D01*
X0381126Y0244882D01*
X0381097Y0245020D01*
X0381071Y0245159D01*
X0381050Y0245298D01*
X0381032Y0245438D01*
X0381018Y0245578D01*
X0381008Y0245718D01*
X0381002Y0245859D01*
X0381000Y0246000D01*
D12*
X0299000Y0147000D02*
X0296000Y0147000D01*
X0293000Y0147000D01*
X0293000Y0145000D02*
X0296000Y0145000D01*
X0299000Y0145000D01*
X0299000Y0127000D02*
X0296000Y0127000D01*
X0293000Y0127000D01*
X0293000Y0125000D02*
X0296000Y0125000D01*
X0299000Y0125000D01*
X0254000Y0117000D02*
X0251000Y0117000D01*
X0248000Y0117000D01*
X0248000Y0115000D02*
X0251000Y0115000D01*
X0254000Y0115000D01*
X0254000Y0140000D02*
X0251000Y0140000D01*
X0248000Y0140000D01*
X0248000Y0142000D02*
X0251000Y0142000D01*
X0254000Y0142000D01*
D13*
X0226000Y0136000D03*
X0226000Y0126000D03*
X0226000Y0116000D03*
X0251000Y0086000D03*
X0261000Y0086000D03*
X0271000Y0086000D03*
X0361000Y0101000D03*
X0371000Y0101000D03*
X0371000Y0111000D03*
X0361000Y0111000D03*
X0361000Y0121000D03*
X0371000Y0121000D03*
X0371000Y0131000D03*
X0361000Y0131000D03*
X0371000Y0171000D03*
X0371000Y0181000D03*
X0371000Y0191000D03*
X0371000Y0201000D03*
X0371000Y0211000D03*
X0371000Y0221000D03*
D14*
X0254500Y0231000D03*
X0237500Y0231000D03*
D15*
X0238750Y0231000D03*
X0253250Y0231000D03*
D16*
X0269000Y0149500D02*
X0269000Y0122500D01*
X0269002Y0122330D01*
X0269008Y0122159D01*
X0269019Y0121989D01*
X0269033Y0121819D01*
X0269052Y0121650D01*
X0269075Y0121481D01*
X0269101Y0121312D01*
X0269132Y0121145D01*
X0269167Y0120978D01*
X0269207Y0120812D01*
X0269250Y0120647D01*
X0269297Y0120483D01*
X0269348Y0120321D01*
X0269403Y0120159D01*
X0269462Y0119999D01*
X0269525Y0119841D01*
X0269591Y0119684D01*
X0269662Y0119529D01*
X0269736Y0119375D01*
X0269814Y0119224D01*
X0269896Y0119074D01*
X0269981Y0118926D01*
X0270070Y0118781D01*
X0270162Y0118638D01*
X0270258Y0118497D01*
X0270357Y0118358D01*
X0270460Y0118222D01*
X0270565Y0118088D01*
X0270674Y0117957D01*
X0270787Y0117829D01*
X0270902Y0117703D01*
X0271020Y0117580D01*
X0271141Y0117461D01*
X0271266Y0117344D01*
X0271393Y0117230D01*
X0271522Y0117119D01*
X0271655Y0117012D01*
X0271790Y0116908D01*
X0271927Y0116807D01*
X0272067Y0116709D01*
X0272209Y0116615D01*
X0272353Y0116525D01*
X0272500Y0116438D01*
X0272649Y0116354D01*
X0272799Y0116275D01*
X0272952Y0116199D01*
X0273106Y0116126D01*
X0273262Y0116058D01*
X0273420Y0115993D01*
X0273579Y0115932D01*
X0273740Y0115875D01*
X0273902Y0115822D01*
X0274065Y0115773D01*
X0274229Y0115728D01*
X0274395Y0115687D01*
X0274561Y0115649D01*
X0274729Y0115616D01*
X0274897Y0115588D01*
X0275065Y0115563D01*
X0275234Y0115542D01*
X0275404Y0115525D01*
X0275574Y0115513D01*
X0275744Y0115505D01*
X0275915Y0115501D01*
X0276085Y0115501D01*
X0276256Y0115505D01*
X0276426Y0115513D01*
X0276596Y0115525D01*
X0276766Y0115542D01*
X0276935Y0115563D01*
X0277103Y0115588D01*
X0277271Y0115616D01*
X0277439Y0115649D01*
X0277605Y0115687D01*
X0277771Y0115728D01*
X0277935Y0115773D01*
X0278098Y0115822D01*
X0278260Y0115875D01*
X0278421Y0115932D01*
X0278580Y0115993D01*
X0278738Y0116058D01*
X0278894Y0116126D01*
X0279048Y0116199D01*
X0279201Y0116275D01*
X0279351Y0116354D01*
X0279500Y0116438D01*
X0279647Y0116525D01*
X0279791Y0116615D01*
X0279933Y0116709D01*
X0280073Y0116807D01*
X0280210Y0116908D01*
X0280345Y0117012D01*
X0280478Y0117119D01*
X0280607Y0117230D01*
X0280734Y0117344D01*
X0280859Y0117461D01*
X0280980Y0117580D01*
X0281098Y0117703D01*
X0281213Y0117829D01*
X0281326Y0117957D01*
X0281435Y0118088D01*
X0281540Y0118222D01*
X0281643Y0118358D01*
X0281742Y0118497D01*
X0281838Y0118638D01*
X0281930Y0118781D01*
X0282019Y0118926D01*
X0282104Y0119074D01*
X0282186Y0119224D01*
X0282264Y0119375D01*
X0282338Y0119529D01*
X0282409Y0119684D01*
X0282475Y0119841D01*
X0282538Y0119999D01*
X0282597Y0120159D01*
X0282652Y0120321D01*
X0282703Y0120483D01*
X0282750Y0120647D01*
X0282793Y0120812D01*
X0282833Y0120978D01*
X0282868Y0121145D01*
X0282899Y0121312D01*
X0282925Y0121481D01*
X0282948Y0121650D01*
X0282967Y0121819D01*
X0282981Y0121989D01*
X0282992Y0122159D01*
X0282998Y0122330D01*
X0283000Y0122500D01*
X0283000Y0149500D01*
X0282998Y0149670D01*
X0282992Y0149841D01*
X0282981Y0150011D01*
X0282967Y0150181D01*
X0282948Y0150350D01*
X0282925Y0150519D01*
X0282899Y0150688D01*
X0282868Y0150855D01*
X0282833Y0151022D01*
X0282793Y0151188D01*
X0282750Y0151353D01*
X0282703Y0151517D01*
X0282652Y0151679D01*
X0282597Y0151841D01*
X0282538Y0152001D01*
X0282475Y0152159D01*
X0282409Y0152316D01*
X0282338Y0152471D01*
X0282264Y0152625D01*
X0282186Y0152776D01*
X0282104Y0152926D01*
X0282019Y0153074D01*
X0281930Y0153219D01*
X0281838Y0153362D01*
X0281742Y0153503D01*
X0281643Y0153642D01*
X0281540Y0153778D01*
X0281435Y0153912D01*
X0281326Y0154043D01*
X0281213Y0154171D01*
X0281098Y0154297D01*
X0280980Y0154420D01*
X0280859Y0154539D01*
X0280734Y0154656D01*
X0280607Y0154770D01*
X0280478Y0154881D01*
X0280345Y0154988D01*
X0280210Y0155092D01*
X0280073Y0155193D01*
X0279933Y0155291D01*
X0279791Y0155385D01*
X0279647Y0155475D01*
X0279500Y0155562D01*
X0279351Y0155646D01*
X0279201Y0155725D01*
X0279048Y0155801D01*
X0278894Y0155874D01*
X0278738Y0155942D01*
X0278580Y0156007D01*
X0278421Y0156068D01*
X0278260Y0156125D01*
X0278098Y0156178D01*
X0277935Y0156227D01*
X0277771Y0156272D01*
X0277605Y0156313D01*
X0277439Y0156351D01*
X0277271Y0156384D01*
X0277103Y0156412D01*
X0276935Y0156437D01*
X0276766Y0156458D01*
X0276596Y0156475D01*
X0276426Y0156487D01*
X0276256Y0156495D01*
X0276085Y0156499D01*
X0275915Y0156499D01*
X0275744Y0156495D01*
X0275574Y0156487D01*
X0275404Y0156475D01*
X0275234Y0156458D01*
X0275065Y0156437D01*
X0274897Y0156412D01*
X0274729Y0156384D01*
X0274561Y0156351D01*
X0274395Y0156313D01*
X0274229Y0156272D01*
X0274065Y0156227D01*
X0273902Y0156178D01*
X0273740Y0156125D01*
X0273579Y0156068D01*
X0273420Y0156007D01*
X0273262Y0155942D01*
X0273106Y0155874D01*
X0272952Y0155801D01*
X0272799Y0155725D01*
X0272649Y0155646D01*
X0272500Y0155562D01*
X0272353Y0155475D01*
X0272209Y0155385D01*
X0272067Y0155291D01*
X0271927Y0155193D01*
X0271790Y0155092D01*
X0271655Y0154988D01*
X0271522Y0154881D01*
X0271393Y0154770D01*
X0271266Y0154656D01*
X0271141Y0154539D01*
X0271020Y0154420D01*
X0270902Y0154297D01*
X0270787Y0154171D01*
X0270674Y0154043D01*
X0270565Y0153912D01*
X0270460Y0153778D01*
X0270357Y0153642D01*
X0270258Y0153503D01*
X0270162Y0153362D01*
X0270070Y0153219D01*
X0269981Y0153074D01*
X0269896Y0152926D01*
X0269814Y0152776D01*
X0269736Y0152625D01*
X0269662Y0152471D01*
X0269591Y0152316D01*
X0269525Y0152159D01*
X0269462Y0152001D01*
X0269403Y0151841D01*
X0269348Y0151679D01*
X0269297Y0151517D01*
X0269250Y0151353D01*
X0269207Y0151188D01*
X0269167Y0151022D01*
X0269132Y0150855D01*
X0269101Y0150688D01*
X0269075Y0150519D01*
X0269052Y0150350D01*
X0269033Y0150181D01*
X0269019Y0150011D01*
X0269008Y0149841D01*
X0269002Y0149670D01*
X0269000Y0149500D01*
D17*
X0269500Y0166000D02*
X0266000Y0166000D01*
X0256000Y0166000D02*
X0252500Y0166000D01*
X0229500Y0166000D02*
X0226000Y0166000D01*
X0292500Y0166000D02*
X0296000Y0166000D01*
X0291000Y0181000D02*
X0291000Y0184500D01*
X0291000Y0207500D02*
X0291000Y0211000D01*
D18*
X0291000Y0206750D03*
X0291000Y0185250D03*
D19*
X0291750Y0166000D03*
X0270250Y0166000D03*
X0251750Y0166000D03*
X0230250Y0166000D03*
D20*
X0221984Y0171926D02*
X0227500Y0177500D01*
X0227500Y0211000D01*
X0264500Y0211000D01*
X0264500Y0177500D01*
X0270016Y0171926D01*
X0270016Y0217673D01*
X0264500Y0211000D01*
X0270016Y0217673D02*
X0221984Y0217673D01*
X0227500Y0211000D01*
X0221984Y0217673D02*
X0221984Y0171926D01*
X0270016Y0171926D01*
X0264500Y0177500D02*
X0227500Y0177500D01*
X0221984Y0217673D02*
X0221984Y0240074D01*
X0270016Y0240074D01*
X0270016Y0217673D01*
M02*
