%
M48
M72
T01C0.02400
T02C0.03200
T03C0.03543
T04C0.04000
T05C0.04331
%
T01
X276000Y126000
X276000Y146000
T02
X296000Y141000
X296000Y131000
X296000Y121000
X311000Y116000
X311000Y126000
X311000Y136000
X311000Y146000
X311000Y156000
X311000Y166000
X311000Y176000
X311000Y186000
X311000Y196000
X311000Y206000
X311000Y216000
X311000Y226000
X291000Y211000
X266000Y231000
X256000Y231000
X236000Y231000
X226000Y231000
X291000Y181000
X296000Y166000
X296000Y151000
X266000Y166000
X256000Y166000
X251000Y146000
X251000Y136000
X251000Y121000
X251000Y111000
X311000Y106000
X311000Y96000
X341000Y96000
X341000Y106000
X341000Y116000
X341000Y126000
X341000Y136000
X341000Y146000
X341000Y156000
X341000Y166000
X341000Y176000
X341000Y186000
X341000Y196000
X341000Y206000
X341000Y216000
X341000Y226000
X226000Y166000
T03
X231000Y186000
X231000Y206000
X261000Y206000
X261000Y186000
T04
X226000Y116000
X226000Y126000
X226000Y136000
X251000Y86000
X261000Y86000
X271000Y86000
X361000Y101000
X371000Y101000
X371000Y111000
X361000Y111000
X361000Y121000
X371000Y121000
X371000Y131000
X361000Y131000
X371000Y171000
X371000Y181000
X371000Y191000
X371000Y201000
X371000Y211000
X371000Y221000
T05
X261000Y236000
X231000Y176000
M30
