G75*
%MOIN*%
%OFA0B0*%
%FSLAX25Y25*%
%IPPOS*%
%LPD*%
%AMOC8*
5,1,8,0,0,1.08239X$1,22.5*
%
%ADD10C,0.00000*%
%ADD11OC8,0.06300*%
%ADD12C,0.05200*%
%ADD13C,0.06000*%
%ADD14OC8,0.06000*%
%ADD15OC8,0.05200*%
%ADD16C,0.04400*%
%ADD17R,0.05906X0.05906*%
%ADD18C,0.01969*%
D10*
X0001000Y0001000D02*
X0001000Y0394701D01*
X0630921Y0394701D01*
X0630921Y0001000D01*
X0001000Y0001000D01*
X0228835Y0176000D02*
X0228837Y0176093D01*
X0228843Y0176185D01*
X0228853Y0176277D01*
X0228867Y0176368D01*
X0228884Y0176459D01*
X0228906Y0176549D01*
X0228931Y0176638D01*
X0228960Y0176726D01*
X0228993Y0176812D01*
X0229030Y0176897D01*
X0229070Y0176981D01*
X0229114Y0177062D01*
X0229161Y0177142D01*
X0229211Y0177220D01*
X0229265Y0177295D01*
X0229322Y0177368D01*
X0229382Y0177438D01*
X0229445Y0177506D01*
X0229511Y0177571D01*
X0229579Y0177633D01*
X0229650Y0177693D01*
X0229724Y0177749D01*
X0229800Y0177802D01*
X0229878Y0177851D01*
X0229958Y0177898D01*
X0230040Y0177940D01*
X0230124Y0177980D01*
X0230209Y0178015D01*
X0230296Y0178047D01*
X0230384Y0178076D01*
X0230473Y0178100D01*
X0230563Y0178121D01*
X0230654Y0178137D01*
X0230746Y0178150D01*
X0230838Y0178159D01*
X0230931Y0178164D01*
X0231023Y0178165D01*
X0231116Y0178162D01*
X0231208Y0178155D01*
X0231300Y0178144D01*
X0231391Y0178129D01*
X0231482Y0178111D01*
X0231572Y0178088D01*
X0231660Y0178062D01*
X0231748Y0178032D01*
X0231834Y0177998D01*
X0231918Y0177961D01*
X0232001Y0177919D01*
X0232082Y0177875D01*
X0232162Y0177827D01*
X0232239Y0177776D01*
X0232313Y0177721D01*
X0232386Y0177663D01*
X0232456Y0177603D01*
X0232523Y0177539D01*
X0232587Y0177473D01*
X0232649Y0177403D01*
X0232707Y0177332D01*
X0232762Y0177258D01*
X0232814Y0177181D01*
X0232863Y0177102D01*
X0232909Y0177022D01*
X0232951Y0176939D01*
X0232989Y0176855D01*
X0233024Y0176769D01*
X0233055Y0176682D01*
X0233082Y0176594D01*
X0233105Y0176504D01*
X0233125Y0176414D01*
X0233141Y0176323D01*
X0233153Y0176231D01*
X0233161Y0176139D01*
X0233165Y0176046D01*
X0233165Y0175954D01*
X0233161Y0175861D01*
X0233153Y0175769D01*
X0233141Y0175677D01*
X0233125Y0175586D01*
X0233105Y0175496D01*
X0233082Y0175406D01*
X0233055Y0175318D01*
X0233024Y0175231D01*
X0232989Y0175145D01*
X0232951Y0175061D01*
X0232909Y0174978D01*
X0232863Y0174898D01*
X0232814Y0174819D01*
X0232762Y0174742D01*
X0232707Y0174668D01*
X0232649Y0174597D01*
X0232587Y0174527D01*
X0232523Y0174461D01*
X0232456Y0174397D01*
X0232386Y0174337D01*
X0232313Y0174279D01*
X0232239Y0174224D01*
X0232162Y0174173D01*
X0232083Y0174125D01*
X0232001Y0174081D01*
X0231918Y0174039D01*
X0231834Y0174002D01*
X0231748Y0173968D01*
X0231660Y0173938D01*
X0231572Y0173912D01*
X0231482Y0173889D01*
X0231391Y0173871D01*
X0231300Y0173856D01*
X0231208Y0173845D01*
X0231116Y0173838D01*
X0231023Y0173835D01*
X0230931Y0173836D01*
X0230838Y0173841D01*
X0230746Y0173850D01*
X0230654Y0173863D01*
X0230563Y0173879D01*
X0230473Y0173900D01*
X0230384Y0173924D01*
X0230296Y0173953D01*
X0230209Y0173985D01*
X0230124Y0174020D01*
X0230040Y0174060D01*
X0229958Y0174102D01*
X0229878Y0174149D01*
X0229800Y0174198D01*
X0229724Y0174251D01*
X0229650Y0174307D01*
X0229579Y0174367D01*
X0229511Y0174429D01*
X0229445Y0174494D01*
X0229382Y0174562D01*
X0229322Y0174632D01*
X0229265Y0174705D01*
X0229211Y0174780D01*
X0229161Y0174858D01*
X0229114Y0174938D01*
X0229070Y0175019D01*
X0229030Y0175103D01*
X0228993Y0175188D01*
X0228960Y0175274D01*
X0228931Y0175362D01*
X0228906Y0175451D01*
X0228884Y0175541D01*
X0228867Y0175632D01*
X0228853Y0175723D01*
X0228843Y0175815D01*
X0228837Y0175907D01*
X0228835Y0176000D01*
X0258835Y0236000D02*
X0258837Y0236093D01*
X0258843Y0236185D01*
X0258853Y0236277D01*
X0258867Y0236368D01*
X0258884Y0236459D01*
X0258906Y0236549D01*
X0258931Y0236638D01*
X0258960Y0236726D01*
X0258993Y0236812D01*
X0259030Y0236897D01*
X0259070Y0236981D01*
X0259114Y0237062D01*
X0259161Y0237142D01*
X0259211Y0237220D01*
X0259265Y0237295D01*
X0259322Y0237368D01*
X0259382Y0237438D01*
X0259445Y0237506D01*
X0259511Y0237571D01*
X0259579Y0237633D01*
X0259650Y0237693D01*
X0259724Y0237749D01*
X0259800Y0237802D01*
X0259878Y0237851D01*
X0259958Y0237898D01*
X0260040Y0237940D01*
X0260124Y0237980D01*
X0260209Y0238015D01*
X0260296Y0238047D01*
X0260384Y0238076D01*
X0260473Y0238100D01*
X0260563Y0238121D01*
X0260654Y0238137D01*
X0260746Y0238150D01*
X0260838Y0238159D01*
X0260931Y0238164D01*
X0261023Y0238165D01*
X0261116Y0238162D01*
X0261208Y0238155D01*
X0261300Y0238144D01*
X0261391Y0238129D01*
X0261482Y0238111D01*
X0261572Y0238088D01*
X0261660Y0238062D01*
X0261748Y0238032D01*
X0261834Y0237998D01*
X0261918Y0237961D01*
X0262001Y0237919D01*
X0262082Y0237875D01*
X0262162Y0237827D01*
X0262239Y0237776D01*
X0262313Y0237721D01*
X0262386Y0237663D01*
X0262456Y0237603D01*
X0262523Y0237539D01*
X0262587Y0237473D01*
X0262649Y0237403D01*
X0262707Y0237332D01*
X0262762Y0237258D01*
X0262814Y0237181D01*
X0262863Y0237102D01*
X0262909Y0237022D01*
X0262951Y0236939D01*
X0262989Y0236855D01*
X0263024Y0236769D01*
X0263055Y0236682D01*
X0263082Y0236594D01*
X0263105Y0236504D01*
X0263125Y0236414D01*
X0263141Y0236323D01*
X0263153Y0236231D01*
X0263161Y0236139D01*
X0263165Y0236046D01*
X0263165Y0235954D01*
X0263161Y0235861D01*
X0263153Y0235769D01*
X0263141Y0235677D01*
X0263125Y0235586D01*
X0263105Y0235496D01*
X0263082Y0235406D01*
X0263055Y0235318D01*
X0263024Y0235231D01*
X0262989Y0235145D01*
X0262951Y0235061D01*
X0262909Y0234978D01*
X0262863Y0234898D01*
X0262814Y0234819D01*
X0262762Y0234742D01*
X0262707Y0234668D01*
X0262649Y0234597D01*
X0262587Y0234527D01*
X0262523Y0234461D01*
X0262456Y0234397D01*
X0262386Y0234337D01*
X0262313Y0234279D01*
X0262239Y0234224D01*
X0262162Y0234173D01*
X0262083Y0234125D01*
X0262001Y0234081D01*
X0261918Y0234039D01*
X0261834Y0234002D01*
X0261748Y0233968D01*
X0261660Y0233938D01*
X0261572Y0233912D01*
X0261482Y0233889D01*
X0261391Y0233871D01*
X0261300Y0233856D01*
X0261208Y0233845D01*
X0261116Y0233838D01*
X0261023Y0233835D01*
X0260931Y0233836D01*
X0260838Y0233841D01*
X0260746Y0233850D01*
X0260654Y0233863D01*
X0260563Y0233879D01*
X0260473Y0233900D01*
X0260384Y0233924D01*
X0260296Y0233953D01*
X0260209Y0233985D01*
X0260124Y0234020D01*
X0260040Y0234060D01*
X0259958Y0234102D01*
X0259878Y0234149D01*
X0259800Y0234198D01*
X0259724Y0234251D01*
X0259650Y0234307D01*
X0259579Y0234367D01*
X0259511Y0234429D01*
X0259445Y0234494D01*
X0259382Y0234562D01*
X0259322Y0234632D01*
X0259265Y0234705D01*
X0259211Y0234780D01*
X0259161Y0234858D01*
X0259114Y0234938D01*
X0259070Y0235019D01*
X0259030Y0235103D01*
X0258993Y0235188D01*
X0258960Y0235274D01*
X0258931Y0235362D01*
X0258906Y0235451D01*
X0258884Y0235541D01*
X0258867Y0235632D01*
X0258853Y0235723D01*
X0258843Y0235815D01*
X0258837Y0235907D01*
X0258835Y0236000D01*
D11*
X0296000Y0151000D03*
X0296000Y0141000D03*
X0296000Y0131000D03*
X0296000Y0121000D03*
X0251000Y0121000D03*
X0251000Y0111000D03*
X0251000Y0136000D03*
X0251000Y0146000D03*
D12*
X0308400Y0146000D02*
X0313600Y0146000D01*
X0313600Y0136000D02*
X0308400Y0136000D01*
X0308400Y0126000D02*
X0313600Y0126000D01*
X0313600Y0116000D02*
X0308400Y0116000D01*
X0308400Y0106000D02*
X0313600Y0106000D01*
X0313600Y0096000D02*
X0308400Y0096000D01*
X0338400Y0096000D02*
X0343600Y0096000D01*
X0343600Y0106000D02*
X0338400Y0106000D01*
X0338400Y0116000D02*
X0343600Y0116000D01*
X0343600Y0126000D02*
X0338400Y0126000D01*
X0338400Y0136000D02*
X0343600Y0136000D01*
X0343600Y0146000D02*
X0338400Y0146000D01*
X0338400Y0156000D02*
X0343600Y0156000D01*
X0343600Y0166000D02*
X0338400Y0166000D01*
X0338400Y0176000D02*
X0343600Y0176000D01*
X0343600Y0186000D02*
X0338400Y0186000D01*
X0338400Y0196000D02*
X0343600Y0196000D01*
X0343600Y0206000D02*
X0338400Y0206000D01*
X0338400Y0216000D02*
X0343600Y0216000D01*
X0343600Y0226000D02*
X0338400Y0226000D01*
X0313600Y0226000D02*
X0308400Y0226000D01*
X0308400Y0216000D02*
X0313600Y0216000D01*
X0313600Y0206000D02*
X0308400Y0206000D01*
X0308400Y0196000D02*
X0313600Y0196000D01*
X0313600Y0186000D02*
X0308400Y0186000D01*
X0308400Y0176000D02*
X0313600Y0176000D01*
X0313600Y0166000D02*
X0308400Y0166000D01*
X0308400Y0156000D02*
X0313600Y0156000D01*
D13*
X0368000Y0171000D02*
X0374000Y0171000D01*
X0374000Y0181000D02*
X0368000Y0181000D01*
X0368000Y0191000D02*
X0374000Y0191000D01*
X0374000Y0201000D02*
X0368000Y0201000D01*
X0368000Y0211000D02*
X0374000Y0211000D01*
X0374000Y0221000D02*
X0368000Y0221000D01*
X0229000Y0136000D02*
X0223000Y0136000D01*
X0223000Y0126000D02*
X0229000Y0126000D01*
X0229000Y0116000D02*
X0223000Y0116000D01*
X0251000Y0089000D02*
X0251000Y0083000D01*
X0261000Y0083000D02*
X0261000Y0089000D01*
X0271000Y0089000D02*
X0271000Y0083000D01*
D14*
X0361000Y0101000D03*
X0371000Y0101000D03*
X0371000Y0111000D03*
X0361000Y0111000D03*
X0361000Y0121000D03*
X0371000Y0121000D03*
X0371000Y0131000D03*
X0361000Y0131000D03*
D15*
X0296000Y0166000D03*
X0291000Y0181000D03*
X0266000Y0166000D03*
X0256000Y0166000D03*
X0226000Y0166000D03*
X0291000Y0211000D03*
X0266000Y0231000D03*
X0256000Y0231000D03*
X0236000Y0231000D03*
X0226000Y0231000D03*
D16*
X0273800Y0146000D02*
X0278200Y0146000D01*
X0278200Y0126000D02*
X0273800Y0126000D01*
D17*
X0261000Y0186000D03*
X0261000Y0206000D03*
X0231000Y0206000D03*
X0231000Y0186000D03*
D18*
X0253756Y0194701D02*
X0253756Y0166354D01*
X0256000Y0166000D01*
X0253756Y0159268D02*
X0246669Y0166354D01*
X0227772Y0166354D01*
X0226000Y0166000D01*
X0253756Y0159268D02*
X0279740Y0159268D01*
X0301000Y0180528D01*
X0301000Y0187614D01*
X0310449Y0197063D01*
X0311000Y0196000D01*
X0291551Y0211236D02*
X0291000Y0211000D01*
X0289189Y0211236D01*
X0286827Y0211236D01*
X0263205Y0187614D01*
X0261000Y0186000D01*
X0253756Y0194701D02*
X0227772Y0220685D01*
X0227772Y0230134D01*
X0226000Y0231000D01*
X0236000Y0231000D02*
X0237220Y0230134D01*
X0253756Y0230134D01*
X0256000Y0231000D01*
X0291551Y0211236D02*
X0305724Y0225409D01*
X0310449Y0225409D01*
X0311000Y0226000D01*
X0312811Y0218323D02*
X0311000Y0216000D01*
X0312811Y0218323D02*
X0319898Y0218323D01*
X0334071Y0232496D01*
X0348244Y0232496D01*
X0360055Y0220685D01*
X0360055Y0197063D01*
X0364780Y0192339D01*
X0369504Y0192339D01*
X0371000Y0191000D01*
X0355331Y0163992D02*
X0341157Y0163992D01*
X0341000Y0166000D01*
X0338795Y0156906D02*
X0341000Y0156000D01*
X0341157Y0154543D01*
X0341157Y0147457D01*
X0341000Y0146000D01*
X0341157Y0138008D02*
X0341000Y0136000D01*
X0341157Y0138008D02*
X0374228Y0138008D01*
X0378953Y0133283D01*
X0378953Y0128559D01*
X0371866Y0121472D01*
X0371000Y0121000D01*
X0361000Y0121000D02*
X0360055Y0121472D01*
X0355331Y0116748D01*
X0341157Y0116748D01*
X0341000Y0116000D01*
X0341157Y0107299D02*
X0341000Y0106000D01*
X0341157Y0107299D02*
X0357693Y0107299D01*
X0360055Y0109661D01*
X0361000Y0111000D01*
X0361000Y0101000D02*
X0360055Y0100213D01*
X0334071Y0074228D01*
X0267929Y0074228D01*
X0263205Y0078953D01*
X0263205Y0083677D01*
X0261000Y0086000D01*
X0270291Y0086039D02*
X0270291Y0090764D01*
X0251394Y0109661D01*
X0251000Y0111000D01*
X0249031Y0119110D02*
X0251000Y0121000D01*
X0249031Y0119110D02*
X0237220Y0107299D01*
X0234858Y0107299D01*
X0249031Y0093126D01*
X0249031Y0086039D01*
X0251000Y0086000D01*
X0270291Y0086039D02*
X0271000Y0086000D01*
X0296276Y0097850D02*
X0296276Y0119110D01*
X0296000Y0121000D01*
X0293913Y0121472D01*
X0291551Y0123835D01*
X0277378Y0123835D01*
X0276000Y0126000D01*
X0296000Y0131000D02*
X0296276Y0133283D01*
X0296276Y0140370D01*
X0296000Y0141000D01*
X0291551Y0147457D02*
X0293913Y0149819D01*
X0296000Y0151000D01*
X0296276Y0152181D01*
X0301000Y0147457D01*
X0310449Y0147457D01*
X0311000Y0146000D01*
X0311000Y0136000D02*
X0312811Y0135646D01*
X0315173Y0135646D01*
X0322260Y0128559D01*
X0322260Y0095488D01*
X0315173Y0088402D01*
X0305724Y0088402D01*
X0296276Y0097850D01*
X0234858Y0107299D02*
X0227772Y0114386D01*
X0226000Y0116000D01*
X0227772Y0135646D02*
X0226000Y0136000D01*
X0227772Y0135646D02*
X0249031Y0135646D01*
X0251000Y0136000D01*
X0276000Y0146000D02*
X0277378Y0147457D01*
X0291551Y0147457D01*
X0311000Y0166000D02*
X0312811Y0166354D01*
X0322260Y0156906D01*
X0338795Y0156906D01*
X0355331Y0163992D02*
X0383677Y0135646D01*
X0383677Y0112024D01*
X0374228Y0102575D01*
X0371866Y0102575D01*
X0371000Y0101000D01*
X0267929Y0166354D02*
X0266000Y0166000D01*
X0267929Y0166354D02*
X0275016Y0166354D01*
X0289189Y0180528D01*
X0291000Y0181000D01*
M02*
