G75*
%MOIN*%
%OFA0B0*%
%FSLAX25Y25*%
%IPPOS*%
%LPD*%
%AMOC8*
5,1,8,0,0,1.08239X$1,22.5*
%
%ADD10C,0.05200*%
%ADD11C,0.06000*%
%ADD12C,0.04400*%
%ADD13OC8,0.05200*%
%ADD14R,0.05906X0.05906*%
%ADD15C,0.01969*%
%ADD16C,0.04000*%
D10*
X0308400Y0126000D02*
X0313600Y0126000D01*
X0313600Y0136000D02*
X0308400Y0136000D01*
X0308400Y0146000D02*
X0313600Y0146000D01*
X0313600Y0156000D02*
X0308400Y0156000D01*
X0308400Y0166000D02*
X0313600Y0166000D01*
X0313600Y0176000D02*
X0308400Y0176000D01*
X0308400Y0186000D02*
X0313600Y0186000D01*
X0313600Y0196000D02*
X0308400Y0196000D01*
X0308400Y0206000D02*
X0313600Y0206000D01*
X0313600Y0216000D02*
X0308400Y0216000D01*
X0308400Y0226000D02*
X0313600Y0226000D01*
X0313600Y0236000D02*
X0308400Y0236000D01*
X0308400Y0246000D02*
X0313600Y0246000D01*
X0313600Y0256000D02*
X0308400Y0256000D01*
X0338400Y0256000D02*
X0343600Y0256000D01*
X0343600Y0246000D02*
X0338400Y0246000D01*
X0338400Y0236000D02*
X0343600Y0236000D01*
X0343600Y0226000D02*
X0338400Y0226000D01*
X0338400Y0216000D02*
X0343600Y0216000D01*
X0343600Y0206000D02*
X0338400Y0206000D01*
X0338400Y0196000D02*
X0343600Y0196000D01*
X0343600Y0186000D02*
X0338400Y0186000D01*
X0338400Y0176000D02*
X0343600Y0176000D01*
X0343600Y0166000D02*
X0338400Y0166000D01*
X0338400Y0156000D02*
X0343600Y0156000D01*
X0343600Y0146000D02*
X0338400Y0146000D01*
X0338400Y0136000D02*
X0343600Y0136000D01*
X0343600Y0126000D02*
X0338400Y0126000D01*
D11*
X0246000Y0094000D02*
X0246000Y0088000D01*
X0256000Y0088000D02*
X0256000Y0094000D01*
X0266000Y0094000D02*
X0266000Y0088000D01*
X0276000Y0088000D02*
X0276000Y0094000D01*
X0286000Y0094000D02*
X0286000Y0088000D01*
X0296000Y0088000D02*
X0296000Y0094000D01*
X0306000Y0094000D02*
X0306000Y0088000D01*
X0316000Y0088000D02*
X0316000Y0094000D01*
X0326000Y0094000D02*
X0326000Y0088000D01*
X0336000Y0088000D02*
X0336000Y0094000D01*
X0289000Y0126000D02*
X0283000Y0126000D01*
X0283000Y0136000D02*
X0289000Y0136000D01*
X0289000Y0146000D02*
X0283000Y0146000D01*
X0283000Y0156000D02*
X0289000Y0156000D01*
X0289000Y0166000D02*
X0283000Y0166000D01*
X0283000Y0176000D02*
X0289000Y0176000D01*
X0289000Y0186000D02*
X0283000Y0186000D01*
X0283000Y0196000D02*
X0289000Y0196000D01*
X0286000Y0283000D02*
X0286000Y0289000D01*
X0296000Y0289000D02*
X0296000Y0283000D01*
X0306000Y0283000D02*
X0306000Y0289000D01*
X0316000Y0289000D02*
X0316000Y0283000D01*
X0326000Y0283000D02*
X0326000Y0289000D01*
X0336000Y0289000D02*
X0336000Y0283000D01*
X0276000Y0283000D02*
X0276000Y0289000D01*
X0266000Y0289000D02*
X0266000Y0283000D01*
X0256000Y0283000D02*
X0256000Y0289000D01*
X0246000Y0289000D02*
X0246000Y0283000D01*
D12*
X0258800Y0191000D02*
X0263200Y0191000D01*
X0263200Y0171000D02*
X0258800Y0171000D01*
D13*
X0261000Y0151000D03*
X0261000Y0121000D03*
D14*
X0266000Y0221000D03*
X0286000Y0221000D03*
X0286000Y0251000D03*
X0266000Y0251000D03*
D15*
X0277378Y0241945D02*
X0284465Y0249031D01*
X0286000Y0251000D01*
X0277378Y0241945D02*
X0277378Y0218323D01*
X0296276Y0199425D01*
X0296276Y0197063D01*
X0308087Y0185252D01*
X0311000Y0186000D01*
X0310449Y0185252D01*
X0308087Y0185252D01*
X0296276Y0173441D01*
X0296276Y0152181D01*
X0291551Y0147457D01*
X0286000Y0146000D01*
X0286827Y0147457D01*
X0291551Y0147457D01*
X0296276Y0142732D01*
X0296276Y0121472D01*
X0291551Y0116748D01*
X0277378Y0116748D01*
X0256118Y0095488D01*
X0256118Y0093126D01*
X0256000Y0091000D01*
X0246669Y0090764D02*
X0246669Y0086039D01*
X0253756Y0078953D01*
X0338795Y0078953D01*
X0350606Y0090764D01*
X0350606Y0178165D01*
X0343520Y0185252D01*
X0341157Y0185252D01*
X0341000Y0186000D01*
X0261000Y0191000D02*
X0260843Y0189976D01*
X0251394Y0180528D01*
X0261000Y0151000D02*
X0263205Y0149819D01*
X0263205Y0145094D01*
X0279740Y0128559D01*
X0246669Y0095488D01*
X0246669Y0093126D01*
X0246000Y0091000D01*
X0246669Y0090764D01*
X0284465Y0123835D02*
X0279740Y0128559D01*
X0284465Y0123835D02*
X0286000Y0126000D01*
X0331709Y0121472D02*
X0331709Y0277378D01*
X0334071Y0279740D01*
X0334071Y0284465D01*
X0336000Y0286000D01*
X0326984Y0284465D02*
X0326000Y0286000D01*
X0326984Y0284465D02*
X0326984Y0093126D01*
X0326000Y0091000D01*
X0334071Y0093126D02*
X0336000Y0091000D01*
X0334071Y0093126D02*
X0334071Y0119110D01*
X0331709Y0121472D01*
D16*
X0251394Y0180528D03*
M02*
