%
M48
M72
T01C0.02400
T02C0.03200
T03C0.03543
T04C0.04000
T05C0.04331
%
T01
X246000Y156000
X246000Y176000
X345882Y152181
T02
X326000Y151000
X326000Y161000
X326000Y171000
X326000Y181000
X326000Y191000
X326000Y201000
X326000Y211000
X326000Y221000
X326000Y231000
X326000Y241000
X326000Y251000
X296000Y251000
X296000Y241000
X296000Y231000
X296000Y221000
X296000Y211000
X296000Y201000
X296000Y191000
X296000Y181000
X296000Y171000
X296000Y161000
X296000Y151000
X296000Y141000
X296000Y131000
X296000Y121000
X276000Y131000
X266000Y131000
X246000Y131000
X236000Y131000
X271000Y151000
X271000Y161000
X271000Y176000
X271000Y186000
X251000Y201000
X266000Y206000
X276000Y206000
X221000Y201000
X221000Y191000
X221000Y161000
X326000Y141000
X326000Y131000
X326000Y121000
T03
X256000Y226000
X256000Y246000
X226000Y246000
X226000Y226000
T04
X211000Y126000
X211000Y136000
X211000Y146000
X241000Y101000
X251000Y101000
X261000Y101000
X356000Y121000
X366000Y121000
X366000Y131000
X356000Y131000
X356000Y141000
X366000Y141000
X366000Y151000
X356000Y151000
X361000Y176000
X361000Y186000
X361000Y196000
X361000Y206000
X361000Y216000
X361000Y226000
T05
X256000Y276000
X226000Y216000
M30
