G75*
%MOIN*%
%OFA0B0*%
%FSLAX25Y25*%
%IPPOS*%
%LPD*%
%AMOC8*
5,1,8,0,0,1.08239X$1,22.5*
%
%ADD10OC8,0.06300*%
%ADD11C,0.05200*%
%ADD12C,0.06000*%
%ADD13OC8,0.06000*%
%ADD14OC8,0.05200*%
%ADD15C,0.04400*%
%ADD16R,0.05906X0.05906*%
%ADD17C,0.01969*%
%ADD18C,0.04000*%
D10*
X0236000Y0131000D03*
X0246000Y0131000D03*
X0266000Y0131000D03*
X0276000Y0131000D03*
X0271000Y0151000D03*
X0271000Y0161000D03*
X0271000Y0176000D03*
X0271000Y0186000D03*
D11*
X0293400Y0181000D02*
X0298600Y0181000D01*
X0298600Y0171000D02*
X0293400Y0171000D01*
X0293400Y0161000D02*
X0298600Y0161000D01*
X0298600Y0151000D02*
X0293400Y0151000D01*
X0293400Y0141000D02*
X0298600Y0141000D01*
X0298600Y0131000D02*
X0293400Y0131000D01*
X0293400Y0121000D02*
X0298600Y0121000D01*
X0323400Y0121000D02*
X0328600Y0121000D01*
X0328600Y0131000D02*
X0323400Y0131000D01*
X0323400Y0141000D02*
X0328600Y0141000D01*
X0328600Y0151000D02*
X0323400Y0151000D01*
X0323400Y0161000D02*
X0328600Y0161000D01*
X0328600Y0171000D02*
X0323400Y0171000D01*
X0323400Y0181000D02*
X0328600Y0181000D01*
X0328600Y0191000D02*
X0323400Y0191000D01*
X0323400Y0201000D02*
X0328600Y0201000D01*
X0328600Y0211000D02*
X0323400Y0211000D01*
X0323400Y0221000D02*
X0328600Y0221000D01*
X0328600Y0231000D02*
X0323400Y0231000D01*
X0323400Y0241000D02*
X0328600Y0241000D01*
X0328600Y0251000D02*
X0323400Y0251000D01*
X0298600Y0251000D02*
X0293400Y0251000D01*
X0293400Y0241000D02*
X0298600Y0241000D01*
X0298600Y0231000D02*
X0293400Y0231000D01*
X0293400Y0221000D02*
X0298600Y0221000D01*
X0298600Y0211000D02*
X0293400Y0211000D01*
X0293400Y0201000D02*
X0298600Y0201000D01*
X0298600Y0191000D02*
X0293400Y0191000D01*
D12*
X0214000Y0126000D02*
X0208000Y0126000D01*
X0208000Y0136000D02*
X0214000Y0136000D01*
X0214000Y0146000D02*
X0208000Y0146000D01*
X0241000Y0104000D02*
X0241000Y0098000D01*
X0251000Y0098000D02*
X0251000Y0104000D01*
X0261000Y0104000D02*
X0261000Y0098000D01*
X0358000Y0176000D02*
X0364000Y0176000D01*
X0364000Y0186000D02*
X0358000Y0186000D01*
X0358000Y0196000D02*
X0364000Y0196000D01*
X0364000Y0206000D02*
X0358000Y0206000D01*
X0358000Y0216000D02*
X0364000Y0216000D01*
X0364000Y0226000D02*
X0358000Y0226000D01*
D13*
X0356000Y0151000D03*
X0366000Y0151000D03*
X0366000Y0141000D03*
X0356000Y0141000D03*
X0356000Y0131000D03*
X0366000Y0131000D03*
X0366000Y0121000D03*
X0356000Y0121000D03*
D14*
X0251000Y0201000D03*
X0266000Y0206000D03*
X0276000Y0206000D03*
X0221000Y0201000D03*
X0221000Y0191000D03*
X0221000Y0161000D03*
D15*
X0243800Y0156000D02*
X0248200Y0156000D01*
X0248200Y0176000D02*
X0243800Y0176000D01*
D16*
X0256000Y0226000D03*
X0256000Y0246000D03*
X0226000Y0246000D03*
X0226000Y0226000D03*
D17*
X0227772Y0244307D02*
X0226000Y0246000D01*
X0227772Y0244307D02*
X0249031Y0223047D01*
X0249031Y0220685D01*
X0256118Y0213598D01*
X0267929Y0213598D01*
X0275016Y0206512D01*
X0276000Y0206000D01*
X0284465Y0199425D02*
X0293913Y0189976D01*
X0296000Y0191000D01*
X0296276Y0192339D01*
X0317535Y0171079D01*
X0324622Y0171079D01*
X0326000Y0171000D01*
X0345882Y0152181D02*
X0352969Y0159268D01*
X0357693Y0159268D01*
X0364780Y0152181D01*
X0366000Y0151000D01*
X0360055Y0175803D02*
X0336433Y0152181D01*
X0336433Y0119110D01*
X0329346Y0112024D01*
X0249031Y0112024D01*
X0239583Y0102575D01*
X0241000Y0101000D01*
X0232496Y0095488D02*
X0232496Y0107299D01*
X0244307Y0119110D01*
X0293913Y0119110D01*
X0296000Y0121000D01*
X0277378Y0133283D02*
X0276000Y0131000D01*
X0277378Y0133283D02*
X0277378Y0147457D01*
X0279740Y0149819D01*
X0279740Y0152181D01*
X0272654Y0159268D01*
X0271000Y0161000D01*
X0272654Y0161630D01*
X0293913Y0182890D01*
X0296000Y0181000D01*
X0284465Y0199425D02*
X0251394Y0199425D01*
X0251000Y0201000D01*
X0249031Y0199425D01*
X0223047Y0173441D01*
X0223047Y0161630D01*
X0221000Y0161000D01*
X0263205Y0102575D02*
X0261000Y0101000D01*
X0263205Y0102575D02*
X0348244Y0102575D01*
X0364780Y0119110D01*
X0366000Y0121000D01*
X0374228Y0119110D02*
X0374228Y0123835D01*
X0367142Y0130921D01*
X0366000Y0131000D01*
X0374228Y0119110D02*
X0345882Y0090764D01*
X0237220Y0090764D01*
X0232496Y0095488D01*
X0360055Y0175803D02*
X0361000Y0176000D01*
X0361000Y0186000D02*
X0360055Y0187614D01*
X0355331Y0187614D01*
X0350606Y0192339D01*
X0350606Y0239583D01*
X0331709Y0258480D01*
X0319898Y0258480D01*
X0315173Y0253756D01*
X0315173Y0246669D01*
X0301000Y0232496D01*
X0296276Y0232496D01*
X0296000Y0231000D01*
D18*
X0345882Y0152181D03*
M02*
