G75*
%MOIN*%
%OFA0B0*%
%FSLAX25Y25*%
%IPPOS*%
%LPD*%
%AMOC8*
5,1,8,0,0,1.08239X$1,22.5*
%
%ADD10C,0.00600*%
%ADD11C,0.01600*%
%ADD12C,0.01000*%
%ADD13R,0.02000X0.02000*%
%ADD14C,0.00200*%
%ADD15C,0.02000*%
%ADD16R,0.01500X0.02000*%
%ADD17R,0.02000X0.01500*%
%ADD18C,0.00800*%
D10*
X0206000Y0123500D02*
X0206000Y0128500D01*
X0208500Y0131000D01*
X0206000Y0133500D01*
X0206000Y0138500D01*
X0208500Y0141000D01*
X0206000Y0143500D01*
X0206000Y0148500D01*
X0208500Y0151000D01*
X0213500Y0151000D01*
X0216000Y0148500D01*
X0216000Y0143500D01*
X0213500Y0141000D01*
X0216000Y0138500D01*
X0216000Y0133500D01*
X0213500Y0131000D01*
X0216000Y0128500D01*
X0216000Y0123500D01*
X0213500Y0121000D01*
X0208500Y0121000D01*
X0206000Y0123500D01*
X0213409Y0123570D02*
X0215544Y0125705D01*
X0215544Y0119300D01*
X0213409Y0119300D02*
X0217679Y0119300D01*
X0219854Y0119300D02*
X0224125Y0123570D01*
X0224125Y0124638D01*
X0223057Y0125705D01*
X0220922Y0125705D01*
X0219854Y0124638D01*
X0219854Y0119300D02*
X0224125Y0119300D01*
X0232500Y0126000D02*
X0249500Y0126000D01*
X0249560Y0126002D01*
X0249621Y0126007D01*
X0249680Y0126016D01*
X0249739Y0126029D01*
X0249798Y0126045D01*
X0249855Y0126065D01*
X0249910Y0126088D01*
X0249965Y0126115D01*
X0250017Y0126144D01*
X0250068Y0126177D01*
X0250117Y0126213D01*
X0250163Y0126251D01*
X0250207Y0126293D01*
X0250249Y0126337D01*
X0250287Y0126383D01*
X0250323Y0126432D01*
X0250356Y0126483D01*
X0250385Y0126535D01*
X0250412Y0126590D01*
X0250435Y0126645D01*
X0250455Y0126702D01*
X0250471Y0126761D01*
X0250484Y0126820D01*
X0250493Y0126879D01*
X0250498Y0126940D01*
X0250500Y0127000D01*
X0250500Y0135000D01*
X0250498Y0135060D01*
X0250493Y0135121D01*
X0250484Y0135180D01*
X0250471Y0135239D01*
X0250455Y0135298D01*
X0250435Y0135355D01*
X0250412Y0135410D01*
X0250385Y0135465D01*
X0250356Y0135517D01*
X0250323Y0135568D01*
X0250287Y0135617D01*
X0250249Y0135663D01*
X0250207Y0135707D01*
X0250163Y0135749D01*
X0250117Y0135787D01*
X0250068Y0135823D01*
X0250017Y0135856D01*
X0249965Y0135885D01*
X0249910Y0135912D01*
X0249855Y0135935D01*
X0249798Y0135955D01*
X0249739Y0135971D01*
X0249680Y0135984D01*
X0249621Y0135993D01*
X0249560Y0135998D01*
X0249500Y0136000D01*
X0232500Y0136000D01*
X0232440Y0135998D01*
X0232379Y0135993D01*
X0232320Y0135984D01*
X0232261Y0135971D01*
X0232202Y0135955D01*
X0232145Y0135935D01*
X0232090Y0135912D01*
X0232035Y0135885D01*
X0231983Y0135856D01*
X0231932Y0135823D01*
X0231883Y0135787D01*
X0231837Y0135749D01*
X0231793Y0135707D01*
X0231751Y0135663D01*
X0231713Y0135617D01*
X0231677Y0135568D01*
X0231644Y0135517D01*
X0231615Y0135465D01*
X0231588Y0135410D01*
X0231565Y0135355D01*
X0231545Y0135298D01*
X0231529Y0135239D01*
X0231516Y0135180D01*
X0231507Y0135121D01*
X0231502Y0135060D01*
X0231500Y0135000D01*
X0231500Y0127000D01*
X0231502Y0126940D01*
X0231507Y0126879D01*
X0231516Y0126820D01*
X0231529Y0126761D01*
X0231545Y0126702D01*
X0231565Y0126645D01*
X0231588Y0126590D01*
X0231615Y0126535D01*
X0231644Y0126483D01*
X0231677Y0126432D01*
X0231713Y0126383D01*
X0231751Y0126337D01*
X0231793Y0126293D01*
X0231837Y0126251D01*
X0231883Y0126213D01*
X0231932Y0126177D01*
X0231983Y0126144D01*
X0232035Y0126115D01*
X0232090Y0126088D01*
X0232145Y0126065D01*
X0232202Y0126045D01*
X0232261Y0126029D01*
X0232320Y0126016D01*
X0232379Y0126007D01*
X0232440Y0126002D01*
X0232500Y0126000D01*
X0236000Y0131000D02*
X0239500Y0131000D01*
X0240000Y0131000D01*
X0242000Y0131000D02*
X0242500Y0131000D01*
X0246000Y0131000D01*
X0261500Y0135000D02*
X0261500Y0127000D01*
X0261502Y0126940D01*
X0261507Y0126879D01*
X0261516Y0126820D01*
X0261529Y0126761D01*
X0261545Y0126702D01*
X0261565Y0126645D01*
X0261588Y0126590D01*
X0261615Y0126535D01*
X0261644Y0126483D01*
X0261677Y0126432D01*
X0261713Y0126383D01*
X0261751Y0126337D01*
X0261793Y0126293D01*
X0261837Y0126251D01*
X0261883Y0126213D01*
X0261932Y0126177D01*
X0261983Y0126144D01*
X0262035Y0126115D01*
X0262090Y0126088D01*
X0262145Y0126065D01*
X0262202Y0126045D01*
X0262261Y0126029D01*
X0262320Y0126016D01*
X0262379Y0126007D01*
X0262440Y0126002D01*
X0262500Y0126000D01*
X0279500Y0126000D01*
X0279560Y0126002D01*
X0279621Y0126007D01*
X0279680Y0126016D01*
X0279739Y0126029D01*
X0279798Y0126045D01*
X0279855Y0126065D01*
X0279910Y0126088D01*
X0279965Y0126115D01*
X0280017Y0126144D01*
X0280068Y0126177D01*
X0280117Y0126213D01*
X0280163Y0126251D01*
X0280207Y0126293D01*
X0280249Y0126337D01*
X0280287Y0126383D01*
X0280323Y0126432D01*
X0280356Y0126483D01*
X0280385Y0126535D01*
X0280412Y0126590D01*
X0280435Y0126645D01*
X0280455Y0126702D01*
X0280471Y0126761D01*
X0280484Y0126820D01*
X0280493Y0126879D01*
X0280498Y0126940D01*
X0280500Y0127000D01*
X0280500Y0135000D01*
X0280498Y0135060D01*
X0280493Y0135121D01*
X0280484Y0135180D01*
X0280471Y0135239D01*
X0280455Y0135298D01*
X0280435Y0135355D01*
X0280412Y0135410D01*
X0280385Y0135465D01*
X0280356Y0135517D01*
X0280323Y0135568D01*
X0280287Y0135617D01*
X0280249Y0135663D01*
X0280207Y0135707D01*
X0280163Y0135749D01*
X0280117Y0135787D01*
X0280068Y0135823D01*
X0280017Y0135856D01*
X0279965Y0135885D01*
X0279910Y0135912D01*
X0279855Y0135935D01*
X0279798Y0135955D01*
X0279739Y0135971D01*
X0279680Y0135984D01*
X0279621Y0135993D01*
X0279560Y0135998D01*
X0279500Y0136000D01*
X0262500Y0136000D01*
X0262440Y0135998D01*
X0262379Y0135993D01*
X0262320Y0135984D01*
X0262261Y0135971D01*
X0262202Y0135955D01*
X0262145Y0135935D01*
X0262090Y0135912D01*
X0262035Y0135885D01*
X0261983Y0135856D01*
X0261932Y0135823D01*
X0261883Y0135787D01*
X0261837Y0135749D01*
X0261793Y0135707D01*
X0261751Y0135663D01*
X0261713Y0135617D01*
X0261677Y0135568D01*
X0261644Y0135517D01*
X0261615Y0135465D01*
X0261588Y0135410D01*
X0261565Y0135355D01*
X0261545Y0135298D01*
X0261529Y0135239D01*
X0261516Y0135180D01*
X0261507Y0135121D01*
X0261502Y0135060D01*
X0261500Y0135000D01*
X0266000Y0131000D02*
X0269500Y0131000D01*
X0270000Y0131000D01*
X0272000Y0131000D02*
X0272500Y0131000D01*
X0276000Y0131000D01*
X0275000Y0146500D02*
X0267000Y0146500D01*
X0266940Y0146502D01*
X0266879Y0146507D01*
X0266820Y0146516D01*
X0266761Y0146529D01*
X0266702Y0146545D01*
X0266645Y0146565D01*
X0266590Y0146588D01*
X0266535Y0146615D01*
X0266483Y0146644D01*
X0266432Y0146677D01*
X0266383Y0146713D01*
X0266337Y0146751D01*
X0266293Y0146793D01*
X0266251Y0146837D01*
X0266213Y0146883D01*
X0266177Y0146932D01*
X0266144Y0146983D01*
X0266115Y0147035D01*
X0266088Y0147090D01*
X0266065Y0147145D01*
X0266045Y0147202D01*
X0266029Y0147261D01*
X0266016Y0147320D01*
X0266007Y0147379D01*
X0266002Y0147440D01*
X0266000Y0147500D01*
X0266000Y0164500D01*
X0266002Y0164560D01*
X0266007Y0164621D01*
X0266016Y0164680D01*
X0266029Y0164739D01*
X0266045Y0164798D01*
X0266065Y0164855D01*
X0266088Y0164910D01*
X0266115Y0164965D01*
X0266144Y0165017D01*
X0266177Y0165068D01*
X0266213Y0165117D01*
X0266251Y0165163D01*
X0266293Y0165207D01*
X0266337Y0165249D01*
X0266383Y0165287D01*
X0266432Y0165323D01*
X0266483Y0165356D01*
X0266535Y0165385D01*
X0266590Y0165412D01*
X0266645Y0165435D01*
X0266702Y0165455D01*
X0266761Y0165471D01*
X0266820Y0165484D01*
X0266879Y0165493D01*
X0266940Y0165498D01*
X0267000Y0165500D01*
X0275000Y0165500D01*
X0275060Y0165498D01*
X0275121Y0165493D01*
X0275180Y0165484D01*
X0275239Y0165471D01*
X0275298Y0165455D01*
X0275355Y0165435D01*
X0275410Y0165412D01*
X0275465Y0165385D01*
X0275517Y0165356D01*
X0275568Y0165323D01*
X0275617Y0165287D01*
X0275663Y0165249D01*
X0275707Y0165207D01*
X0275749Y0165163D01*
X0275787Y0165117D01*
X0275823Y0165068D01*
X0275856Y0165017D01*
X0275885Y0164965D01*
X0275912Y0164910D01*
X0275935Y0164855D01*
X0275955Y0164798D01*
X0275971Y0164739D01*
X0275984Y0164680D01*
X0275993Y0164621D01*
X0275998Y0164560D01*
X0276000Y0164500D01*
X0276000Y0147500D01*
X0275998Y0147440D01*
X0275993Y0147379D01*
X0275984Y0147320D01*
X0275971Y0147261D01*
X0275955Y0147202D01*
X0275935Y0147145D01*
X0275912Y0147090D01*
X0275885Y0147035D01*
X0275856Y0146983D01*
X0275823Y0146932D01*
X0275787Y0146883D01*
X0275749Y0146837D01*
X0275707Y0146793D01*
X0275663Y0146751D01*
X0275617Y0146713D01*
X0275568Y0146677D01*
X0275517Y0146644D01*
X0275465Y0146615D01*
X0275410Y0146588D01*
X0275355Y0146565D01*
X0275298Y0146545D01*
X0275239Y0146529D01*
X0275180Y0146516D01*
X0275121Y0146507D01*
X0275060Y0146502D01*
X0275000Y0146500D01*
X0271000Y0151000D02*
X0271000Y0154500D01*
X0271000Y0155000D01*
X0271000Y0157000D02*
X0271000Y0157500D01*
X0271000Y0161000D01*
X0255000Y0152500D02*
X0255000Y0179500D01*
X0254997Y0179719D01*
X0254989Y0179938D01*
X0254976Y0180157D01*
X0254957Y0180375D01*
X0254933Y0180593D01*
X0254904Y0180810D01*
X0254870Y0181027D01*
X0254830Y0181242D01*
X0254785Y0181457D01*
X0254734Y0181670D01*
X0254679Y0181882D01*
X0254618Y0182093D01*
X0254553Y0182302D01*
X0254482Y0182509D01*
X0254406Y0182715D01*
X0254325Y0182919D01*
X0254240Y0183121D01*
X0254149Y0183320D01*
X0254054Y0183517D01*
X0253953Y0183712D01*
X0253848Y0183905D01*
X0253739Y0184095D01*
X0253625Y0184282D01*
X0253506Y0184466D01*
X0253383Y0184647D01*
X0253255Y0184825D01*
X0253123Y0185001D01*
X0252987Y0185172D01*
X0252847Y0185341D01*
X0252703Y0185506D01*
X0252555Y0185667D01*
X0252403Y0185825D01*
X0252247Y0185979D01*
X0252087Y0186129D01*
X0251924Y0186276D01*
X0251757Y0186418D01*
X0251587Y0186556D01*
X0251413Y0186690D01*
X0251237Y0186820D01*
X0251057Y0186945D01*
X0250874Y0187066D01*
X0250688Y0187182D01*
X0250500Y0187294D01*
X0250309Y0187401D01*
X0250115Y0187504D01*
X0249919Y0187602D01*
X0249721Y0187695D01*
X0249520Y0187783D01*
X0249317Y0187866D01*
X0249112Y0187945D01*
X0248906Y0188018D01*
X0248698Y0188086D01*
X0248488Y0188149D01*
X0248276Y0188207D01*
X0248064Y0188260D01*
X0247850Y0188308D01*
X0247635Y0188350D01*
X0247419Y0188387D01*
X0247202Y0188419D01*
X0246984Y0188446D01*
X0246766Y0188467D01*
X0246548Y0188483D01*
X0246329Y0188494D01*
X0246110Y0188499D01*
X0245890Y0188499D01*
X0245671Y0188494D01*
X0245452Y0188483D01*
X0245234Y0188467D01*
X0245016Y0188446D01*
X0244798Y0188419D01*
X0244581Y0188387D01*
X0244365Y0188350D01*
X0244150Y0188308D01*
X0243936Y0188260D01*
X0243724Y0188207D01*
X0243512Y0188149D01*
X0243302Y0188086D01*
X0243094Y0188018D01*
X0242888Y0187945D01*
X0242683Y0187866D01*
X0242480Y0187783D01*
X0242279Y0187695D01*
X0242081Y0187602D01*
X0241885Y0187504D01*
X0241691Y0187401D01*
X0241500Y0187294D01*
X0241312Y0187182D01*
X0241126Y0187066D01*
X0240943Y0186945D01*
X0240763Y0186820D01*
X0240587Y0186690D01*
X0240413Y0186556D01*
X0240243Y0186418D01*
X0240076Y0186276D01*
X0239913Y0186129D01*
X0239753Y0185979D01*
X0239597Y0185825D01*
X0239445Y0185667D01*
X0239297Y0185506D01*
X0239153Y0185341D01*
X0239013Y0185172D01*
X0238877Y0185001D01*
X0238745Y0184825D01*
X0238617Y0184647D01*
X0238494Y0184466D01*
X0238375Y0184282D01*
X0238261Y0184095D01*
X0238152Y0183905D01*
X0238047Y0183712D01*
X0237946Y0183517D01*
X0237851Y0183320D01*
X0237760Y0183121D01*
X0237675Y0182919D01*
X0237594Y0182715D01*
X0237518Y0182509D01*
X0237447Y0182302D01*
X0237382Y0182093D01*
X0237321Y0181882D01*
X0237266Y0181670D01*
X0237215Y0181457D01*
X0237170Y0181242D01*
X0237130Y0181027D01*
X0237096Y0180810D01*
X0237067Y0180593D01*
X0237043Y0180375D01*
X0237024Y0180157D01*
X0237011Y0179938D01*
X0237003Y0179719D01*
X0237000Y0179500D01*
X0237000Y0152500D01*
X0237003Y0152281D01*
X0237011Y0152062D01*
X0237024Y0151843D01*
X0237043Y0151625D01*
X0237067Y0151407D01*
X0237096Y0151190D01*
X0237130Y0150973D01*
X0237170Y0150758D01*
X0237215Y0150543D01*
X0237266Y0150330D01*
X0237321Y0150118D01*
X0237382Y0149907D01*
X0237447Y0149698D01*
X0237518Y0149491D01*
X0237594Y0149285D01*
X0237675Y0149081D01*
X0237760Y0148879D01*
X0237851Y0148680D01*
X0237946Y0148483D01*
X0238047Y0148288D01*
X0238152Y0148095D01*
X0238261Y0147905D01*
X0238375Y0147718D01*
X0238494Y0147534D01*
X0238617Y0147353D01*
X0238745Y0147175D01*
X0238877Y0146999D01*
X0239013Y0146828D01*
X0239153Y0146659D01*
X0239297Y0146494D01*
X0239445Y0146333D01*
X0239597Y0146175D01*
X0239753Y0146021D01*
X0239913Y0145871D01*
X0240076Y0145724D01*
X0240243Y0145582D01*
X0240413Y0145444D01*
X0240587Y0145310D01*
X0240763Y0145180D01*
X0240943Y0145055D01*
X0241126Y0144934D01*
X0241312Y0144818D01*
X0241500Y0144706D01*
X0241691Y0144599D01*
X0241885Y0144496D01*
X0242081Y0144398D01*
X0242279Y0144305D01*
X0242480Y0144217D01*
X0242683Y0144134D01*
X0242888Y0144055D01*
X0243094Y0143982D01*
X0243302Y0143914D01*
X0243512Y0143851D01*
X0243724Y0143793D01*
X0243936Y0143740D01*
X0244150Y0143692D01*
X0244365Y0143650D01*
X0244581Y0143613D01*
X0244798Y0143581D01*
X0245016Y0143554D01*
X0245234Y0143533D01*
X0245452Y0143517D01*
X0245671Y0143506D01*
X0245890Y0143501D01*
X0246110Y0143501D01*
X0246329Y0143506D01*
X0246548Y0143517D01*
X0246766Y0143533D01*
X0246984Y0143554D01*
X0247202Y0143581D01*
X0247419Y0143613D01*
X0247635Y0143650D01*
X0247850Y0143692D01*
X0248064Y0143740D01*
X0248276Y0143793D01*
X0248488Y0143851D01*
X0248698Y0143914D01*
X0248906Y0143982D01*
X0249112Y0144055D01*
X0249317Y0144134D01*
X0249520Y0144217D01*
X0249721Y0144305D01*
X0249919Y0144398D01*
X0250115Y0144496D01*
X0250309Y0144599D01*
X0250500Y0144706D01*
X0250688Y0144818D01*
X0250874Y0144934D01*
X0251057Y0145055D01*
X0251237Y0145180D01*
X0251413Y0145310D01*
X0251587Y0145444D01*
X0251757Y0145582D01*
X0251924Y0145724D01*
X0252087Y0145871D01*
X0252247Y0146021D01*
X0252403Y0146175D01*
X0252555Y0146333D01*
X0252703Y0146494D01*
X0252847Y0146659D01*
X0252987Y0146828D01*
X0253123Y0146999D01*
X0253255Y0147175D01*
X0253383Y0147353D01*
X0253506Y0147534D01*
X0253625Y0147718D01*
X0253739Y0147905D01*
X0253848Y0148095D01*
X0253953Y0148288D01*
X0254054Y0148483D01*
X0254149Y0148680D01*
X0254240Y0148879D01*
X0254325Y0149081D01*
X0254406Y0149285D01*
X0254482Y0149491D01*
X0254553Y0149698D01*
X0254618Y0149907D01*
X0254679Y0150118D01*
X0254734Y0150330D01*
X0254785Y0150543D01*
X0254830Y0150758D01*
X0254870Y0150973D01*
X0254904Y0151190D01*
X0254933Y0151407D01*
X0254957Y0151625D01*
X0254976Y0151843D01*
X0254989Y0152062D01*
X0254997Y0152281D01*
X0255000Y0152500D01*
X0267000Y0171500D02*
X0275000Y0171500D01*
X0275060Y0171502D01*
X0275121Y0171507D01*
X0275180Y0171516D01*
X0275239Y0171529D01*
X0275298Y0171545D01*
X0275355Y0171565D01*
X0275410Y0171588D01*
X0275465Y0171615D01*
X0275517Y0171644D01*
X0275568Y0171677D01*
X0275617Y0171713D01*
X0275663Y0171751D01*
X0275707Y0171793D01*
X0275749Y0171837D01*
X0275787Y0171883D01*
X0275823Y0171932D01*
X0275856Y0171983D01*
X0275885Y0172035D01*
X0275912Y0172090D01*
X0275935Y0172145D01*
X0275955Y0172202D01*
X0275971Y0172261D01*
X0275984Y0172320D01*
X0275993Y0172379D01*
X0275998Y0172440D01*
X0276000Y0172500D01*
X0276000Y0189500D01*
X0275998Y0189560D01*
X0275993Y0189621D01*
X0275984Y0189680D01*
X0275971Y0189739D01*
X0275955Y0189798D01*
X0275935Y0189855D01*
X0275912Y0189910D01*
X0275885Y0189965D01*
X0275856Y0190017D01*
X0275823Y0190068D01*
X0275787Y0190117D01*
X0275749Y0190163D01*
X0275707Y0190207D01*
X0275663Y0190249D01*
X0275617Y0190287D01*
X0275568Y0190323D01*
X0275517Y0190356D01*
X0275465Y0190385D01*
X0275410Y0190412D01*
X0275355Y0190435D01*
X0275298Y0190455D01*
X0275239Y0190471D01*
X0275180Y0190484D01*
X0275121Y0190493D01*
X0275060Y0190498D01*
X0275000Y0190500D01*
X0267000Y0190500D01*
X0266940Y0190498D01*
X0266879Y0190493D01*
X0266820Y0190484D01*
X0266761Y0190471D01*
X0266702Y0190455D01*
X0266645Y0190435D01*
X0266590Y0190412D01*
X0266535Y0190385D01*
X0266483Y0190356D01*
X0266432Y0190323D01*
X0266383Y0190287D01*
X0266337Y0190249D01*
X0266293Y0190207D01*
X0266251Y0190163D01*
X0266213Y0190117D01*
X0266177Y0190068D01*
X0266144Y0190017D01*
X0266115Y0189965D01*
X0266088Y0189910D01*
X0266065Y0189855D01*
X0266045Y0189798D01*
X0266029Y0189739D01*
X0266016Y0189680D01*
X0266007Y0189621D01*
X0266002Y0189560D01*
X0266000Y0189500D01*
X0266000Y0172500D01*
X0266002Y0172440D01*
X0266007Y0172379D01*
X0266016Y0172320D01*
X0266029Y0172261D01*
X0266045Y0172202D01*
X0266065Y0172145D01*
X0266088Y0172090D01*
X0266115Y0172035D01*
X0266144Y0171983D01*
X0266177Y0171932D01*
X0266213Y0171883D01*
X0266251Y0171837D01*
X0266293Y0171793D01*
X0266337Y0171751D01*
X0266383Y0171713D01*
X0266432Y0171677D01*
X0266483Y0171644D01*
X0266535Y0171615D01*
X0266590Y0171588D01*
X0266645Y0171565D01*
X0266702Y0171545D01*
X0266761Y0171529D01*
X0266820Y0171516D01*
X0266879Y0171507D01*
X0266940Y0171502D01*
X0267000Y0171500D01*
X0271000Y0176000D02*
X0271000Y0179500D01*
X0271000Y0180000D01*
X0271000Y0182000D02*
X0271000Y0182500D01*
X0271000Y0186000D01*
X0246000Y0198000D02*
X0246000Y0204000D01*
X0245998Y0204060D01*
X0245993Y0204121D01*
X0245984Y0204180D01*
X0245971Y0204239D01*
X0245955Y0204298D01*
X0245935Y0204355D01*
X0245912Y0204410D01*
X0245885Y0204465D01*
X0245856Y0204517D01*
X0245823Y0204568D01*
X0245787Y0204617D01*
X0245749Y0204663D01*
X0245707Y0204707D01*
X0245663Y0204749D01*
X0245617Y0204787D01*
X0245568Y0204823D01*
X0245517Y0204856D01*
X0245465Y0204885D01*
X0245410Y0204912D01*
X0245355Y0204935D01*
X0245298Y0204955D01*
X0245239Y0204971D01*
X0245180Y0204984D01*
X0245121Y0204993D01*
X0245060Y0204998D01*
X0245000Y0205000D01*
X0243500Y0205000D01*
X0243000Y0204500D01*
X0229000Y0204500D01*
X0228500Y0205000D01*
X0227000Y0205000D01*
X0226940Y0204998D01*
X0226879Y0204993D01*
X0226820Y0204984D01*
X0226761Y0204971D01*
X0226702Y0204955D01*
X0226645Y0204935D01*
X0226590Y0204912D01*
X0226535Y0204885D01*
X0226483Y0204856D01*
X0226432Y0204823D01*
X0226383Y0204787D01*
X0226337Y0204749D01*
X0226293Y0204707D01*
X0226251Y0204663D01*
X0226213Y0204617D01*
X0226177Y0204568D01*
X0226144Y0204517D01*
X0226115Y0204465D01*
X0226088Y0204410D01*
X0226065Y0204355D01*
X0226045Y0204298D01*
X0226029Y0204239D01*
X0226016Y0204180D01*
X0226007Y0204121D01*
X0226002Y0204060D01*
X0226000Y0204000D01*
X0226000Y0198000D01*
X0226002Y0197940D01*
X0226007Y0197879D01*
X0226016Y0197820D01*
X0226029Y0197761D01*
X0226045Y0197702D01*
X0226065Y0197645D01*
X0226088Y0197590D01*
X0226115Y0197535D01*
X0226144Y0197483D01*
X0226177Y0197432D01*
X0226213Y0197383D01*
X0226251Y0197337D01*
X0226293Y0197293D01*
X0226337Y0197251D01*
X0226383Y0197213D01*
X0226432Y0197177D01*
X0226483Y0197144D01*
X0226535Y0197115D01*
X0226590Y0197088D01*
X0226645Y0197065D01*
X0226702Y0197045D01*
X0226761Y0197029D01*
X0226820Y0197016D01*
X0226879Y0197007D01*
X0226940Y0197002D01*
X0227000Y0197000D01*
X0228500Y0197000D01*
X0229000Y0197500D01*
X0243000Y0197500D01*
X0243500Y0197000D01*
X0245000Y0197000D01*
X0245060Y0197002D01*
X0245121Y0197007D01*
X0245180Y0197016D01*
X0245239Y0197029D01*
X0245298Y0197045D01*
X0245355Y0197065D01*
X0245410Y0197088D01*
X0245465Y0197115D01*
X0245517Y0197144D01*
X0245568Y0197177D01*
X0245617Y0197213D01*
X0245663Y0197251D01*
X0245707Y0197293D01*
X0245749Y0197337D01*
X0245787Y0197383D01*
X0245823Y0197432D01*
X0245856Y0197483D01*
X0245885Y0197535D01*
X0245912Y0197590D01*
X0245935Y0197645D01*
X0245955Y0197702D01*
X0245971Y0197761D01*
X0245984Y0197820D01*
X0245993Y0197879D01*
X0245998Y0197940D01*
X0246000Y0198000D01*
X0224000Y0186000D02*
X0218000Y0186000D01*
X0217940Y0185998D01*
X0217879Y0185993D01*
X0217820Y0185984D01*
X0217761Y0185971D01*
X0217702Y0185955D01*
X0217645Y0185935D01*
X0217590Y0185912D01*
X0217535Y0185885D01*
X0217483Y0185856D01*
X0217432Y0185823D01*
X0217383Y0185787D01*
X0217337Y0185749D01*
X0217293Y0185707D01*
X0217251Y0185663D01*
X0217213Y0185617D01*
X0217177Y0185568D01*
X0217144Y0185517D01*
X0217115Y0185465D01*
X0217088Y0185410D01*
X0217065Y0185355D01*
X0217045Y0185298D01*
X0217029Y0185239D01*
X0217016Y0185180D01*
X0217007Y0185121D01*
X0217002Y0185060D01*
X0217000Y0185000D01*
X0217000Y0183500D01*
X0217500Y0183000D01*
X0217500Y0169000D01*
X0217000Y0168500D01*
X0217000Y0167000D01*
X0217002Y0166940D01*
X0217007Y0166879D01*
X0217016Y0166820D01*
X0217029Y0166761D01*
X0217045Y0166702D01*
X0217065Y0166645D01*
X0217088Y0166590D01*
X0217115Y0166535D01*
X0217144Y0166483D01*
X0217177Y0166432D01*
X0217213Y0166383D01*
X0217251Y0166337D01*
X0217293Y0166293D01*
X0217337Y0166251D01*
X0217383Y0166213D01*
X0217432Y0166177D01*
X0217483Y0166144D01*
X0217535Y0166115D01*
X0217590Y0166088D01*
X0217645Y0166065D01*
X0217702Y0166045D01*
X0217761Y0166029D01*
X0217820Y0166016D01*
X0217879Y0166007D01*
X0217940Y0166002D01*
X0218000Y0166000D01*
X0224000Y0166000D01*
X0224060Y0166002D01*
X0224121Y0166007D01*
X0224180Y0166016D01*
X0224239Y0166029D01*
X0224298Y0166045D01*
X0224355Y0166065D01*
X0224410Y0166088D01*
X0224465Y0166115D01*
X0224517Y0166144D01*
X0224568Y0166177D01*
X0224617Y0166213D01*
X0224663Y0166251D01*
X0224707Y0166293D01*
X0224749Y0166337D01*
X0224787Y0166383D01*
X0224823Y0166432D01*
X0224856Y0166483D01*
X0224885Y0166535D01*
X0224912Y0166590D01*
X0224935Y0166645D01*
X0224955Y0166702D01*
X0224971Y0166761D01*
X0224984Y0166820D01*
X0224993Y0166879D01*
X0224998Y0166940D01*
X0225000Y0167000D01*
X0225000Y0168500D01*
X0224500Y0169000D01*
X0224500Y0183000D01*
X0225000Y0183500D01*
X0225000Y0185000D01*
X0224998Y0185060D01*
X0224993Y0185121D01*
X0224984Y0185180D01*
X0224971Y0185239D01*
X0224955Y0185298D01*
X0224935Y0185355D01*
X0224912Y0185410D01*
X0224885Y0185465D01*
X0224856Y0185517D01*
X0224823Y0185568D01*
X0224787Y0185617D01*
X0224749Y0185663D01*
X0224707Y0185707D01*
X0224663Y0185749D01*
X0224617Y0185787D01*
X0224568Y0185823D01*
X0224517Y0185856D01*
X0224465Y0185885D01*
X0224410Y0185912D01*
X0224355Y0185935D01*
X0224298Y0185955D01*
X0224239Y0185971D01*
X0224180Y0185984D01*
X0224121Y0185993D01*
X0224060Y0185998D01*
X0224000Y0186000D01*
X0195700Y0184270D02*
X0189295Y0184270D01*
X0189295Y0187473D01*
X0190362Y0188540D01*
X0192497Y0188540D01*
X0193565Y0187473D01*
X0193565Y0184270D01*
X0192497Y0182095D02*
X0193565Y0181027D01*
X0193565Y0177824D01*
X0195700Y0177824D02*
X0189295Y0177824D01*
X0189295Y0181027D01*
X0190362Y0182095D01*
X0192497Y0182095D01*
X0194632Y0175649D02*
X0189295Y0175649D01*
X0189295Y0171379D02*
X0194632Y0171379D01*
X0195700Y0172447D01*
X0195700Y0174582D01*
X0194632Y0175649D01*
X0195700Y0162758D02*
X0195700Y0158488D01*
X0189295Y0158488D01*
X0189295Y0162758D01*
X0192497Y0160623D02*
X0192497Y0158488D01*
X0189295Y0156313D02*
X0189295Y0152042D01*
X0195700Y0152042D01*
X0195700Y0156313D01*
X0192497Y0154178D02*
X0192497Y0152042D01*
X0189295Y0149867D02*
X0189295Y0145597D01*
X0195700Y0145597D01*
X0195700Y0149867D01*
X0192497Y0147732D02*
X0192497Y0145597D01*
X0189295Y0143435D02*
X0189295Y0141300D01*
X0189295Y0142368D02*
X0195700Y0142368D01*
X0195700Y0143435D02*
X0195700Y0141300D01*
X0208500Y0141000D02*
X0213500Y0141000D01*
X0219855Y0145368D02*
X0220922Y0144300D01*
X0223057Y0144300D01*
X0224125Y0145368D01*
X0224125Y0147503D01*
X0223057Y0148570D01*
X0221990Y0148570D01*
X0219855Y0147503D01*
X0219855Y0150705D01*
X0224125Y0150705D01*
X0224503Y0137705D02*
X0222368Y0137705D01*
X0221300Y0136638D01*
X0221300Y0132368D01*
X0222368Y0131300D01*
X0224503Y0131300D01*
X0225570Y0132368D01*
X0225570Y0134503D01*
X0223435Y0134503D01*
X0225570Y0136638D02*
X0224503Y0137705D01*
X0213500Y0131000D02*
X0208500Y0131000D01*
X0234295Y0115948D02*
X0234295Y0113813D01*
X0235362Y0112745D01*
X0234295Y0115948D02*
X0235362Y0117016D01*
X0236430Y0117016D01*
X0240700Y0112745D01*
X0240700Y0117016D01*
X0246295Y0113057D02*
X0247362Y0114125D01*
X0248430Y0114125D01*
X0249497Y0113057D01*
X0250565Y0114125D01*
X0251632Y0114125D01*
X0252700Y0113057D01*
X0252700Y0110922D01*
X0251632Y0109855D01*
X0249497Y0111990D02*
X0249497Y0113057D01*
X0246295Y0113057D02*
X0246295Y0110922D01*
X0247362Y0109855D01*
X0248500Y0106000D02*
X0246000Y0103500D01*
X0246000Y0098500D01*
X0248500Y0096000D01*
X0253500Y0096000D01*
X0256000Y0098500D01*
X0258500Y0096000D01*
X0263500Y0096000D01*
X0266000Y0098500D01*
X0266000Y0103500D01*
X0263500Y0106000D01*
X0258500Y0106000D01*
X0256000Y0103500D01*
X0256000Y0098500D01*
X0256000Y0103500D02*
X0253500Y0106000D01*
X0248500Y0106000D01*
X0246000Y0103500D02*
X0243500Y0106000D01*
X0238500Y0106000D01*
X0236000Y0103500D01*
X0236000Y0098500D01*
X0238500Y0096000D01*
X0243500Y0096000D01*
X0246000Y0098500D01*
X0240700Y0106300D02*
X0240700Y0110570D01*
X0240700Y0108435D02*
X0234295Y0108435D01*
X0236430Y0106300D01*
X0254295Y0112368D02*
X0255362Y0111300D01*
X0259632Y0111300D01*
X0260700Y0112368D01*
X0260700Y0114503D01*
X0259632Y0115570D01*
X0257497Y0115570D01*
X0257497Y0113435D01*
X0255362Y0115570D02*
X0254295Y0114503D01*
X0254295Y0112368D01*
X0267368Y0087705D02*
X0266300Y0086638D01*
X0266300Y0085570D01*
X0267368Y0084503D01*
X0269503Y0084503D01*
X0270570Y0083435D01*
X0270570Y0082368D01*
X0269503Y0081300D01*
X0267368Y0081300D01*
X0266300Y0082368D01*
X0270570Y0086638D02*
X0269503Y0087705D01*
X0267368Y0087705D01*
X0272745Y0087705D02*
X0275948Y0087705D01*
X0277016Y0086638D01*
X0277016Y0084503D01*
X0275948Y0083435D01*
X0272745Y0083435D01*
X0272745Y0081300D02*
X0272745Y0087705D01*
X0274881Y0083435D02*
X0277016Y0081300D01*
X0279191Y0081300D02*
X0283461Y0081300D01*
X0279191Y0081300D02*
X0279191Y0087705D01*
X0292082Y0084503D02*
X0296352Y0084503D01*
X0304973Y0087705D02*
X0309243Y0081300D01*
X0309243Y0087705D01*
X0311418Y0085570D02*
X0313554Y0087705D01*
X0315689Y0085570D01*
X0315689Y0081300D01*
X0317864Y0082368D02*
X0318932Y0081300D01*
X0321067Y0081300D01*
X0322134Y0082368D01*
X0322134Y0083435D01*
X0321067Y0084503D01*
X0318932Y0084503D01*
X0317864Y0085570D01*
X0317864Y0086638D01*
X0318932Y0087705D01*
X0321067Y0087705D01*
X0322134Y0086638D01*
X0324309Y0085570D02*
X0324309Y0081300D01*
X0324309Y0084503D02*
X0328580Y0084503D01*
X0328580Y0085570D02*
X0328580Y0081300D01*
X0328580Y0085570D02*
X0326445Y0087705D01*
X0324309Y0085570D01*
X0315689Y0084503D02*
X0311418Y0084503D01*
X0311418Y0085570D02*
X0311418Y0081300D01*
X0304973Y0081300D02*
X0304973Y0087705D01*
X0300000Y0113000D02*
X0322000Y0113000D01*
X0322000Y0259000D01*
X0313500Y0259000D01*
X0313498Y0258902D01*
X0313492Y0258804D01*
X0313483Y0258706D01*
X0313469Y0258609D01*
X0313452Y0258512D01*
X0313431Y0258416D01*
X0313406Y0258321D01*
X0313378Y0258227D01*
X0313345Y0258135D01*
X0313310Y0258043D01*
X0313270Y0257953D01*
X0313228Y0257865D01*
X0313181Y0257778D01*
X0313132Y0257694D01*
X0313079Y0257611D01*
X0313023Y0257531D01*
X0312963Y0257452D01*
X0312901Y0257376D01*
X0312836Y0257303D01*
X0312768Y0257232D01*
X0312697Y0257164D01*
X0312624Y0257099D01*
X0312548Y0257037D01*
X0312469Y0256977D01*
X0312389Y0256921D01*
X0312306Y0256868D01*
X0312222Y0256819D01*
X0312135Y0256772D01*
X0312047Y0256730D01*
X0311957Y0256690D01*
X0311865Y0256655D01*
X0311773Y0256622D01*
X0311679Y0256594D01*
X0311584Y0256569D01*
X0311488Y0256548D01*
X0311391Y0256531D01*
X0311294Y0256517D01*
X0311196Y0256508D01*
X0311098Y0256502D01*
X0311000Y0256500D01*
X0310902Y0256502D01*
X0310804Y0256508D01*
X0310706Y0256517D01*
X0310609Y0256531D01*
X0310512Y0256548D01*
X0310416Y0256569D01*
X0310321Y0256594D01*
X0310227Y0256622D01*
X0310135Y0256655D01*
X0310043Y0256690D01*
X0309953Y0256730D01*
X0309865Y0256772D01*
X0309778Y0256819D01*
X0309694Y0256868D01*
X0309611Y0256921D01*
X0309531Y0256977D01*
X0309452Y0257037D01*
X0309376Y0257099D01*
X0309303Y0257164D01*
X0309232Y0257232D01*
X0309164Y0257303D01*
X0309099Y0257376D01*
X0309037Y0257452D01*
X0308977Y0257531D01*
X0308921Y0257611D01*
X0308868Y0257694D01*
X0308819Y0257778D01*
X0308772Y0257865D01*
X0308730Y0257953D01*
X0308690Y0258043D01*
X0308655Y0258135D01*
X0308622Y0258227D01*
X0308594Y0258321D01*
X0308569Y0258416D01*
X0308548Y0258512D01*
X0308531Y0258609D01*
X0308517Y0258706D01*
X0308508Y0258804D01*
X0308502Y0258902D01*
X0308500Y0259000D01*
X0300000Y0259000D01*
X0300000Y0113000D01*
X0344855Y0109638D02*
X0345922Y0110705D01*
X0348057Y0110705D01*
X0349125Y0109638D01*
X0349125Y0108570D01*
X0348057Y0107503D01*
X0349125Y0106435D01*
X0349125Y0105368D01*
X0348057Y0104300D01*
X0345922Y0104300D01*
X0344855Y0105368D01*
X0346990Y0107503D02*
X0348057Y0107503D01*
X0353500Y0116000D02*
X0351000Y0118500D01*
X0351000Y0123500D01*
X0353500Y0126000D01*
X0368500Y0126000D01*
X0371000Y0128500D01*
X0371000Y0133500D01*
X0368500Y0136000D01*
X0353500Y0136000D01*
X0351000Y0138500D01*
X0351000Y0143500D01*
X0353500Y0146000D01*
X0351000Y0148500D01*
X0351000Y0153500D01*
X0353500Y0156000D01*
X0368500Y0156000D01*
X0371000Y0153500D01*
X0371000Y0148500D01*
X0368500Y0146000D01*
X0353500Y0146000D01*
X0353500Y0136000D02*
X0351000Y0133500D01*
X0351000Y0128500D01*
X0353500Y0126000D01*
X0353500Y0116000D02*
X0368500Y0116000D01*
X0371000Y0118500D01*
X0371000Y0123500D01*
X0368500Y0126000D01*
X0368500Y0136000D02*
X0371000Y0138500D01*
X0371000Y0143500D01*
X0368500Y0146000D01*
X0344125Y0169300D02*
X0339854Y0169300D01*
X0344125Y0173570D01*
X0344125Y0174638D01*
X0343057Y0175705D01*
X0340922Y0175705D01*
X0339854Y0174638D01*
X0335544Y0175705D02*
X0335544Y0169300D01*
X0333409Y0169300D02*
X0337679Y0169300D01*
X0333409Y0173570D02*
X0335544Y0175705D01*
X0339855Y0179300D02*
X0339855Y0185705D01*
X0343057Y0185705D01*
X0344125Y0184638D01*
X0344125Y0182503D01*
X0343057Y0181435D01*
X0339855Y0181435D01*
X0341990Y0181435D02*
X0344125Y0179300D01*
X0341990Y0189300D02*
X0341990Y0195705D01*
X0339855Y0195705D02*
X0344125Y0195705D01*
X0356000Y0193500D02*
X0356000Y0198500D01*
X0358500Y0201000D01*
X0356000Y0203500D01*
X0356000Y0208500D01*
X0358500Y0211000D01*
X0356000Y0213500D01*
X0356000Y0218500D01*
X0358500Y0221000D01*
X0356000Y0223500D01*
X0356000Y0228500D01*
X0358500Y0231000D01*
X0363500Y0231000D01*
X0366000Y0228500D01*
X0366000Y0223500D01*
X0363500Y0221000D01*
X0366000Y0218500D01*
X0366000Y0213500D01*
X0363500Y0211000D01*
X0366000Y0208500D01*
X0366000Y0203500D01*
X0363500Y0201000D01*
X0366000Y0198500D01*
X0366000Y0193500D01*
X0363500Y0191000D01*
X0366000Y0188500D01*
X0366000Y0183500D01*
X0363500Y0181000D01*
X0366000Y0178500D01*
X0366000Y0173500D01*
X0363500Y0171000D01*
X0358500Y0171000D01*
X0356000Y0173500D01*
X0356000Y0178500D01*
X0358500Y0181000D01*
X0356000Y0183500D01*
X0356000Y0188500D01*
X0358500Y0191000D01*
X0363500Y0191000D01*
X0358500Y0191000D02*
X0356000Y0193500D01*
X0358500Y0201000D02*
X0363500Y0201000D01*
X0363500Y0211000D02*
X0358500Y0211000D01*
X0358500Y0221000D02*
X0363500Y0221000D01*
X0345570Y0222368D02*
X0344503Y0221300D01*
X0342368Y0221300D01*
X0341300Y0222368D01*
X0341300Y0226638D01*
X0342368Y0227705D01*
X0344503Y0227705D01*
X0345570Y0226638D01*
X0345570Y0224503D02*
X0343435Y0224503D01*
X0345570Y0224503D02*
X0345570Y0222368D01*
X0358500Y0181000D02*
X0363500Y0181000D01*
X0266515Y0202014D02*
X0266417Y0202128D01*
X0266321Y0202244D01*
X0266229Y0202362D01*
X0266139Y0202483D01*
X0266052Y0202606D01*
X0265969Y0202731D01*
X0265889Y0202858D01*
X0265811Y0202987D01*
X0265738Y0203118D01*
X0265667Y0203250D01*
X0265600Y0203385D01*
X0265536Y0203521D01*
X0265476Y0203659D01*
X0265419Y0203798D01*
X0265365Y0203938D01*
X0265315Y0204080D01*
X0265269Y0204223D01*
X0265226Y0204367D01*
X0265187Y0204513D01*
X0265152Y0204659D01*
X0265120Y0204806D01*
X0265092Y0204953D01*
X0265068Y0205102D01*
X0265047Y0205251D01*
X0265030Y0205400D01*
X0265017Y0205550D01*
X0265008Y0205700D01*
X0265002Y0205850D01*
X0265000Y0206000D01*
X0271000Y0212000D02*
X0271154Y0211998D01*
X0271308Y0211992D01*
X0271462Y0211982D01*
X0271616Y0211968D01*
X0271769Y0211951D01*
X0271921Y0211929D01*
X0272073Y0211903D01*
X0272225Y0211874D01*
X0272375Y0211840D01*
X0272525Y0211803D01*
X0272673Y0211762D01*
X0272821Y0211717D01*
X0272967Y0211668D01*
X0273112Y0211616D01*
X0273255Y0211560D01*
X0273398Y0211500D01*
X0273538Y0211437D01*
X0273677Y0211370D01*
X0273814Y0211299D01*
X0273949Y0211225D01*
X0274082Y0211148D01*
X0274214Y0211067D01*
X0274343Y0210983D01*
X0274470Y0210895D01*
X0274594Y0210804D01*
X0274716Y0210711D01*
X0274836Y0210613D01*
X0274953Y0210513D01*
X0275068Y0210410D01*
X0275180Y0210304D01*
X0275289Y0210196D01*
X0275395Y0210084D01*
X0275499Y0209970D01*
X0275599Y0209853D01*
X0275697Y0209734D01*
X0275791Y0209612D01*
X0275882Y0209487D01*
X0271000Y0200000D02*
X0270848Y0200002D01*
X0270697Y0200008D01*
X0270546Y0200017D01*
X0270394Y0200031D01*
X0270244Y0200048D01*
X0270094Y0200069D01*
X0269944Y0200094D01*
X0269795Y0200122D01*
X0269647Y0200155D01*
X0269500Y0200191D01*
X0269353Y0200230D01*
X0269208Y0200274D01*
X0269064Y0200321D01*
X0268921Y0200372D01*
X0268780Y0200426D01*
X0268639Y0200484D01*
X0268501Y0200545D01*
X0268364Y0200610D01*
X0268228Y0200679D01*
X0268095Y0200750D01*
X0267963Y0200825D01*
X0267833Y0200904D01*
X0267706Y0200985D01*
X0267580Y0201070D01*
X0267456Y0201158D01*
X0267335Y0201249D01*
X0267216Y0201343D01*
X0267100Y0201441D01*
X0266986Y0201541D01*
X0266874Y0201643D01*
X0266766Y0201749D01*
X0266660Y0201857D01*
X0266556Y0201968D01*
X0266456Y0202082D01*
X0266358Y0202198D01*
X0266264Y0202317D01*
X0277000Y0206000D02*
X0276998Y0206152D01*
X0276992Y0206304D01*
X0276983Y0206455D01*
X0276969Y0206606D01*
X0276952Y0206757D01*
X0276931Y0206908D01*
X0276906Y0207057D01*
X0276877Y0207207D01*
X0276845Y0207355D01*
X0276809Y0207502D01*
X0276769Y0207649D01*
X0276725Y0207794D01*
X0276678Y0207939D01*
X0276627Y0208082D01*
X0276573Y0208223D01*
X0276515Y0208364D01*
X0276453Y0208503D01*
X0276388Y0208640D01*
X0276320Y0208775D01*
X0276248Y0208909D01*
X0276172Y0209041D01*
X0276094Y0209171D01*
X0276012Y0209299D01*
X0275927Y0209424D01*
X0275839Y0209548D01*
X0275747Y0209669D01*
X0275653Y0209788D01*
X0275556Y0209905D01*
X0275000Y0206000D02*
X0274998Y0205874D01*
X0274992Y0205749D01*
X0274982Y0205624D01*
X0274968Y0205499D01*
X0274951Y0205374D01*
X0274929Y0205250D01*
X0274904Y0205127D01*
X0274874Y0205005D01*
X0274841Y0204884D01*
X0274804Y0204764D01*
X0274764Y0204645D01*
X0274719Y0204528D01*
X0274671Y0204411D01*
X0274619Y0204297D01*
X0274564Y0204184D01*
X0274505Y0204073D01*
X0274443Y0203964D01*
X0274377Y0203857D01*
X0274308Y0203752D01*
X0274236Y0203649D01*
X0274161Y0203548D01*
X0274082Y0203450D01*
X0274000Y0203355D01*
X0273916Y0203262D01*
X0273828Y0203172D01*
X0273738Y0203084D01*
X0273645Y0203000D01*
X0273550Y0202918D01*
X0273452Y0202839D01*
X0273351Y0202764D01*
X0273248Y0202692D01*
X0273143Y0202623D01*
X0273036Y0202557D01*
X0272927Y0202495D01*
X0272816Y0202436D01*
X0272703Y0202381D01*
X0272589Y0202329D01*
X0272472Y0202281D01*
X0272355Y0202236D01*
X0272236Y0202196D01*
X0272116Y0202159D01*
X0271995Y0202126D01*
X0271873Y0202096D01*
X0271750Y0202071D01*
X0271626Y0202049D01*
X0271501Y0202032D01*
X0271376Y0202018D01*
X0271251Y0202008D01*
X0271126Y0202002D01*
X0271000Y0202000D01*
X0265000Y0206000D02*
X0265002Y0206154D01*
X0265008Y0206309D01*
X0265018Y0206463D01*
X0265032Y0206616D01*
X0265050Y0206770D01*
X0265071Y0206923D01*
X0265097Y0207075D01*
X0265127Y0207226D01*
X0265160Y0207377D01*
X0265198Y0207527D01*
X0265239Y0207676D01*
X0265284Y0207823D01*
X0265333Y0207970D01*
X0265385Y0208115D01*
X0265441Y0208259D01*
X0265501Y0208401D01*
X0265565Y0208542D01*
X0265632Y0208681D01*
X0265703Y0208818D01*
X0265777Y0208953D01*
X0265855Y0209087D01*
X0265936Y0209218D01*
X0266020Y0209347D01*
X0266108Y0209474D01*
X0266199Y0209599D01*
X0266293Y0209721D01*
X0266391Y0209841D01*
X0271000Y0200000D02*
X0271152Y0200002D01*
X0271303Y0200008D01*
X0271454Y0200017D01*
X0271606Y0200031D01*
X0271756Y0200048D01*
X0271906Y0200069D01*
X0272056Y0200094D01*
X0272205Y0200122D01*
X0272353Y0200155D01*
X0272500Y0200191D01*
X0272647Y0200230D01*
X0272792Y0200274D01*
X0272936Y0200321D01*
X0273079Y0200372D01*
X0273220Y0200426D01*
X0273361Y0200484D01*
X0273499Y0200545D01*
X0273636Y0200610D01*
X0273772Y0200679D01*
X0273905Y0200750D01*
X0274037Y0200825D01*
X0274167Y0200904D01*
X0274294Y0200985D01*
X0274420Y0201070D01*
X0274544Y0201158D01*
X0274665Y0201249D01*
X0274784Y0201343D01*
X0274900Y0201441D01*
X0275014Y0201541D01*
X0275126Y0201643D01*
X0275234Y0201749D01*
X0275340Y0201857D01*
X0275444Y0201968D01*
X0275544Y0202082D01*
X0275642Y0202198D01*
X0275736Y0202317D01*
X0271000Y0212000D02*
X0270850Y0211998D01*
X0270699Y0211992D01*
X0270549Y0211983D01*
X0270400Y0211970D01*
X0270250Y0211953D01*
X0270101Y0211932D01*
X0269953Y0211908D01*
X0269805Y0211880D01*
X0269658Y0211848D01*
X0269512Y0211813D01*
X0269367Y0211773D01*
X0269223Y0211731D01*
X0269080Y0211684D01*
X0268938Y0211634D01*
X0268797Y0211581D01*
X0268658Y0211524D01*
X0268520Y0211464D01*
X0268384Y0211400D01*
X0268250Y0211333D01*
X0268117Y0211262D01*
X0267986Y0211188D01*
X0267857Y0211111D01*
X0267730Y0211030D01*
X0267605Y0210947D01*
X0267482Y0210860D01*
X0267361Y0210771D01*
X0267243Y0210678D01*
X0267127Y0210582D01*
X0267013Y0210484D01*
X0266902Y0210383D01*
X0266793Y0210278D01*
X0266688Y0210172D01*
X0266584Y0210062D01*
X0266484Y0209950D01*
X0266386Y0209836D01*
X0266292Y0209719D01*
X0266200Y0209600D01*
X0277000Y0206000D02*
X0276998Y0205846D01*
X0276992Y0205691D01*
X0276982Y0205537D01*
X0276968Y0205384D01*
X0276950Y0205230D01*
X0276929Y0205077D01*
X0276903Y0204925D01*
X0276873Y0204774D01*
X0276840Y0204623D01*
X0276802Y0204473D01*
X0276761Y0204324D01*
X0276716Y0204177D01*
X0276667Y0204030D01*
X0276615Y0203885D01*
X0276559Y0203741D01*
X0276499Y0203599D01*
X0276435Y0203458D01*
X0276368Y0203319D01*
X0276297Y0203182D01*
X0276223Y0203047D01*
X0276145Y0202913D01*
X0276064Y0202782D01*
X0275980Y0202653D01*
X0275892Y0202526D01*
X0275801Y0202401D01*
X0275707Y0202279D01*
X0275609Y0202159D01*
X0273500Y0206000D02*
X0273498Y0205902D01*
X0273492Y0205804D01*
X0273483Y0205706D01*
X0273469Y0205609D01*
X0273452Y0205512D01*
X0273431Y0205416D01*
X0273406Y0205321D01*
X0273378Y0205227D01*
X0273345Y0205135D01*
X0273310Y0205043D01*
X0273270Y0204953D01*
X0273228Y0204865D01*
X0273181Y0204778D01*
X0273132Y0204694D01*
X0273079Y0204611D01*
X0273023Y0204531D01*
X0272963Y0204452D01*
X0272901Y0204376D01*
X0272836Y0204303D01*
X0272768Y0204232D01*
X0272697Y0204164D01*
X0272624Y0204099D01*
X0272548Y0204037D01*
X0272469Y0203977D01*
X0272389Y0203921D01*
X0272306Y0203868D01*
X0272222Y0203819D01*
X0272135Y0203772D01*
X0272047Y0203730D01*
X0271957Y0203690D01*
X0271865Y0203655D01*
X0271773Y0203622D01*
X0271679Y0203594D01*
X0271584Y0203569D01*
X0271488Y0203548D01*
X0271391Y0203531D01*
X0271294Y0203517D01*
X0271196Y0203508D01*
X0271098Y0203502D01*
X0271000Y0203500D01*
X0267000Y0206000D02*
X0267002Y0206126D01*
X0267008Y0206251D01*
X0267018Y0206376D01*
X0267032Y0206501D01*
X0267049Y0206626D01*
X0267071Y0206750D01*
X0267096Y0206873D01*
X0267126Y0206995D01*
X0267159Y0207116D01*
X0267196Y0207236D01*
X0267236Y0207355D01*
X0267281Y0207472D01*
X0267329Y0207589D01*
X0267381Y0207703D01*
X0267436Y0207816D01*
X0267495Y0207927D01*
X0267557Y0208036D01*
X0267623Y0208143D01*
X0267692Y0208248D01*
X0267764Y0208351D01*
X0267839Y0208452D01*
X0267918Y0208550D01*
X0268000Y0208645D01*
X0268084Y0208738D01*
X0268172Y0208828D01*
X0268262Y0208916D01*
X0268355Y0209000D01*
X0268450Y0209082D01*
X0268548Y0209161D01*
X0268649Y0209236D01*
X0268752Y0209308D01*
X0268857Y0209377D01*
X0268964Y0209443D01*
X0269073Y0209505D01*
X0269184Y0209564D01*
X0269297Y0209619D01*
X0269411Y0209671D01*
X0269528Y0209719D01*
X0269645Y0209764D01*
X0269764Y0209804D01*
X0269884Y0209841D01*
X0270005Y0209874D01*
X0270127Y0209904D01*
X0270250Y0209929D01*
X0270374Y0209951D01*
X0270499Y0209968D01*
X0270624Y0209982D01*
X0270749Y0209992D01*
X0270874Y0209998D01*
X0271000Y0210000D01*
X0271000Y0208500D02*
X0270902Y0208498D01*
X0270804Y0208492D01*
X0270706Y0208483D01*
X0270609Y0208469D01*
X0270512Y0208452D01*
X0270416Y0208431D01*
X0270321Y0208406D01*
X0270227Y0208378D01*
X0270135Y0208345D01*
X0270043Y0208310D01*
X0269953Y0208270D01*
X0269865Y0208228D01*
X0269778Y0208181D01*
X0269694Y0208132D01*
X0269611Y0208079D01*
X0269531Y0208023D01*
X0269452Y0207963D01*
X0269376Y0207901D01*
X0269303Y0207836D01*
X0269232Y0207768D01*
X0269164Y0207697D01*
X0269099Y0207624D01*
X0269037Y0207548D01*
X0268977Y0207469D01*
X0268921Y0207389D01*
X0268868Y0207306D01*
X0268819Y0207222D01*
X0268772Y0207135D01*
X0268730Y0207047D01*
X0268690Y0206957D01*
X0268655Y0206865D01*
X0268622Y0206773D01*
X0268594Y0206679D01*
X0268569Y0206584D01*
X0268548Y0206488D01*
X0268531Y0206391D01*
X0268517Y0206294D01*
X0268508Y0206196D01*
X0268502Y0206098D01*
X0268500Y0206000D01*
X0195700Y0206809D02*
X0195700Y0204674D01*
X0194632Y0203606D01*
X0189295Y0203606D01*
X0189295Y0201431D02*
X0189295Y0197161D01*
X0195700Y0197161D01*
X0192497Y0197161D02*
X0192497Y0199296D01*
X0195700Y0206809D02*
X0194632Y0207877D01*
X0189295Y0207877D01*
X0189295Y0210052D02*
X0195700Y0214322D01*
X0189295Y0214322D01*
X0189295Y0216497D02*
X0189295Y0219700D01*
X0190362Y0220768D01*
X0194632Y0220768D01*
X0195700Y0219700D01*
X0195700Y0216497D01*
X0189295Y0216497D01*
X0189295Y0210052D02*
X0195700Y0210052D01*
X0195700Y0222943D02*
X0189295Y0222943D01*
X0189295Y0227213D01*
X0189295Y0229388D02*
X0189295Y0232591D01*
X0190362Y0233659D01*
X0194632Y0233659D01*
X0195700Y0232591D01*
X0195700Y0229388D01*
X0189295Y0229388D01*
X0192497Y0225078D02*
X0192497Y0222943D01*
X0195700Y0222943D02*
X0195700Y0227213D01*
X0366300Y0111638D02*
X0366300Y0107368D01*
X0367368Y0106300D01*
X0369503Y0106300D01*
X0370570Y0107368D01*
X0370570Y0109503D01*
X0368435Y0109503D01*
X0366300Y0111638D02*
X0367368Y0112705D01*
X0369503Y0112705D01*
X0370570Y0111638D01*
D11*
X0196000Y0071000D02*
X0181000Y0086000D01*
X0181000Y0276000D01*
X0196000Y0291000D01*
X0376000Y0291000D01*
X0391000Y0276000D01*
X0391000Y0086000D01*
X0376000Y0071000D01*
X0196000Y0071000D01*
X0201000Y0096000D02*
X0201002Y0096141D01*
X0201008Y0096282D01*
X0201018Y0096422D01*
X0201032Y0096562D01*
X0201050Y0096702D01*
X0201071Y0096841D01*
X0201097Y0096980D01*
X0201126Y0097118D01*
X0201160Y0097254D01*
X0201197Y0097390D01*
X0201238Y0097525D01*
X0201283Y0097659D01*
X0201332Y0097791D01*
X0201384Y0097922D01*
X0201440Y0098051D01*
X0201500Y0098178D01*
X0201563Y0098304D01*
X0201629Y0098428D01*
X0201700Y0098551D01*
X0201773Y0098671D01*
X0201850Y0098789D01*
X0201930Y0098905D01*
X0202014Y0099018D01*
X0202100Y0099129D01*
X0202190Y0099238D01*
X0202283Y0099344D01*
X0202378Y0099447D01*
X0202477Y0099548D01*
X0202578Y0099646D01*
X0202682Y0099741D01*
X0202789Y0099833D01*
X0202898Y0099922D01*
X0203010Y0100007D01*
X0203124Y0100090D01*
X0203240Y0100170D01*
X0203359Y0100246D01*
X0203480Y0100318D01*
X0203602Y0100388D01*
X0203727Y0100453D01*
X0203853Y0100516D01*
X0203981Y0100574D01*
X0204111Y0100629D01*
X0204242Y0100681D01*
X0204375Y0100728D01*
X0204509Y0100772D01*
X0204644Y0100813D01*
X0204780Y0100849D01*
X0204917Y0100881D01*
X0205055Y0100910D01*
X0205193Y0100935D01*
X0205333Y0100955D01*
X0205473Y0100972D01*
X0205613Y0100985D01*
X0205754Y0100994D01*
X0205894Y0100999D01*
X0206035Y0101000D01*
X0206176Y0100997D01*
X0206317Y0100990D01*
X0206457Y0100979D01*
X0206597Y0100964D01*
X0206737Y0100945D01*
X0206876Y0100923D01*
X0207014Y0100896D01*
X0207152Y0100866D01*
X0207288Y0100831D01*
X0207424Y0100793D01*
X0207558Y0100751D01*
X0207692Y0100705D01*
X0207824Y0100656D01*
X0207954Y0100602D01*
X0208083Y0100545D01*
X0208210Y0100485D01*
X0208336Y0100421D01*
X0208459Y0100353D01*
X0208581Y0100282D01*
X0208701Y0100208D01*
X0208818Y0100130D01*
X0208933Y0100049D01*
X0209046Y0099965D01*
X0209157Y0099878D01*
X0209265Y0099787D01*
X0209370Y0099694D01*
X0209473Y0099597D01*
X0209573Y0099498D01*
X0209670Y0099396D01*
X0209764Y0099291D01*
X0209855Y0099184D01*
X0209943Y0099074D01*
X0210028Y0098962D01*
X0210110Y0098847D01*
X0210189Y0098730D01*
X0210264Y0098611D01*
X0210336Y0098490D01*
X0210404Y0098367D01*
X0210469Y0098242D01*
X0210531Y0098115D01*
X0210588Y0097986D01*
X0210643Y0097856D01*
X0210693Y0097725D01*
X0210740Y0097592D01*
X0210783Y0097458D01*
X0210822Y0097322D01*
X0210857Y0097186D01*
X0210889Y0097049D01*
X0210916Y0096911D01*
X0210940Y0096772D01*
X0210960Y0096632D01*
X0210976Y0096492D01*
X0210988Y0096352D01*
X0210996Y0096211D01*
X0211000Y0096070D01*
X0211000Y0095930D01*
X0210996Y0095789D01*
X0210988Y0095648D01*
X0210976Y0095508D01*
X0210960Y0095368D01*
X0210940Y0095228D01*
X0210916Y0095089D01*
X0210889Y0094951D01*
X0210857Y0094814D01*
X0210822Y0094678D01*
X0210783Y0094542D01*
X0210740Y0094408D01*
X0210693Y0094275D01*
X0210643Y0094144D01*
X0210588Y0094014D01*
X0210531Y0093885D01*
X0210469Y0093758D01*
X0210404Y0093633D01*
X0210336Y0093510D01*
X0210264Y0093389D01*
X0210189Y0093270D01*
X0210110Y0093153D01*
X0210028Y0093038D01*
X0209943Y0092926D01*
X0209855Y0092816D01*
X0209764Y0092709D01*
X0209670Y0092604D01*
X0209573Y0092502D01*
X0209473Y0092403D01*
X0209370Y0092306D01*
X0209265Y0092213D01*
X0209157Y0092122D01*
X0209046Y0092035D01*
X0208933Y0091951D01*
X0208818Y0091870D01*
X0208701Y0091792D01*
X0208581Y0091718D01*
X0208459Y0091647D01*
X0208336Y0091579D01*
X0208210Y0091515D01*
X0208083Y0091455D01*
X0207954Y0091398D01*
X0207824Y0091344D01*
X0207692Y0091295D01*
X0207558Y0091249D01*
X0207424Y0091207D01*
X0207288Y0091169D01*
X0207152Y0091134D01*
X0207014Y0091104D01*
X0206876Y0091077D01*
X0206737Y0091055D01*
X0206597Y0091036D01*
X0206457Y0091021D01*
X0206317Y0091010D01*
X0206176Y0091003D01*
X0206035Y0091000D01*
X0205894Y0091001D01*
X0205754Y0091006D01*
X0205613Y0091015D01*
X0205473Y0091028D01*
X0205333Y0091045D01*
X0205193Y0091065D01*
X0205055Y0091090D01*
X0204917Y0091119D01*
X0204780Y0091151D01*
X0204644Y0091187D01*
X0204509Y0091228D01*
X0204375Y0091272D01*
X0204242Y0091319D01*
X0204111Y0091371D01*
X0203981Y0091426D01*
X0203853Y0091484D01*
X0203727Y0091547D01*
X0203602Y0091612D01*
X0203480Y0091682D01*
X0203359Y0091754D01*
X0203240Y0091830D01*
X0203124Y0091910D01*
X0203010Y0091993D01*
X0202898Y0092078D01*
X0202789Y0092167D01*
X0202682Y0092259D01*
X0202578Y0092354D01*
X0202477Y0092452D01*
X0202378Y0092553D01*
X0202283Y0092656D01*
X0202190Y0092762D01*
X0202100Y0092871D01*
X0202014Y0092982D01*
X0201930Y0093095D01*
X0201850Y0093211D01*
X0201773Y0093329D01*
X0201700Y0093449D01*
X0201629Y0093572D01*
X0201563Y0093696D01*
X0201500Y0093822D01*
X0201440Y0093949D01*
X0201384Y0094078D01*
X0201332Y0094209D01*
X0201283Y0094341D01*
X0201238Y0094475D01*
X0201197Y0094610D01*
X0201160Y0094746D01*
X0201126Y0094882D01*
X0201097Y0095020D01*
X0201071Y0095159D01*
X0201050Y0095298D01*
X0201032Y0095438D01*
X0201018Y0095578D01*
X0201008Y0095718D01*
X0201002Y0095859D01*
X0201000Y0096000D01*
X0356000Y0266000D02*
X0356002Y0266141D01*
X0356008Y0266282D01*
X0356018Y0266422D01*
X0356032Y0266562D01*
X0356050Y0266702D01*
X0356071Y0266841D01*
X0356097Y0266980D01*
X0356126Y0267118D01*
X0356160Y0267254D01*
X0356197Y0267390D01*
X0356238Y0267525D01*
X0356283Y0267659D01*
X0356332Y0267791D01*
X0356384Y0267922D01*
X0356440Y0268051D01*
X0356500Y0268178D01*
X0356563Y0268304D01*
X0356629Y0268428D01*
X0356700Y0268551D01*
X0356773Y0268671D01*
X0356850Y0268789D01*
X0356930Y0268905D01*
X0357014Y0269018D01*
X0357100Y0269129D01*
X0357190Y0269238D01*
X0357283Y0269344D01*
X0357378Y0269447D01*
X0357477Y0269548D01*
X0357578Y0269646D01*
X0357682Y0269741D01*
X0357789Y0269833D01*
X0357898Y0269922D01*
X0358010Y0270007D01*
X0358124Y0270090D01*
X0358240Y0270170D01*
X0358359Y0270246D01*
X0358480Y0270318D01*
X0358602Y0270388D01*
X0358727Y0270453D01*
X0358853Y0270516D01*
X0358981Y0270574D01*
X0359111Y0270629D01*
X0359242Y0270681D01*
X0359375Y0270728D01*
X0359509Y0270772D01*
X0359644Y0270813D01*
X0359780Y0270849D01*
X0359917Y0270881D01*
X0360055Y0270910D01*
X0360193Y0270935D01*
X0360333Y0270955D01*
X0360473Y0270972D01*
X0360613Y0270985D01*
X0360754Y0270994D01*
X0360894Y0270999D01*
X0361035Y0271000D01*
X0361176Y0270997D01*
X0361317Y0270990D01*
X0361457Y0270979D01*
X0361597Y0270964D01*
X0361737Y0270945D01*
X0361876Y0270923D01*
X0362014Y0270896D01*
X0362152Y0270866D01*
X0362288Y0270831D01*
X0362424Y0270793D01*
X0362558Y0270751D01*
X0362692Y0270705D01*
X0362824Y0270656D01*
X0362954Y0270602D01*
X0363083Y0270545D01*
X0363210Y0270485D01*
X0363336Y0270421D01*
X0363459Y0270353D01*
X0363581Y0270282D01*
X0363701Y0270208D01*
X0363818Y0270130D01*
X0363933Y0270049D01*
X0364046Y0269965D01*
X0364157Y0269878D01*
X0364265Y0269787D01*
X0364370Y0269694D01*
X0364473Y0269597D01*
X0364573Y0269498D01*
X0364670Y0269396D01*
X0364764Y0269291D01*
X0364855Y0269184D01*
X0364943Y0269074D01*
X0365028Y0268962D01*
X0365110Y0268847D01*
X0365189Y0268730D01*
X0365264Y0268611D01*
X0365336Y0268490D01*
X0365404Y0268367D01*
X0365469Y0268242D01*
X0365531Y0268115D01*
X0365588Y0267986D01*
X0365643Y0267856D01*
X0365693Y0267725D01*
X0365740Y0267592D01*
X0365783Y0267458D01*
X0365822Y0267322D01*
X0365857Y0267186D01*
X0365889Y0267049D01*
X0365916Y0266911D01*
X0365940Y0266772D01*
X0365960Y0266632D01*
X0365976Y0266492D01*
X0365988Y0266352D01*
X0365996Y0266211D01*
X0366000Y0266070D01*
X0366000Y0265930D01*
X0365996Y0265789D01*
X0365988Y0265648D01*
X0365976Y0265508D01*
X0365960Y0265368D01*
X0365940Y0265228D01*
X0365916Y0265089D01*
X0365889Y0264951D01*
X0365857Y0264814D01*
X0365822Y0264678D01*
X0365783Y0264542D01*
X0365740Y0264408D01*
X0365693Y0264275D01*
X0365643Y0264144D01*
X0365588Y0264014D01*
X0365531Y0263885D01*
X0365469Y0263758D01*
X0365404Y0263633D01*
X0365336Y0263510D01*
X0365264Y0263389D01*
X0365189Y0263270D01*
X0365110Y0263153D01*
X0365028Y0263038D01*
X0364943Y0262926D01*
X0364855Y0262816D01*
X0364764Y0262709D01*
X0364670Y0262604D01*
X0364573Y0262502D01*
X0364473Y0262403D01*
X0364370Y0262306D01*
X0364265Y0262213D01*
X0364157Y0262122D01*
X0364046Y0262035D01*
X0363933Y0261951D01*
X0363818Y0261870D01*
X0363701Y0261792D01*
X0363581Y0261718D01*
X0363459Y0261647D01*
X0363336Y0261579D01*
X0363210Y0261515D01*
X0363083Y0261455D01*
X0362954Y0261398D01*
X0362824Y0261344D01*
X0362692Y0261295D01*
X0362558Y0261249D01*
X0362424Y0261207D01*
X0362288Y0261169D01*
X0362152Y0261134D01*
X0362014Y0261104D01*
X0361876Y0261077D01*
X0361737Y0261055D01*
X0361597Y0261036D01*
X0361457Y0261021D01*
X0361317Y0261010D01*
X0361176Y0261003D01*
X0361035Y0261000D01*
X0360894Y0261001D01*
X0360754Y0261006D01*
X0360613Y0261015D01*
X0360473Y0261028D01*
X0360333Y0261045D01*
X0360193Y0261065D01*
X0360055Y0261090D01*
X0359917Y0261119D01*
X0359780Y0261151D01*
X0359644Y0261187D01*
X0359509Y0261228D01*
X0359375Y0261272D01*
X0359242Y0261319D01*
X0359111Y0261371D01*
X0358981Y0261426D01*
X0358853Y0261484D01*
X0358727Y0261547D01*
X0358602Y0261612D01*
X0358480Y0261682D01*
X0358359Y0261754D01*
X0358240Y0261830D01*
X0358124Y0261910D01*
X0358010Y0261993D01*
X0357898Y0262078D01*
X0357789Y0262167D01*
X0357682Y0262259D01*
X0357578Y0262354D01*
X0357477Y0262452D01*
X0357378Y0262553D01*
X0357283Y0262656D01*
X0357190Y0262762D01*
X0357100Y0262871D01*
X0357014Y0262982D01*
X0356930Y0263095D01*
X0356850Y0263211D01*
X0356773Y0263329D01*
X0356700Y0263449D01*
X0356629Y0263572D01*
X0356563Y0263696D01*
X0356500Y0263822D01*
X0356440Y0263949D01*
X0356384Y0264078D01*
X0356332Y0264209D01*
X0356283Y0264341D01*
X0356238Y0264475D01*
X0356197Y0264610D01*
X0356160Y0264746D01*
X0356126Y0264882D01*
X0356097Y0265020D01*
X0356071Y0265159D01*
X0356050Y0265298D01*
X0356032Y0265438D01*
X0356018Y0265578D01*
X0356008Y0265718D01*
X0356002Y0265859D01*
X0356000Y0266000D01*
D12*
X0277200Y0211000D02*
X0277200Y0201000D01*
X0264187Y0201807D02*
X0264088Y0201972D01*
X0263993Y0202139D01*
X0263903Y0202308D01*
X0263816Y0202479D01*
X0263734Y0202653D01*
X0263656Y0202828D01*
X0263582Y0203005D01*
X0263512Y0203184D01*
X0263447Y0203364D01*
X0263386Y0203546D01*
X0263329Y0203729D01*
X0263277Y0203914D01*
X0263229Y0204100D01*
X0263186Y0204287D01*
X0263147Y0204475D01*
X0263112Y0204663D01*
X0263083Y0204853D01*
X0263057Y0205043D01*
X0263037Y0205234D01*
X0263021Y0205425D01*
X0263009Y0205617D01*
X0263002Y0205808D01*
X0263000Y0206000D01*
X0264054Y0202031D02*
X0264153Y0201862D01*
X0264257Y0201696D01*
X0264364Y0201532D01*
X0264475Y0201371D01*
X0264590Y0201213D01*
X0264709Y0201058D01*
X0264832Y0200905D01*
X0264958Y0200756D01*
X0265088Y0200610D01*
X0265222Y0200467D01*
X0265359Y0200327D01*
X0265499Y0200191D01*
X0265643Y0200058D01*
X0265790Y0199929D01*
X0265940Y0199803D01*
X0266093Y0199682D01*
X0266249Y0199563D01*
X0266408Y0199449D01*
X0266569Y0199339D01*
X0266734Y0199233D01*
X0266900Y0199130D01*
X0267070Y0199032D01*
X0267241Y0198938D01*
X0267415Y0198848D01*
X0267591Y0198763D01*
X0267769Y0198681D01*
X0267949Y0198605D01*
X0268131Y0198532D01*
X0268314Y0198464D01*
X0268499Y0198401D01*
X0268686Y0198342D01*
X0268874Y0198288D01*
X0269063Y0198238D01*
X0269253Y0198193D01*
X0269445Y0198153D01*
X0269637Y0198117D01*
X0269830Y0198086D01*
X0270024Y0198060D01*
X0270219Y0198038D01*
X0270414Y0198022D01*
X0270609Y0198010D01*
X0270805Y0198002D01*
X0271000Y0198000D01*
X0263000Y0206000D02*
X0263002Y0206188D01*
X0263009Y0206376D01*
X0263020Y0206564D01*
X0263035Y0206752D01*
X0263055Y0206939D01*
X0263080Y0207125D01*
X0263108Y0207311D01*
X0263141Y0207497D01*
X0263179Y0207681D01*
X0263220Y0207864D01*
X0263266Y0208047D01*
X0263317Y0208228D01*
X0263371Y0208408D01*
X0263430Y0208587D01*
X0263493Y0208764D01*
X0263560Y0208940D01*
X0263631Y0209114D01*
X0263706Y0209287D01*
X0263786Y0209457D01*
X0263869Y0209626D01*
X0263956Y0209793D01*
X0271000Y0214000D02*
X0271195Y0213998D01*
X0271389Y0213991D01*
X0271583Y0213979D01*
X0271777Y0213962D01*
X0271971Y0213941D01*
X0272164Y0213915D01*
X0272356Y0213884D01*
X0272548Y0213849D01*
X0272738Y0213809D01*
X0272928Y0213764D01*
X0273116Y0213715D01*
X0273303Y0213661D01*
X0273489Y0213603D01*
X0273673Y0213540D01*
X0273856Y0213473D01*
X0274037Y0213401D01*
X0274216Y0213325D01*
X0274393Y0213245D01*
X0274568Y0213160D01*
X0274742Y0213071D01*
X0274912Y0212978D01*
X0275081Y0212881D01*
X0275247Y0212779D01*
X0275411Y0212674D01*
X0275572Y0212565D01*
X0275731Y0212452D01*
X0275886Y0212335D01*
X0276039Y0212214D01*
X0276188Y0212089D01*
X0276335Y0211961D01*
X0276479Y0211830D01*
X0276619Y0211695D01*
X0276756Y0211556D01*
X0276889Y0211415D01*
X0277019Y0211270D01*
X0277146Y0211122D01*
X0271000Y0214000D02*
X0270808Y0213998D01*
X0270616Y0213991D01*
X0270424Y0213979D01*
X0270232Y0213963D01*
X0270041Y0213942D01*
X0269851Y0213917D01*
X0269661Y0213887D01*
X0269472Y0213853D01*
X0269284Y0213814D01*
X0269097Y0213770D01*
X0268911Y0213722D01*
X0268726Y0213670D01*
X0268542Y0213613D01*
X0268360Y0213552D01*
X0268180Y0213486D01*
X0268001Y0213416D01*
X0267823Y0213342D01*
X0267648Y0213264D01*
X0267474Y0213181D01*
X0267303Y0213094D01*
X0267134Y0213004D01*
X0266967Y0212909D01*
X0266802Y0212810D01*
X0266639Y0212707D01*
X0266480Y0212600D01*
X0266322Y0212490D01*
X0266168Y0212376D01*
X0266016Y0212258D01*
X0265867Y0212136D01*
X0265721Y0212011D01*
X0265579Y0211883D01*
X0265439Y0211751D01*
X0265302Y0211616D01*
X0265169Y0211477D01*
X0265039Y0211336D01*
X0264913Y0211191D01*
X0264790Y0211043D01*
X0264671Y0210893D01*
X0264555Y0210739D01*
X0264443Y0210583D01*
X0264335Y0210424D01*
X0264230Y0210263D01*
X0264130Y0210099D01*
X0264034Y0209933D01*
X0263941Y0209765D01*
X0271000Y0198000D02*
X0271193Y0198002D01*
X0271386Y0198009D01*
X0271578Y0198021D01*
X0271771Y0198037D01*
X0271963Y0198058D01*
X0272154Y0198084D01*
X0272344Y0198114D01*
X0272534Y0198149D01*
X0272723Y0198188D01*
X0272911Y0198232D01*
X0273098Y0198280D01*
X0273284Y0198333D01*
X0273468Y0198390D01*
X0273651Y0198452D01*
X0273832Y0198518D01*
X0274012Y0198589D01*
X0274190Y0198663D01*
X0274366Y0198742D01*
X0274540Y0198826D01*
X0274712Y0198913D01*
X0274882Y0199005D01*
X0275049Y0199101D01*
X0275215Y0199200D01*
X0275378Y0199304D01*
X0275538Y0199411D01*
X0275695Y0199523D01*
X0275850Y0199638D01*
X0276002Y0199757D01*
X0276151Y0199879D01*
X0276298Y0200005D01*
X0276441Y0200135D01*
X0276581Y0200268D01*
X0276717Y0200404D01*
X0276851Y0200544D01*
X0276980Y0200686D01*
X0277107Y0200832D01*
X0274000Y0182000D02*
X0271000Y0182000D01*
X0268000Y0182000D01*
X0268000Y0180000D02*
X0271000Y0180000D01*
X0274000Y0180000D01*
X0274000Y0157000D02*
X0271000Y0157000D01*
X0268000Y0157000D01*
X0268000Y0155000D02*
X0271000Y0155000D01*
X0274000Y0155000D01*
X0272000Y0134000D02*
X0272000Y0131000D01*
X0272000Y0128000D01*
X0270000Y0128000D02*
X0270000Y0131000D01*
X0270000Y0134000D01*
X0242000Y0134000D02*
X0242000Y0131000D01*
X0242000Y0128000D01*
X0240000Y0128000D02*
X0240000Y0131000D01*
X0240000Y0134000D01*
D13*
X0211000Y0136000D03*
X0211000Y0146000D03*
X0211000Y0126000D03*
X0241000Y0101000D03*
X0251000Y0101000D03*
X0261000Y0101000D03*
X0356000Y0121000D03*
X0366000Y0121000D03*
X0366000Y0131000D03*
X0356000Y0131000D03*
X0356000Y0141000D03*
X0366000Y0141000D03*
X0366000Y0151000D03*
X0356000Y0151000D03*
X0361000Y0176000D03*
X0361000Y0186000D03*
X0361000Y0196000D03*
X0361000Y0206000D03*
X0361000Y0216000D03*
X0361000Y0226000D03*
D14*
X0253000Y0179500D02*
X0253000Y0152500D01*
X0252998Y0152330D01*
X0252992Y0152159D01*
X0252981Y0151989D01*
X0252967Y0151819D01*
X0252948Y0151650D01*
X0252925Y0151481D01*
X0252899Y0151312D01*
X0252868Y0151145D01*
X0252833Y0150978D01*
X0252793Y0150812D01*
X0252750Y0150647D01*
X0252703Y0150483D01*
X0252652Y0150321D01*
X0252597Y0150159D01*
X0252538Y0149999D01*
X0252475Y0149841D01*
X0252409Y0149684D01*
X0252338Y0149529D01*
X0252264Y0149375D01*
X0252186Y0149224D01*
X0252104Y0149074D01*
X0252019Y0148926D01*
X0251930Y0148781D01*
X0251838Y0148638D01*
X0251742Y0148497D01*
X0251643Y0148358D01*
X0251540Y0148222D01*
X0251435Y0148088D01*
X0251326Y0147957D01*
X0251213Y0147829D01*
X0251098Y0147703D01*
X0250980Y0147580D01*
X0250859Y0147461D01*
X0250734Y0147344D01*
X0250607Y0147230D01*
X0250478Y0147119D01*
X0250345Y0147012D01*
X0250210Y0146908D01*
X0250073Y0146807D01*
X0249933Y0146709D01*
X0249791Y0146615D01*
X0249647Y0146525D01*
X0249500Y0146438D01*
X0249351Y0146354D01*
X0249201Y0146275D01*
X0249048Y0146199D01*
X0248894Y0146126D01*
X0248738Y0146058D01*
X0248580Y0145993D01*
X0248421Y0145932D01*
X0248260Y0145875D01*
X0248098Y0145822D01*
X0247935Y0145773D01*
X0247771Y0145728D01*
X0247605Y0145687D01*
X0247439Y0145649D01*
X0247271Y0145616D01*
X0247103Y0145588D01*
X0246935Y0145563D01*
X0246766Y0145542D01*
X0246596Y0145525D01*
X0246426Y0145513D01*
X0246256Y0145505D01*
X0246085Y0145501D01*
X0245915Y0145501D01*
X0245744Y0145505D01*
X0245574Y0145513D01*
X0245404Y0145525D01*
X0245234Y0145542D01*
X0245065Y0145563D01*
X0244897Y0145588D01*
X0244729Y0145616D01*
X0244561Y0145649D01*
X0244395Y0145687D01*
X0244229Y0145728D01*
X0244065Y0145773D01*
X0243902Y0145822D01*
X0243740Y0145875D01*
X0243579Y0145932D01*
X0243420Y0145993D01*
X0243262Y0146058D01*
X0243106Y0146126D01*
X0242952Y0146199D01*
X0242799Y0146275D01*
X0242649Y0146354D01*
X0242500Y0146438D01*
X0242353Y0146525D01*
X0242209Y0146615D01*
X0242067Y0146709D01*
X0241927Y0146807D01*
X0241790Y0146908D01*
X0241655Y0147012D01*
X0241522Y0147119D01*
X0241393Y0147230D01*
X0241266Y0147344D01*
X0241141Y0147461D01*
X0241020Y0147580D01*
X0240902Y0147703D01*
X0240787Y0147829D01*
X0240674Y0147957D01*
X0240565Y0148088D01*
X0240460Y0148222D01*
X0240357Y0148358D01*
X0240258Y0148497D01*
X0240162Y0148638D01*
X0240070Y0148781D01*
X0239981Y0148926D01*
X0239896Y0149074D01*
X0239814Y0149224D01*
X0239736Y0149375D01*
X0239662Y0149529D01*
X0239591Y0149684D01*
X0239525Y0149841D01*
X0239462Y0149999D01*
X0239403Y0150159D01*
X0239348Y0150321D01*
X0239297Y0150483D01*
X0239250Y0150647D01*
X0239207Y0150812D01*
X0239167Y0150978D01*
X0239132Y0151145D01*
X0239101Y0151312D01*
X0239075Y0151481D01*
X0239052Y0151650D01*
X0239033Y0151819D01*
X0239019Y0151989D01*
X0239008Y0152159D01*
X0239002Y0152330D01*
X0239000Y0152500D01*
X0239000Y0179500D01*
X0239002Y0179670D01*
X0239008Y0179841D01*
X0239019Y0180011D01*
X0239033Y0180181D01*
X0239052Y0180350D01*
X0239075Y0180519D01*
X0239101Y0180688D01*
X0239132Y0180855D01*
X0239167Y0181022D01*
X0239207Y0181188D01*
X0239250Y0181353D01*
X0239297Y0181517D01*
X0239348Y0181679D01*
X0239403Y0181841D01*
X0239462Y0182001D01*
X0239525Y0182159D01*
X0239591Y0182316D01*
X0239662Y0182471D01*
X0239736Y0182625D01*
X0239814Y0182776D01*
X0239896Y0182926D01*
X0239981Y0183074D01*
X0240070Y0183219D01*
X0240162Y0183362D01*
X0240258Y0183503D01*
X0240357Y0183642D01*
X0240460Y0183778D01*
X0240565Y0183912D01*
X0240674Y0184043D01*
X0240787Y0184171D01*
X0240902Y0184297D01*
X0241020Y0184420D01*
X0241141Y0184539D01*
X0241266Y0184656D01*
X0241393Y0184770D01*
X0241522Y0184881D01*
X0241655Y0184988D01*
X0241790Y0185092D01*
X0241927Y0185193D01*
X0242067Y0185291D01*
X0242209Y0185385D01*
X0242353Y0185475D01*
X0242500Y0185562D01*
X0242649Y0185646D01*
X0242799Y0185725D01*
X0242952Y0185801D01*
X0243106Y0185874D01*
X0243262Y0185942D01*
X0243420Y0186007D01*
X0243579Y0186068D01*
X0243740Y0186125D01*
X0243902Y0186178D01*
X0244065Y0186227D01*
X0244229Y0186272D01*
X0244395Y0186313D01*
X0244561Y0186351D01*
X0244729Y0186384D01*
X0244897Y0186412D01*
X0245065Y0186437D01*
X0245234Y0186458D01*
X0245404Y0186475D01*
X0245574Y0186487D01*
X0245744Y0186495D01*
X0245915Y0186499D01*
X0246085Y0186499D01*
X0246256Y0186495D01*
X0246426Y0186487D01*
X0246596Y0186475D01*
X0246766Y0186458D01*
X0246935Y0186437D01*
X0247103Y0186412D01*
X0247271Y0186384D01*
X0247439Y0186351D01*
X0247605Y0186313D01*
X0247771Y0186272D01*
X0247935Y0186227D01*
X0248098Y0186178D01*
X0248260Y0186125D01*
X0248421Y0186068D01*
X0248580Y0186007D01*
X0248738Y0185942D01*
X0248894Y0185874D01*
X0249048Y0185801D01*
X0249201Y0185725D01*
X0249351Y0185646D01*
X0249500Y0185562D01*
X0249647Y0185475D01*
X0249791Y0185385D01*
X0249933Y0185291D01*
X0250073Y0185193D01*
X0250210Y0185092D01*
X0250345Y0184988D01*
X0250478Y0184881D01*
X0250607Y0184770D01*
X0250734Y0184656D01*
X0250859Y0184539D01*
X0250980Y0184420D01*
X0251098Y0184297D01*
X0251213Y0184171D01*
X0251326Y0184043D01*
X0251435Y0183912D01*
X0251540Y0183778D01*
X0251643Y0183642D01*
X0251742Y0183503D01*
X0251838Y0183362D01*
X0251930Y0183219D01*
X0252019Y0183074D01*
X0252104Y0182926D01*
X0252186Y0182776D01*
X0252264Y0182625D01*
X0252338Y0182471D01*
X0252409Y0182316D01*
X0252475Y0182159D01*
X0252538Y0182001D01*
X0252597Y0181841D01*
X0252652Y0181679D01*
X0252703Y0181517D01*
X0252750Y0181353D01*
X0252793Y0181188D01*
X0252833Y0181022D01*
X0252868Y0180855D01*
X0252899Y0180688D01*
X0252925Y0180519D01*
X0252948Y0180350D01*
X0252967Y0180181D01*
X0252981Y0180011D01*
X0252992Y0179841D01*
X0252998Y0179670D01*
X0253000Y0179500D01*
D15*
X0251000Y0201000D02*
X0247500Y0201000D01*
X0224500Y0201000D02*
X0221000Y0201000D01*
X0221000Y0191000D02*
X0221000Y0187500D01*
X0221000Y0164500D02*
X0221000Y0161000D01*
D16*
X0225250Y0201000D03*
X0246750Y0201000D03*
D17*
X0221000Y0186750D03*
X0221000Y0165250D03*
D18*
X0216984Y0211926D02*
X0222500Y0217500D01*
X0222500Y0251000D01*
X0259500Y0251000D01*
X0259500Y0217500D01*
X0265016Y0211926D01*
X0265016Y0257673D01*
X0259500Y0251000D01*
X0265016Y0257673D02*
X0216984Y0257673D01*
X0222500Y0251000D01*
X0216984Y0257673D02*
X0216984Y0211926D01*
X0265016Y0211926D01*
X0259500Y0217500D02*
X0222500Y0217500D01*
X0216984Y0257673D02*
X0216984Y0280074D01*
X0265016Y0280074D01*
X0265016Y0257673D01*
M02*
