%
M48
M72
T01C0.02400
T02C0.03200
T03C0.03543
T04C0.04000
T05C0.04331
%
T01
X261000Y171000
X251394Y180528
X261000Y191000
T02
X311000Y186000
X311000Y196000
X311000Y206000
X311000Y216000
X311000Y226000
X311000Y236000
X311000Y246000
X311000Y256000
X341000Y256000
X341000Y246000
X341000Y236000
X341000Y226000
X341000Y216000
X341000Y206000
X341000Y196000
X341000Y186000
X341000Y176000
X341000Y166000
X341000Y156000
X341000Y146000
X341000Y136000
X341000Y126000
X311000Y126000
X311000Y136000
X311000Y146000
X311000Y156000
X311000Y166000
X311000Y176000
X261000Y151000
X261000Y121000
T03
X266000Y221000
X286000Y221000
X286000Y251000
X266000Y251000
T04
X246000Y91000
X256000Y91000
X266000Y91000
X276000Y91000
X286000Y91000
X296000Y91000
X306000Y91000
X316000Y91000
X326000Y91000
X336000Y91000
X286000Y126000
X286000Y136000
X286000Y146000
X286000Y156000
X286000Y166000
X286000Y176000
X286000Y186000
X286000Y196000
X286000Y286000
X296000Y286000
X306000Y286000
X316000Y286000
X326000Y286000
X336000Y286000
X276000Y286000
X266000Y286000
X256000Y286000
X246000Y286000
T05
X236000Y251000
X296000Y221000
M30
