G75*
%MOIN*%
%OFA0B0*%
%FSLAX25Y25*%
%IPPOS*%
%LPD*%
%AMOC8*
5,1,8,0,0,1.08239X$1,22.5*
%
%ADD10C,0.00000*%
%ADD11C,0.05200*%
%ADD12C,0.06000*%
%ADD13C,0.04400*%
%ADD14OC8,0.05200*%
%ADD15R,0.05906X0.05906*%
%ADD16C,0.01969*%
%ADD17C,0.04000*%
D10*
X0001000Y0001000D02*
X0001000Y0394701D01*
X0630921Y0394701D01*
X0630921Y0001000D01*
X0001000Y0001000D01*
X0293835Y0221000D02*
X0293837Y0221093D01*
X0293843Y0221185D01*
X0293853Y0221277D01*
X0293867Y0221368D01*
X0293884Y0221459D01*
X0293906Y0221549D01*
X0293931Y0221638D01*
X0293960Y0221726D01*
X0293993Y0221812D01*
X0294030Y0221897D01*
X0294070Y0221981D01*
X0294114Y0222062D01*
X0294161Y0222142D01*
X0294211Y0222220D01*
X0294265Y0222295D01*
X0294322Y0222368D01*
X0294382Y0222438D01*
X0294445Y0222506D01*
X0294511Y0222571D01*
X0294579Y0222633D01*
X0294650Y0222693D01*
X0294724Y0222749D01*
X0294800Y0222802D01*
X0294878Y0222851D01*
X0294958Y0222898D01*
X0295040Y0222940D01*
X0295124Y0222980D01*
X0295209Y0223015D01*
X0295296Y0223047D01*
X0295384Y0223076D01*
X0295473Y0223100D01*
X0295563Y0223121D01*
X0295654Y0223137D01*
X0295746Y0223150D01*
X0295838Y0223159D01*
X0295931Y0223164D01*
X0296023Y0223165D01*
X0296116Y0223162D01*
X0296208Y0223155D01*
X0296300Y0223144D01*
X0296391Y0223129D01*
X0296482Y0223111D01*
X0296572Y0223088D01*
X0296660Y0223062D01*
X0296748Y0223032D01*
X0296834Y0222998D01*
X0296918Y0222961D01*
X0297001Y0222919D01*
X0297082Y0222875D01*
X0297162Y0222827D01*
X0297239Y0222776D01*
X0297313Y0222721D01*
X0297386Y0222663D01*
X0297456Y0222603D01*
X0297523Y0222539D01*
X0297587Y0222473D01*
X0297649Y0222403D01*
X0297707Y0222332D01*
X0297762Y0222258D01*
X0297814Y0222181D01*
X0297863Y0222102D01*
X0297909Y0222022D01*
X0297951Y0221939D01*
X0297989Y0221855D01*
X0298024Y0221769D01*
X0298055Y0221682D01*
X0298082Y0221594D01*
X0298105Y0221504D01*
X0298125Y0221414D01*
X0298141Y0221323D01*
X0298153Y0221231D01*
X0298161Y0221139D01*
X0298165Y0221046D01*
X0298165Y0220954D01*
X0298161Y0220861D01*
X0298153Y0220769D01*
X0298141Y0220677D01*
X0298125Y0220586D01*
X0298105Y0220496D01*
X0298082Y0220406D01*
X0298055Y0220318D01*
X0298024Y0220231D01*
X0297989Y0220145D01*
X0297951Y0220061D01*
X0297909Y0219978D01*
X0297863Y0219898D01*
X0297814Y0219819D01*
X0297762Y0219742D01*
X0297707Y0219668D01*
X0297649Y0219597D01*
X0297587Y0219527D01*
X0297523Y0219461D01*
X0297456Y0219397D01*
X0297386Y0219337D01*
X0297313Y0219279D01*
X0297239Y0219224D01*
X0297162Y0219173D01*
X0297083Y0219125D01*
X0297001Y0219081D01*
X0296918Y0219039D01*
X0296834Y0219002D01*
X0296748Y0218968D01*
X0296660Y0218938D01*
X0296572Y0218912D01*
X0296482Y0218889D01*
X0296391Y0218871D01*
X0296300Y0218856D01*
X0296208Y0218845D01*
X0296116Y0218838D01*
X0296023Y0218835D01*
X0295931Y0218836D01*
X0295838Y0218841D01*
X0295746Y0218850D01*
X0295654Y0218863D01*
X0295563Y0218879D01*
X0295473Y0218900D01*
X0295384Y0218924D01*
X0295296Y0218953D01*
X0295209Y0218985D01*
X0295124Y0219020D01*
X0295040Y0219060D01*
X0294958Y0219102D01*
X0294878Y0219149D01*
X0294800Y0219198D01*
X0294724Y0219251D01*
X0294650Y0219307D01*
X0294579Y0219367D01*
X0294511Y0219429D01*
X0294445Y0219494D01*
X0294382Y0219562D01*
X0294322Y0219632D01*
X0294265Y0219705D01*
X0294211Y0219780D01*
X0294161Y0219858D01*
X0294114Y0219938D01*
X0294070Y0220019D01*
X0294030Y0220103D01*
X0293993Y0220188D01*
X0293960Y0220274D01*
X0293931Y0220362D01*
X0293906Y0220451D01*
X0293884Y0220541D01*
X0293867Y0220632D01*
X0293853Y0220723D01*
X0293843Y0220815D01*
X0293837Y0220907D01*
X0293835Y0221000D01*
X0233835Y0251000D02*
X0233837Y0251093D01*
X0233843Y0251185D01*
X0233853Y0251277D01*
X0233867Y0251368D01*
X0233884Y0251459D01*
X0233906Y0251549D01*
X0233931Y0251638D01*
X0233960Y0251726D01*
X0233993Y0251812D01*
X0234030Y0251897D01*
X0234070Y0251981D01*
X0234114Y0252062D01*
X0234161Y0252142D01*
X0234211Y0252220D01*
X0234265Y0252295D01*
X0234322Y0252368D01*
X0234382Y0252438D01*
X0234445Y0252506D01*
X0234511Y0252571D01*
X0234579Y0252633D01*
X0234650Y0252693D01*
X0234724Y0252749D01*
X0234800Y0252802D01*
X0234878Y0252851D01*
X0234958Y0252898D01*
X0235040Y0252940D01*
X0235124Y0252980D01*
X0235209Y0253015D01*
X0235296Y0253047D01*
X0235384Y0253076D01*
X0235473Y0253100D01*
X0235563Y0253121D01*
X0235654Y0253137D01*
X0235746Y0253150D01*
X0235838Y0253159D01*
X0235931Y0253164D01*
X0236023Y0253165D01*
X0236116Y0253162D01*
X0236208Y0253155D01*
X0236300Y0253144D01*
X0236391Y0253129D01*
X0236482Y0253111D01*
X0236572Y0253088D01*
X0236660Y0253062D01*
X0236748Y0253032D01*
X0236834Y0252998D01*
X0236918Y0252961D01*
X0237001Y0252919D01*
X0237082Y0252875D01*
X0237162Y0252827D01*
X0237239Y0252776D01*
X0237313Y0252721D01*
X0237386Y0252663D01*
X0237456Y0252603D01*
X0237523Y0252539D01*
X0237587Y0252473D01*
X0237649Y0252403D01*
X0237707Y0252332D01*
X0237762Y0252258D01*
X0237814Y0252181D01*
X0237863Y0252102D01*
X0237909Y0252022D01*
X0237951Y0251939D01*
X0237989Y0251855D01*
X0238024Y0251769D01*
X0238055Y0251682D01*
X0238082Y0251594D01*
X0238105Y0251504D01*
X0238125Y0251414D01*
X0238141Y0251323D01*
X0238153Y0251231D01*
X0238161Y0251139D01*
X0238165Y0251046D01*
X0238165Y0250954D01*
X0238161Y0250861D01*
X0238153Y0250769D01*
X0238141Y0250677D01*
X0238125Y0250586D01*
X0238105Y0250496D01*
X0238082Y0250406D01*
X0238055Y0250318D01*
X0238024Y0250231D01*
X0237989Y0250145D01*
X0237951Y0250061D01*
X0237909Y0249978D01*
X0237863Y0249898D01*
X0237814Y0249819D01*
X0237762Y0249742D01*
X0237707Y0249668D01*
X0237649Y0249597D01*
X0237587Y0249527D01*
X0237523Y0249461D01*
X0237456Y0249397D01*
X0237386Y0249337D01*
X0237313Y0249279D01*
X0237239Y0249224D01*
X0237162Y0249173D01*
X0237083Y0249125D01*
X0237001Y0249081D01*
X0236918Y0249039D01*
X0236834Y0249002D01*
X0236748Y0248968D01*
X0236660Y0248938D01*
X0236572Y0248912D01*
X0236482Y0248889D01*
X0236391Y0248871D01*
X0236300Y0248856D01*
X0236208Y0248845D01*
X0236116Y0248838D01*
X0236023Y0248835D01*
X0235931Y0248836D01*
X0235838Y0248841D01*
X0235746Y0248850D01*
X0235654Y0248863D01*
X0235563Y0248879D01*
X0235473Y0248900D01*
X0235384Y0248924D01*
X0235296Y0248953D01*
X0235209Y0248985D01*
X0235124Y0249020D01*
X0235040Y0249060D01*
X0234958Y0249102D01*
X0234878Y0249149D01*
X0234800Y0249198D01*
X0234724Y0249251D01*
X0234650Y0249307D01*
X0234579Y0249367D01*
X0234511Y0249429D01*
X0234445Y0249494D01*
X0234382Y0249562D01*
X0234322Y0249632D01*
X0234265Y0249705D01*
X0234211Y0249780D01*
X0234161Y0249858D01*
X0234114Y0249938D01*
X0234070Y0250019D01*
X0234030Y0250103D01*
X0233993Y0250188D01*
X0233960Y0250274D01*
X0233931Y0250362D01*
X0233906Y0250451D01*
X0233884Y0250541D01*
X0233867Y0250632D01*
X0233853Y0250723D01*
X0233843Y0250815D01*
X0233837Y0250907D01*
X0233835Y0251000D01*
D11*
X0308400Y0246000D02*
X0313600Y0246000D01*
X0313600Y0256000D02*
X0308400Y0256000D01*
X0308400Y0236000D02*
X0313600Y0236000D01*
X0313600Y0226000D02*
X0308400Y0226000D01*
X0308400Y0216000D02*
X0313600Y0216000D01*
X0313600Y0206000D02*
X0308400Y0206000D01*
X0308400Y0196000D02*
X0313600Y0196000D01*
X0313600Y0186000D02*
X0308400Y0186000D01*
X0308400Y0176000D02*
X0313600Y0176000D01*
X0313600Y0166000D02*
X0308400Y0166000D01*
X0308400Y0156000D02*
X0313600Y0156000D01*
X0313600Y0146000D02*
X0308400Y0146000D01*
X0308400Y0136000D02*
X0313600Y0136000D01*
X0313600Y0126000D02*
X0308400Y0126000D01*
X0338400Y0126000D02*
X0343600Y0126000D01*
X0343600Y0136000D02*
X0338400Y0136000D01*
X0338400Y0146000D02*
X0343600Y0146000D01*
X0343600Y0156000D02*
X0338400Y0156000D01*
X0338400Y0166000D02*
X0343600Y0166000D01*
X0343600Y0176000D02*
X0338400Y0176000D01*
X0338400Y0186000D02*
X0343600Y0186000D01*
X0343600Y0196000D02*
X0338400Y0196000D01*
X0338400Y0206000D02*
X0343600Y0206000D01*
X0343600Y0216000D02*
X0338400Y0216000D01*
X0338400Y0226000D02*
X0343600Y0226000D01*
X0343600Y0236000D02*
X0338400Y0236000D01*
X0338400Y0246000D02*
X0343600Y0246000D01*
X0343600Y0256000D02*
X0338400Y0256000D01*
D12*
X0336000Y0283000D02*
X0336000Y0289000D01*
X0326000Y0289000D02*
X0326000Y0283000D01*
X0316000Y0283000D02*
X0316000Y0289000D01*
X0306000Y0289000D02*
X0306000Y0283000D01*
X0296000Y0283000D02*
X0296000Y0289000D01*
X0286000Y0289000D02*
X0286000Y0283000D01*
X0276000Y0283000D02*
X0276000Y0289000D01*
X0266000Y0289000D02*
X0266000Y0283000D01*
X0256000Y0283000D02*
X0256000Y0289000D01*
X0246000Y0289000D02*
X0246000Y0283000D01*
X0283000Y0196000D02*
X0289000Y0196000D01*
X0289000Y0186000D02*
X0283000Y0186000D01*
X0283000Y0176000D02*
X0289000Y0176000D01*
X0289000Y0166000D02*
X0283000Y0166000D01*
X0283000Y0156000D02*
X0289000Y0156000D01*
X0289000Y0146000D02*
X0283000Y0146000D01*
X0283000Y0136000D02*
X0289000Y0136000D01*
X0289000Y0126000D02*
X0283000Y0126000D01*
X0286000Y0094000D02*
X0286000Y0088000D01*
X0296000Y0088000D02*
X0296000Y0094000D01*
X0306000Y0094000D02*
X0306000Y0088000D01*
X0316000Y0088000D02*
X0316000Y0094000D01*
X0326000Y0094000D02*
X0326000Y0088000D01*
X0336000Y0088000D02*
X0336000Y0094000D01*
X0276000Y0094000D02*
X0276000Y0088000D01*
X0266000Y0088000D02*
X0266000Y0094000D01*
X0256000Y0094000D02*
X0256000Y0088000D01*
X0246000Y0088000D02*
X0246000Y0094000D01*
D13*
X0258800Y0171000D02*
X0263200Y0171000D01*
X0263200Y0191000D02*
X0258800Y0191000D01*
D14*
X0261000Y0151000D03*
X0261000Y0121000D03*
D15*
X0266000Y0221000D03*
X0286000Y0221000D03*
X0286000Y0251000D03*
X0266000Y0251000D03*
D16*
X0277378Y0251394D02*
X0277378Y0201787D01*
X0279740Y0204150D01*
X0310449Y0204150D01*
X0311000Y0206000D01*
X0341000Y0206000D02*
X0341157Y0204150D01*
X0355331Y0218323D01*
X0355331Y0286827D01*
X0341157Y0301000D01*
X0239583Y0301000D01*
X0227772Y0289189D01*
X0227772Y0204150D01*
X0251394Y0180528D01*
X0260843Y0180528D02*
X0260843Y0171079D01*
X0261000Y0171000D01*
X0260843Y0180528D02*
X0244307Y0197063D01*
X0244307Y0275016D01*
X0237220Y0282102D01*
X0237220Y0291551D01*
X0241945Y0296276D01*
X0338795Y0296276D01*
X0350606Y0284465D01*
X0350606Y0223047D01*
X0345882Y0218323D01*
X0341157Y0218323D01*
X0341000Y0216000D01*
X0341000Y0196000D02*
X0341157Y0194701D01*
X0345882Y0194701D01*
X0350606Y0189976D01*
X0350606Y0123835D01*
X0329346Y0102575D01*
X0263205Y0102575D01*
X0253756Y0093126D01*
X0256000Y0091000D01*
X0282102Y0116748D02*
X0331709Y0116748D01*
X0338795Y0123835D01*
X0341000Y0126000D01*
X0341000Y0136000D02*
X0338795Y0138008D01*
X0336433Y0138008D01*
X0322260Y0152181D01*
X0322260Y0258480D01*
X0310449Y0270291D01*
X0298638Y0270291D01*
X0284465Y0284465D01*
X0286000Y0286000D01*
X0293913Y0284465D02*
X0296000Y0286000D01*
X0293913Y0284465D02*
X0303362Y0275016D01*
X0312811Y0275016D01*
X0326984Y0260843D01*
X0326984Y0156906D01*
X0336433Y0147457D01*
X0338795Y0147457D01*
X0341000Y0146000D01*
X0310449Y0138008D02*
X0311000Y0136000D01*
X0310449Y0138008D02*
X0305724Y0138008D01*
X0301000Y0142732D01*
X0301000Y0154543D01*
X0291551Y0163992D01*
X0286827Y0163992D01*
X0286000Y0166000D01*
X0286000Y0156000D02*
X0286827Y0154543D01*
X0291551Y0154543D01*
X0296276Y0149819D01*
X0296276Y0138008D01*
X0308087Y0126197D01*
X0310449Y0126197D01*
X0311000Y0126000D01*
X0286000Y0126000D02*
X0284465Y0123835D01*
X0275016Y0133283D01*
X0275016Y0199425D01*
X0277378Y0201787D01*
X0270291Y0192339D02*
X0267929Y0194701D01*
X0267929Y0220685D01*
X0266000Y0221000D01*
X0270291Y0192339D02*
X0270291Y0121472D01*
X0263205Y0121472D01*
X0261000Y0121000D01*
X0270291Y0121472D02*
X0277378Y0121472D01*
X0282102Y0116748D01*
X0286000Y0251000D02*
X0284465Y0251394D01*
X0256118Y0279740D01*
X0256118Y0284465D01*
X0256000Y0286000D01*
X0246669Y0284465D02*
X0246000Y0286000D01*
X0246669Y0284465D02*
X0246669Y0282102D01*
X0277378Y0251394D01*
D17*
X0251394Y0180528D03*
M02*
