G75*
%MOIN*%
%OFA0B0*%
%FSLAX25Y25*%
%IPPOS*%
%LPD*%
%AMOC8*
5,1,8,0,0,1.08239X$1,22.5*
%
%ADD10OC8,0.07100*%
%ADD11C,0.06000*%
%ADD12C,0.06800*%
%ADD13OC8,0.06800*%
%ADD14OC8,0.06000*%
%ADD15C,0.05200*%
%ADD16R,0.06706X0.06706*%
%ADD17C,0.05131*%
D10*
X0251000Y0111000D03*
X0251000Y0121000D03*
X0251000Y0136000D03*
X0251000Y0146000D03*
X0296000Y0141000D03*
X0296000Y0131000D03*
X0296000Y0121000D03*
X0296000Y0151000D03*
D11*
X0308400Y0146000D02*
X0313600Y0146000D01*
X0313600Y0136000D02*
X0308400Y0136000D01*
X0308400Y0126000D02*
X0313600Y0126000D01*
X0313600Y0116000D02*
X0308400Y0116000D01*
X0308400Y0106000D02*
X0313600Y0106000D01*
X0313600Y0096000D02*
X0308400Y0096000D01*
X0338400Y0096000D02*
X0343600Y0096000D01*
X0343600Y0106000D02*
X0338400Y0106000D01*
X0338400Y0116000D02*
X0343600Y0116000D01*
X0343600Y0126000D02*
X0338400Y0126000D01*
X0338400Y0136000D02*
X0343600Y0136000D01*
X0343600Y0146000D02*
X0338400Y0146000D01*
X0338400Y0156000D02*
X0343600Y0156000D01*
X0343600Y0166000D02*
X0338400Y0166000D01*
X0338400Y0176000D02*
X0343600Y0176000D01*
X0343600Y0186000D02*
X0338400Y0186000D01*
X0338400Y0196000D02*
X0343600Y0196000D01*
X0343600Y0206000D02*
X0338400Y0206000D01*
X0338400Y0216000D02*
X0343600Y0216000D01*
X0343600Y0226000D02*
X0338400Y0226000D01*
X0313600Y0226000D02*
X0308400Y0226000D01*
X0308400Y0216000D02*
X0313600Y0216000D01*
X0313600Y0206000D02*
X0308400Y0206000D01*
X0308400Y0196000D02*
X0313600Y0196000D01*
X0313600Y0186000D02*
X0308400Y0186000D01*
X0308400Y0176000D02*
X0313600Y0176000D01*
X0313600Y0166000D02*
X0308400Y0166000D01*
X0308400Y0156000D02*
X0313600Y0156000D01*
D12*
X0229000Y0116000D02*
X0223000Y0116000D01*
X0223000Y0126000D02*
X0229000Y0126000D01*
X0229000Y0136000D02*
X0223000Y0136000D01*
X0251000Y0089000D02*
X0251000Y0083000D01*
X0261000Y0083000D02*
X0261000Y0089000D01*
X0271000Y0089000D02*
X0271000Y0083000D01*
X0368000Y0171000D02*
X0374000Y0171000D01*
X0374000Y0181000D02*
X0368000Y0181000D01*
X0368000Y0191000D02*
X0374000Y0191000D01*
X0374000Y0201000D02*
X0368000Y0201000D01*
X0368000Y0211000D02*
X0374000Y0211000D01*
X0374000Y0221000D02*
X0368000Y0221000D01*
D13*
X0371000Y0131000D03*
X0361000Y0131000D03*
X0361000Y0121000D03*
X0371000Y0121000D03*
X0371000Y0111000D03*
X0361000Y0111000D03*
X0361000Y0101000D03*
X0371000Y0101000D03*
D14*
X0296000Y0166000D03*
X0291000Y0181000D03*
X0266000Y0166000D03*
X0256000Y0166000D03*
X0226000Y0166000D03*
X0291000Y0211000D03*
X0266000Y0231000D03*
X0256000Y0231000D03*
X0236000Y0231000D03*
X0226000Y0231000D03*
D15*
X0273800Y0146000D02*
X0278200Y0146000D01*
X0278200Y0126000D02*
X0273800Y0126000D01*
D16*
X0261000Y0186000D03*
X0261000Y0206000D03*
X0231000Y0206000D03*
X0231000Y0186000D03*
D17*
X0231000Y0176000D03*
X0261000Y0236000D03*
M02*
