%
M48
M72
T01C0.02400
T02C0.03200
T03C0.03543
T04C0.04000
T05C0.04331
%
T01
X256000Y171000
X256000Y191000
T02
X286000Y186000
X286000Y196000
X286000Y206000
X286000Y216000
X286000Y226000
X286000Y236000
X286000Y246000
X286000Y256000
X286000Y266000
X316000Y266000
X316000Y256000
X316000Y246000
X316000Y236000
X316000Y226000
X316000Y216000
X316000Y206000
X316000Y196000
X316000Y186000
X316000Y176000
X316000Y166000
X316000Y156000
X316000Y146000
X316000Y136000
X286000Y136000
X286000Y146000
X286000Y156000
X286000Y166000
X286000Y176000
X266000Y216000
X226000Y216000
X216000Y231000
X216000Y241000
X216000Y256000
X216000Y266000
T03
X241000Y266000
X261000Y266000
X261000Y236000
X241000Y236000
T04
X231000Y136000
X241000Y136000
X251000Y136000
X226000Y171000
X226000Y181000
X226000Y191000
X341000Y171000
X351000Y171000
X351000Y161000
X351000Y151000
X341000Y151000
X341000Y161000
X341000Y141000
X351000Y141000
X346000Y216000
X346000Y226000
X346000Y236000
X346000Y246000
X346000Y256000
X346000Y266000
T05
X271000Y236000
X211000Y266000
M30
